<?xml version="1.0" standalone="no"?>
<!DOCTYPE svg PUBLIC "-//W3C//DTD SVG 1.1//EN" "http://www.w3.org/Graphics/SVG/1.1/DTD/svg11.dtd" >
<svg xmlns="http://www.w3.org/2000/svg" xmlns:xlink="http://www.w3.org/1999/xlink" version="1.1">
<metadata>
Created by FontForge 20170731 at Mon Nov 13 16:46:41 2023
 By Aleksey,,,
Copyright (c) 2013 by Lazar Dimitrijevic. All rights reserved.
</metadata>
<defs>
<font id="SVN-PosterizerKGInline" horiz-adv-x="1298" >
  <font-face 
    font-family="SVN-Posterizer KG Inline"
    font-weight="400"
    font-stretch="normal"
    units-per-em="2048"
    panose-1="2 0 5 3 0 0 0 2 0 3"
    ascent="1579"
    descent="-469"
    x-height="1024"
    cap-height="1495"
    bbox="-123 -608 2726 2394"
    underline-thickness="102"
    underline-position="-307"
    unicode-range="U+0020-FB06"
  />
<missing-glyph horiz-adv-x="1181" 
d="M1079 0h-977v1323h977v-1323zM135 1290v-1257h912v1257h-912z" />
    <glyph glyph-name="f_f" unicode="ff" horiz-adv-x="1626" 
d="M584 1511q203 0 366 -73q107 94 299 94q100 0 203.5 -21t181.5 -59l-24 -344h-248l-41 180q-58 -1 -86.5 -31t-28.5 -77q0 -75 64 -156h266v-254h-256v-489h176v-281h-641v281h105v489h-379v-489h155v-281h-620v281h104v489h-114l-21 254h139l2 4q-26 26 -49.5 72
t-23.5 104q0 59 23 108t62 81.5t87 56t102.5 36.5t103 19t93.5 6zM924 1024l2 4q-74 79 -74 176v8q-118 56 -248 56q-61 -1 -99 -32.5t-38 -76.5q0 -27 11 -53.5t21 -40.5t31 -41h394zM588 131v19h-217v735h719v-735h-146v-19h383v19h-217v735h307v18h-1255v-18h188v-735
h-145v-19h383zM1087 1024h27q-74 103 -74 174q0 83 64 130.5t162 47.5q134 0 200 -28v-131h21v143q-77 35 -221 35q-102 0 -175 -50.5t-73 -146.5q0 -33 13.5 -70t24 -54.5t31.5 -49.5zM346 1024h27q-1 1 -15 21.5t-20.5 32.5t-17.5 33t-16 40.5t-5 38.5q0 88 74.5 136
t224.5 48q38 0 75.5 -3.5t64.5 -8.5t57.5 -12.5t45.5 -12.5t37.5 -13t26.5 -9l8 18q-3 1 -40.5 13t-70 21t-89.5 17.5t-113 8.5q-151 0 -237.5 -52.5t-86.5 -150.5q0 -78 70 -166z" />
    <glyph glyph-name="f_f_i" unicode="ffi" horiz-adv-x="2160" 
d="M1978 1044l41 -32v-731h103v-281h-568v281h105v489h-379v-489h156v-281h-621v281h105v489h-379v-489h155v-281h-620v281h104v489h-114l-21 254h139l2 4q-26 26 -49.5 72t-23.5 104q0 59 23 108t62 81.5t87 56t102.5 36.5t103 19t93.5 6q219 0 391 -84q79 56 186.5 82.5
t198.5 26.5q302 6 604 -127l-22 -301h-248l-41 158q-74 23 -148.5 31.5t-124 5.5t-77.5 -13q-54 -18 -75.5 -49t-21.5 -61q0 -75 64 -156h477zM588 131v19h-217v735h719v-735h-148v-19h383v19h-215v735h719v-735h-166v-19h330v19h-144v753h-1687v-18h188v-735h-145v-19h383z
M530 1024h394l2 4q-25 25 -49.5 73.5t-24.5 106.5v4q-118 56 -248 56q-61 -1 -99 -32.5t-38 -76.5q0 -27 11 -53.5t21 -40.5t31 -41zM1829 1204v137q-242 84 -453 84q-156 0 -256 -63.5t-100 -163.5q0 -86 70 -174h26q-74 106 -74 174q0 88 92.5 148.5t241.5 60.5
q202 0 436 -78v-125h17zM346 1024h27q-1 1 -15 21.5t-20.5 32.5t-17.5 33t-16 40.5t-5 38.5q0 88 74.5 136t224.5 48q38 0 75.5 -3.5t64.5 -8.5t57.5 -12.5t45.5 -12.5t37.5 -13t26.5 -9l8 18q-3 1 -40.5 13t-70 21t-89.5 17.5t-113 8.5q-151 0 -237.5 -52.5t-86.5 -150.5
q0 -78 70 -166z" />
    <glyph glyph-name="f_f_l" unicode="ffl" horiz-adv-x="2183" 
d="M2019 281h125v-281h-594v281h109v983q-77 24 -153 33t-125.5 6t-77.5 -13q-54 -18 -75.5 -49t-21.5 -61q0 -75 64 -156h266v-254h-256v-489h152v-281h-617v281h105v489h-379v-489h155v-281h-620v281h104v489h-114l-21 254h139l2 4q-26 26 -49.5 72t-23.5 104q0 59 23 108
t62 81.5t87 56t102.5 36.5t103 19t93.5 6q219 0 391 -84q79 56 186.5 82.5t198.5 26.5q202 0 364 -41l238 39l57 -37v-1216zM530 1024h394l2 4q-25 25 -49.5 73.5t-24.5 106.5v4q-118 56 -248 56q-61 -1 -99 -32.5t-38 -76.5q0 -27 11 -53.5t21 -40.5t31 -41zM588 131v19
h-217v735h719v-735h-148v-19h383v19h-215v735h305v18h-1253v-18h188v-735h-145v-19h383zM1087 1024h27q-74 106 -74 174q0 88 92.5 148.5t241.5 60.5q189 0 309 -39l5 18q-152 39 -314 39q-156 0 -256 -63.5t-100 -163.5q0 -87 69 -174zM346 1024h27q-1 1 -15 21.5
t-20.5 32.5t-17.5 33t-16 40.5t-5 38.5q0 88 74.5 136t224.5 48q38 0 75.5 -3.5t64.5 -8.5t57.5 -12.5t45.5 -12.5t37.5 -13t26.5 -9l8 18q-3 1 -40.5 13t-70 21t-89.5 17.5t-113 8.5q-151 0 -237.5 -52.5t-86.5 -150.5q0 -78 70 -166zM1849 1368h-20v-1218h-133v-19h289v19
h-136v1218z" />
    <glyph glyph-name="f_b" unicode="fb" horiz-adv-x="1937" 
d="M1280 1497v-500q89 50 186 50q98 0 172.5 -27.5t122 -74.5t77.5 -116.5t42 -145.5t12 -169q0 -78 -13 -149t-46.5 -142t-85.5 -122t-137.5 -83t-194.5 -32q-129 0 -233 75q-24 -34 -70 -61h-283v281h91v983q-77 24 -153.5 33t-126 6t-77.5 -13q-53 -18 -74.5 -49
t-21.5 -61q0 -77 63 -156h267v-254h-256v-489h155v-281h-620v281h104v489h-114l-21 254h139l2 4q-25 25 -49 73.5t-24 106.5q0 86 50 151.5t130 101.5t162.5 54.5t165.5 20.5q178 6 364 -41l238 39zM1380 774q-47 0 -100 -47v-422q57 -43 113 -43q76 0 105.5 60t29.5 192
q0 131 -33.5 195.5t-114.5 64.5zM350 1024h27q-74 106 -74 174q0 88 92.5 148.5t241.5 60.5q189 0 309 -39l4 18q-152 39 -313 39q-156 0 -256 -63.5t-100 -163.5q0 -87 69 -174zM588 131v19h-217v735h307v18h-516v-18h188v-735h-145v-19h383zM1110 1364h-20v-1038
q0 -72 -25.5 -115.5t-54.5 -60.5h-70v-19h76q40 20 67 68.5t27 126.5v1038zM1280 864v-24q66 49 166 49q70 0 121 -31t78.5 -85.5t40 -117.5t12.5 -137q0 -56 -8 -108t-28 -104t-50.5 -90.5t-80 -62.5t-112.5 -24q-42 0 -77.5 11.5t-52 23t-44.5 33.5l-8 -19
q32 -32 81 -49.5t101 -17.5q81 0 141.5 34t95 93t50.5 129t16 151q0 101 -19.5 175.5t-48 114.5t-69 64t-72 30.5t-67.5 6.5q-101 0 -166 -45z" />
    <glyph glyph-name="f_f_b" unicode="ffb" horiz-adv-x="2676" 
d="M1659 281v983q-77 24 -153.5 33t-125.5 6t-77 -13q-54 -18 -75.5 -49t-21.5 -61q0 -75 64 -156h266v-254h-256v-489h154v-281h-619v281h105v489h-379v-489h155v-281h-620v281h104v489h-114l-21 254h139l2 4q-26 26 -49.5 72t-23.5 104q0 59 23 108t62 81.5t87 56
t102.5 36.5t103 19t93.5 6q219 0 391 -84q79 56 186.5 82.5t198.5 26.5q202 0 364 -41l238 39l57 -37v-500q89 50 187 50t172.5 -27.5t122 -74.5t77.5 -116.5t42 -145.5t12 -169q0 -78 -13 -149t-46.5 -142t-86 -122t-138 -83t-194.5 -32q-129 0 -233 75q-24 -34 -70 -61
h-299v281h107zM2120 774q-48 0 -101 -47v-422q57 -43 113 -43q76 0 105.5 60t29.5 192q0 131 -33 195.5t-114 64.5zM530 1024h394l2 4q-25 25 -49.5 73.5t-24.5 106.5v4q-118 56 -248 56q-61 -1 -99 -32.5t-38 -76.5q0 -27 11 -53.5t21 -40.5t31 -41zM588 131v19h-217v735
h719v-735h-148v-19h383v19h-215v735h305v18h-1253v-18h188v-735h-145v-19h383zM2019 864v-24q66 49 166 49q70 0 121 -31t78.5 -85.5t40 -117.5t12.5 -137q0 -71 -13.5 -135t-43.5 -123.5t-87 -95t-134 -35.5q-42 0 -77.5 11.5t-52 23t-44.5 33.5l-9 -17q32 -32 81.5 -50.5
t101.5 -18.5q81 0 141.5 34t95 93t50.5 129t16 151q0 101 -20 175.5t-48.5 114.5t-68.5 64t-72 30.5t-68 6.5q-101 0 -166 -45zM1849 1364h-20v-1038q0 -72 -25.5 -115.5t-54.5 -60.5h-70v-19h76q40 20 67 68.5t27 126.5v1038zM1087 1024h27q-74 106 -74 174
q0 88 92.5 148.5t241.5 60.5q189 0 309 -39l5 18q-152 39 -314 39q-156 0 -256 -63.5t-100 -163.5q0 -87 69 -174zM346 1024h27q-1 1 -15 21.5t-20.5 32.5t-17.5 33t-16 40.5t-5 38.5q0 88 74.5 136t224.5 48q38 0 75.5 -3.5t64.5 -8.5t57.5 -12.5t45.5 -12.5t37.5 -13
t26.5 -9l8 18q-3 1 -40.5 13t-70 21t-89.5 17.5t-113 8.5q-151 0 -237.5 -52.5t-86.5 -150.5q0 -78 70 -166z" />
    <glyph glyph-name="f_h" unicode="fh" horiz-adv-x="2025" 
d="M920 281v983q-79 24 -155.5 33t-125 6t-76.5 -13q-53 -18 -74.5 -49t-21.5 -61q0 -77 63 -156h267v-254h-256v-489h155v-281h-620v281h104v489h-114l-21 254h139l2 4q-25 25 -49 73.5t-24 106.5q0 86 50 151.5t130 101.5t162.5 54.5t165.5 20.5q178 6 364 -41l238 39
l57 -37v-594l68 82q88 47 178 47q192 0 277 -105.5t85 -318.5v-327h99v-281h-459v555q0 57 -7.5 94t-32.5 62.5t-69 25.5q-83 0 -139 -80v-376h96v-281h-547v281h91zM350 1024h27q-74 106 -74 174q0 88 92.5 148.5t241.5 60.5q189 0 309 -39l4 18q-152 39 -313 39
q-156 0 -256 -63.5t-100 -163.5q0 -87 69 -174zM588 131v19h-217v735h307v18h-516v-18h188v-735h-145v-19h383zM1090 1368v-1218h-132v-19h289v19h-137v1218h-20zM1858 131v19h-140v425q0 52 -4.5 93t-19 84t-39.5 71t-68 46t-102 18q-119 0 -205 -86v-23q92 92 205 92
q110 0 161.5 -70.5t51.5 -224.5v-444h160z" />
    <glyph glyph-name="f_f_h" unicode="ffh" horiz-adv-x="2764" 
d="M2019 1497v-594l68 82q88 47 178 47q192 0 277.5 -105.5t85.5 -318.5v-327h98v-281h-459v555q0 42 -4 72t-15 56.5t-33.5 40t-55.5 13.5q-84 0 -140 -80v-376h97v-281h-547v281h90v983q-80 24 -156.5 33t-124 6t-75.5 -13q-54 -18 -75.5 -49t-21.5 -61q0 -75 64 -156h266
v-254h-256v-489h156v-281h-621v281h105v489h-379v-489h155v-281h-620v281h104v489h-114l-21 254h139l2 4q-26 26 -49.5 72t-23.5 104q0 59 23 108t62 81.5t87 56t102.5 36.5t103 19t93.5 6q219 0 391 -84q79 56 186.5 82.5t198.5 26.5q202 0 364 -41l238 39zM530 1024h394
l2 4q-25 25 -49.5 73.5t-24.5 106.5v4q-118 56 -248 56q-61 -1 -99 -32.5t-38 -76.5q0 -27 11 -53.5t21 -40.5t31 -41zM1829 1368v-1218h-131v-19h289v19h-138v1218h-20zM2597 131v19h-139v425q0 52 -4.5 93t-19.5 83.5t-40 71t-68 46.5t-102 18q-119 0 -205 -86v-23
q92 92 205 92q110 0 161.5 -70.5t51.5 -224.5v-444h160zM588 131v19h-217v735h719v-735h-148v-19h383v19h-215v735h305v18h-1253v-18h188v-735h-145v-19h383zM1087 1024h27q-74 106 -74 174q0 88 92.5 148.5t241.5 60.5q189 0 309 -39l5 18q-152 39 -314 39
q-156 0 -256 -63.5t-100 -163.5q0 -87 69 -174zM346 1024h27q-1 1 -15 21.5t-20.5 32.5t-17.5 33t-16 40.5t-5 38.5q0 88 74.5 136t224.5 48q38 0 75.5 -3.5t64.5 -8.5t57.5 -12.5t45.5 -12.5t37.5 -13t26.5 -9l8 18q-3 1 -40.5 13t-70 21t-89.5 17.5t-113 8.5
q-151 0 -237.5 -52.5t-86.5 -150.5q0 -78 70 -166z" />
    <glyph glyph-name="f_i" unicode="fi" horiz-adv-x="1421" 
d="M66 770l-21 254h139l2 4q-25 25 -49 73.5t-24 106.5q0 134 123 219q79 56 186.5 82.5t198.5 26.5q302 6 604 -127l-23 -301h-248l-41 158q-73 23 -148 31.5t-124.5 5.5t-77.5 -13q-53 -18 -74.5 -49t-21.5 -61q0 -77 63 -156h478l231 20l41 -32v-731h102v-281h-567v281
h105v489h-379v-489h155v-281h-620v281h104v489h-114zM1110 903h-948v-18h188v-735h-145v-19h383v19h-217v735h719v-735h-166v-19h329v19h-143v753zM1090 1204v137q-242 84 -453 84q-156 0 -256 -63.5t-100 -163.5q0 -87 69 -174h27q-74 106 -74 174q0 88 92.5 148.5
t241.5 60.5q202 0 436 -78v-125h17z" />
    <glyph glyph-name="f_j" unicode="fj" horiz-adv-x="1357" 
d="M920 770h-379v-489h155v-281h-620v281h104v489h-114l-21 254h139l2 4q-25 25 -49 73.5t-24 106.5q0 134 123 219q79 56 186.5 82.5t198.5 26.5q302 6 604 -127l-23 -301h-248l-41 158q-74 23 -148.5 31.5t-123.5 5.5t-78 -13q-53 -18 -74.5 -49t-21.5 -61q0 -77 63 -156
h478l231 20l41 -32v-873q0 -134 -31 -238.5t-77.5 -165t-108 -99.5t-115 -52.5t-106.5 -13.5q-133 0 -236 59l10 297h211l78 -147h15v991zM1090 885v-811q0 -91 -15 -160t-38 -108t-55 -62.5t-59.5 -31t-58.5 -7.5q-37 0 -94 19l-2 94h-23v-109q11 -7 45.5 -15.5t73.5 -8.5
q61 0 106.5 25.5t71.5 63.5t42 92.5t21 103.5t5 104v829h-948v-18h188v-735h-145v-19h383v19h-217v735h719zM1090 1204v137q-242 84 -453 84q-156 0 -256 -63.5t-100 -163.5q0 -87 69 -174h27q-74 106 -74 174q0 88 92.5 148.5t241.5 60.5q202 0 436 -78v-125h17z" />
    <glyph glyph-name="f_f_j" unicode="ffj" horiz-adv-x="2097" 
d="M1659 770h-379v-489h156v-281h-621v281h105v489h-379v-489h155v-281h-620v281h104v489h-114l-21 254h139l2 4q-26 26 -49.5 72t-23.5 104q0 59 23 108t62 81.5t87 56t102.5 36.5t103 19t93.5 6q219 0 391 -84q79 56 186.5 82.5t198.5 26.5q302 6 604 -127l-22 -301h-248
l-41 158q-77 23 -151.5 31.5t-122.5 5.5t-76 -13q-54 -18 -75.5 -49t-21.5 -61q0 -75 64 -156h477l231 20l41 -32v-873q0 -134 -31 -238.5t-77.5 -165t-108 -99.5t-115 -52.5t-106.5 -13.5q-132 0 -235 59l10 297h211l78 -147h14v991zM1090 885v-735h-146v-19h383v19h-217
v735h719v-811q0 -91 -15 -160t-38 -108t-54.5 -62.5t-59 -31t-58.5 -7.5q-38 0 -95 19l-2 94h-22v-109q11 -7 45.5 -15.5t73.5 -8.5q61 0 106.5 25.5t71 63.5t41.5 92.5t21 103t5 104.5v829h-1687v-18h188v-735h-145v-19h383v19h-217v735h719zM530 1024h394l2 4
q-25 25 -49.5 73.5t-24.5 106.5v4q-118 56 -248 56q-61 -1 -99 -32.5t-38 -76.5q0 -27 11 -53.5t21 -40.5t31 -41zM1829 1204v137q-242 84 -453 84q-156 0 -256 -63.5t-100 -163.5q0 -86 70 -174h26q-74 106 -74 174q0 88 92.5 148.5t241.5 60.5q202 0 436 -78v-125h17z
M346 1024h27q-1 1 -15 21.5t-20.5 32.5t-17.5 33t-16 40.5t-5 38.5q0 88 74.5 136t224.5 48q38 0 75.5 -3.5t64.5 -8.5t57.5 -12.5t45.5 -12.5t37.5 -13t26.5 -9l8 18q-3 1 -40.5 13t-70 21t-89.5 17.5t-113 8.5q-151 0 -237.5 -52.5t-86.5 -150.5q0 -78 70 -166z" />
    <glyph glyph-name="f_k" unicode="fk" horiz-adv-x="2019" 
d="M1280 1497v-852l154 191q73 93 149 145.5t176 52.5q31 0 60 -2.5t41.5 -4.5t51 -10.5t50.5 -10.5l-29 -355h-190l-49 84l-84 -104l186 -350h174v-281h-381l-309 553v-272h84v-281h-551v281h107v983q-77 24 -154 33t-126 6t-77 -13q-53 -18 -74.5 -49t-21.5 -61
q0 -77 63 -156h267v-254h-256v-489h153v-281h-618v281h104v489h-114l-21 254h139l2 4q-25 25 -49 73.5t-24 106.5q0 86 50 151.5t130 101.5t162.5 54.5t165.5 20.5q178 6 364 -41l238 39zM350 1024h27q-74 106 -74 174q0 88 92.5 148.5t241.5 60.5q189 0 309 -39l4 18
q-152 39 -313 39q-156 0 -256 -63.5t-100 -163.5q0 -87 69 -174zM588 131v19h-217v735h307v18h-516v-18h188v-735h-145v-19h383zM1841 131v19h-135l-256 460l135 176q67 91 164 91q22 0 57 -5v-124h21v141q-30 6 -78 6q-107 0 -182 -98l-142 -185l267 -481h149zM1110 1368
h-20v-1218h-134v-19h279v19h-125v1218z" />
    <glyph glyph-name="f_f_k" unicode="ffk" horiz-adv-x="2758" 
d="M1659 281v983q-73 23 -150 31.5t-127.5 6t-78.5 -11.5q-54 -18 -75.5 -49t-21.5 -61q0 -75 64 -156h266v-254h-256v-489h154v-281h-619v281h105v489h-379v-489h155v-281h-620v281h104v489h-114l-21 254h139l2 4q-26 26 -49.5 72t-23.5 104q0 59 23 108t62 81.5t87 56
t102.5 36.5t103 19t93.5 6q219 0 391 -84q79 56 186.5 82.5t198.5 26.5q202 0 364 -41l238 39l57 -37v-852l154 191q73 93 149.5 145.5t176.5 52.5q31 0 60 -2.5t41.5 -4.5t50 -10t50.5 -11l-28 -355h-191l-49 84l-84 -104l186 -350h175v-281h-381l-310 553v-272h84v-281
h-551v281h107zM528 1024h394l2 4q-25 25 -49.5 73.5t-24.5 106.5v4q-118 56 -248 56q-61 -1 -99 -32.5t-38 -76.5q0 -27 11 -53.5t21 -40.5t31 -41zM1327 131v19h-217v735h307v18h-1255v-18h188v-735h-145v-19h383v19h-217v735h719v-735h-146v-19h383zM1849 1368h-20v-1218
h-133v-19h278v19h-125v1218zM2580 131v19h-135l-256 460l135 176q67 91 164 91q23 0 58 -5v-124h20v141q-30 6 -78 6q-107 0 -182 -98l-141 -185l266 -481h149zM1090 1024h26q-74 106 -74 174q0 88 92.5 148.5t241.5 60.5q190 0 310 -39l4 18q-152 39 -314 39
q-156 0 -256 -63.5t-100 -163.5q0 -86 70 -174zM346 1024h27q-1 1 -15 21.5t-20.5 32.5t-17.5 33t-16 40.5t-5 38.5q0 88 74.5 136t224.5 48q38 0 75.5 -3.5t64.5 -8.5t57.5 -12.5t45.5 -12.5t37.5 -13t26.5 -9l8 18q-3 1 -40.5 13t-70 21t-89.5 17.5t-113 8.5
q-151 0 -237.5 -52.5t-86.5 -150.5q0 -78 70 -166z" />
    <glyph glyph-name="f_l" unicode="fl" horiz-adv-x="1443" 
d="M180 770h-114l-21 254h139l2 4q-25 25 -49 73.5t-24 106.5q0 86 50 151.5t130 101.5t162.5 54.5t165.5 20.5q178 6 364 -41l238 39l57 -37v-1216h125v-281h-594v281h109v983q-79 24 -155.5 33t-125 6t-76.5 -13q-53 -18 -74.5 -49t-21.5 -61q0 -77 63 -156h267v-254h-256
v-489h155v-281h-620v281h104v489zM350 1024h27q-74 106 -74 174q0 88 92.5 148.5t241.5 60.5q189 0 309 -39l4 18q-152 39 -313 39q-156 0 -256 -63.5t-100 -163.5q0 -87 69 -174zM588 131v19h-217v735h307v18h-516v-18h188v-735h-145v-19h383zM1110 1368h-20v-1218h-134
v-19h289v19h-135v1218z" />
    <glyph glyph-name="f_t" unicode="ft" horiz-adv-x="1564" 
d="M1470 309l70 -264q-154 -61 -305 -61q-161 0 -238 93.5t-77 299.5v393h-379v-489h176v-281h-641v281h104v489h-114l-21 254h139l2 4q-73 82 -73 180q0 72 25.5 130t65.5 93.5t94 59t106 32.5t106 9q100 0 203.5 -21t181.5 -59l-25 -344h-247l-41 180q-58 -1 -86.5 -31
t-28.5 -77q0 -77 63 -156h375q29 19 53 53l109 160h213v-213h231l-18 -254h-213v-319q0 -26 0.5 -43t5 -42.5t12.5 -40.5t24 -26.5t38 -11.5q24 0 110 22zM1292 119q53 0 103 16l-6 21q-42 -19 -97 -19q-47 0 -81.5 17t-53.5 42.5t-30 64.5t-14 74t-3 81v469h268l2 18h-270
v154h-20v-154h-928v-18h188v-735h-145v-19h383v19h-217v735h719v-469q0 -32 0.5 -47.5t4 -52.5t10.5 -58.5t21.5 -51t35.5 -46t54.5 -29t75.5 -12.5zM348 1024h27q-74 103 -74 174q0 83 63.5 130.5t161.5 47.5q135 0 201 -28v-131h21v143q-77 35 -222 35
q-102 0 -174.5 -50.5t-72.5 -146.5q0 -33 13.5 -70t24 -54.5t31.5 -49.5z" />
    <glyph glyph-name="f_f_t" unicode="fft" horiz-adv-x="2304" 
d="M2210 309l69 -264q-154 -61 -305 -61q-161 0 -238 93.5t-77 299.5v393h-379v-489h176v-281h-641v281h105v489h-379v-489h155v-281h-620v281h104v489h-114l-21 254h139l2 4q-26 26 -49.5 72t-23.5 104q0 59 23 108t62 81.5t87 56t102.5 36.5t103 19t93.5 6q203 0 366 -73
q107 94 299 94q100 0 203.5 -21t181.5 -59l-24 -344h-248l-41 180q-58 -1 -86.5 -31t-28.5 -77q0 -75 64 -156h375q29 19 53 53l108 160h213v-213h232l-19 -254h-213v-319q0 -26 0.5 -43t5 -42.5t12.5 -40.5t24 -26.5t38 -11.5q25 0 111 22zM1327 131v19h-217v735h719v-469
v-36t2 -39.5t5 -44.5t10 -43t17 -42.5t25.5 -35.5t35 -30t47.5 -18.5t61 -7.5q52 0 102 16l-6 21q-42 -19 -96 -19q-47 0 -81.5 17t-54 42.5t-30.5 64.5t-14 74t-3 81v469h269l2 18h-271v154h-20v-154h-1667v-18h188v-735h-145v-19h383v19h-217v735h719v-735h-146v-19h383z
M924 1024l2 4q-74 84 -74 180v4q-118 56 -248 56q-61 -1 -99 -32.5t-38 -76.5q0 -27 11 -53.5t21 -40.5t31 -41h394zM1087 1024h27q-74 103 -74 174q0 83 64 130.5t162 47.5q134 0 200 -28v-131h21v143q-77 35 -221 35q-102 0 -175 -50.5t-73 -146.5q0 -33 13.5 -70
t24 -54.5t31.5 -49.5zM346 1024h27q-1 1 -15 21.5t-20.5 32.5t-17.5 33t-16 40.5t-5 38.5q0 88 74.5 136t224.5 48q38 0 75.5 -3.5t64.5 -8.5t57.5 -12.5t45.5 -12.5t37.5 -13t26.5 -9l8 18q-3 1 -40.5 13t-70 21t-89.5 17.5t-113 8.5q-151 0 -237.5 -52.5t-86.5 -150.5
q0 -78 70 -166z" />
    <glyph glyph-name=".notdef" horiz-adv-x="1181" 
d="M1079 0h-977v1323h977v-1323zM135 1290v-1257h912v1257h-912z" />
    <glyph glyph-name=".null" horiz-adv-x="0" 
 />
    <glyph glyph-name="nonmarkingreturn" horiz-adv-x="682" 
 />
    <glyph glyph-name="space" unicode=" " horiz-adv-x="460" 
 />
    <glyph glyph-name="exclam" unicode="!" horiz-adv-x="634" 
d="M428 500h-221l-74 526v469h369v-469zM498 0h-361v342h361v-342zM313 727h9l8 268v369h-25v-369zM328 123v96h-21v-96h21z" />
    <glyph glyph-name="quotedbl" unicode="&#x22;" horiz-adv-x="892" 
d="M748 995h-218l-41 500h302zM362 995h-217l-43 500h301zM262 1110v252h-18v-252h18zM651 1110v252h-18v-252h18z" />
    <glyph glyph-name="numbersign" unicode="#" horiz-adv-x="1404" 
d="M98 1106h297l78 362h268l-75 -362h225l76 362h268l-76 -362h144v-264h-199l-45 -215h244v-267h-299l-76 -360h-271l76 360h-223q-31 -146 -74 -360h-272l76 360h-142v267h197l45 215h-242v264zM791 627l45 215h-226l-45 -215h226zM1067 1356l-182 -854h-350l-3 -19h349
l-80 -381h20l183 863h186v18h-182l79 373h-20zM575 1356l-180 -854h-192v-19h188l-80 -381h21l180 863h348l2 18h-346l80 373h-21zM369 965l4 18h-170v-18h166zM1190 483v19h-160l-2 -19h162z" />
    <glyph glyph-name="dollar" unicode="$" horiz-adv-x="1210" 
d="M494 -94v125q-131 10 -245 61t-186 123l152 264q57 -44 83.5 -62.5t81 -43.5t114.5 -37v282q-76 22 -135.5 45.5t-120 60.5t-100 81.5t-64.5 109t-25 142.5q0 153 110.5 265t334.5 140v107h223v-105q93 -8 190.5 -33.5t163.5 -64.5l-90 -281q-139 70 -264 84v-272
q13 -4 39 -13q85 -28 127.5 -44t107.5 -52.5t96.5 -76.5t56.5 -106.5t25 -151.5q0 -64 -26 -129t-78 -125t-142.5 -104t-205.5 -58v-131h-223zM614 -12v170q71 0 137.5 16t125 49.5t94 93.5t35.5 138q0 47 -12 84.5t-42 75.5t-88 70t-145 58v-18q118 -43 164 -74
q103 -71 104 -196q0 -73 -32.5 -129t-87 -88t-118.5 -48t-135 -16v1135q176 0 312 -58l6 19q-67 29 -138 40.5t-180 16.5v172h-18v-723q-81 22 -133.5 39.5t-101 41.5t-75 52.5t-42 67.5t-15.5 90q0 95 70.5 155t194.5 78v17q-132 -18 -208.5 -83t-76.5 -167q0 -68 24 -117
t78.5 -84.5t117.5 -58.5t167 -51v-768h18zM823 444q0 52 -32.5 81.5t-73.5 39.5v-229q52 10 79 39.5t27 68.5zM389 1073q0 -34 24.5 -56.5t80.5 -43.5v194q-46 -2 -75.5 -25.5t-29.5 -68.5zM494 166v16q-135 23 -265 109l-8 -17q1 0 15 -8.5t38.5 -22t56 -28t75.5 -28
t88 -21.5z" />
    <glyph glyph-name="uni0025" unicode="%" horiz-adv-x="1777" 
d="M999 340q0 194 98 293.5t259 99.5q165 0 260.5 -99t95.5 -294t-96.5 -295t-255.5 -100q-166 0 -263.5 100t-97.5 295zM66 1069q0 194 97.5 293.5t258.5 99.5q165 0 260.5 -99t95.5 -294t-96.5 -295t-255.5 -100q-166 0 -263 100t-97 295zM1386 1464l-759 -1515h-252
l764 1515h247zM416 770h8q99 0 151 77.5t52 221.5q0 293 -201 293h-8q-105 0 -158 -74.5t-53 -218.5q0 -55 9.5 -103.5t31.5 -95t65 -73.5t103 -27zM418 1348h8q186 0 186 -279q0 -137 -47.5 -211t-140.5 -74h-8q-38 0 -70 13.5t-61.5 43.5t-46.5 88.5t-17 139.5
q0 279 197 279zM362 1069q0 -105 13.5 -145.5t44.5 -40.5q32 0 44.5 41.5t12.5 144.5t-12.5 144.5t-44.5 41.5t-45 -41.5t-13 -144.5zM1296 340q0 -105 13.5 -145.5t44.5 -40.5q32 0 44.5 41.5t12.5 144.5t-12.5 144.5t-44.5 41.5t-45 -41.5t-13 -144.5zM565 61l656 1301
h-19l-655 -1301h18zM1350 41h8q99 0 151 77.5t52 221.5q0 293 -201 293h-8q-105 0 -158 -74.5t-53 -218.5q0 -55 9.5 -103.5t31.5 -95t65 -73.5t103 -27zM1352 618h8q186 0 186 -278q0 -137 -47.5 -211t-140.5 -74h-8q-38 0 -70 13.5t-61.5 43.5t-46.5 88.5t-17 139.5
q0 278 197 278z" />
    <glyph glyph-name="ampersand" unicode="&#x26;" horiz-adv-x="1705" 
d="M1247 956h336l41 -294h-168q-53 -155 -147 -267l98 -100h215v-295h-410l-157 145q-105 -98 -212 -136t-247 -38q-114 0 -210.5 30t-168 87t-111.5 143t-40 193q0 57 12 107t43 107t95 112.5t157 103.5q-135 154 -135 289q0 94 36.5 165t103 114t153.5 64t194 21
q125 0 225 -39.5t159.5 -117t59.5 -181.5q0 -49 -14 -91.5t-35 -75t-59 -67.5t-73.5 -60.5t-90.5 -61.5l190 -192q90 98 160 335zM840 369l-265 270q-135 -77 -135 -186q0 -77 54.5 -125.5t150.5 -48.5q92 0 195 90zM961 250l-13 14q-83 -72 -158.5 -104.5t-175.5 -32.5
q-65 0 -126 19t-112.5 56t-82.5 100t-31 142q0 52 23 101t56 86.5t85.5 76t97 64t103.5 55.5l690 -696h176v19h-164l-223 225q191 191 264 422h111v20h-127q-31 -100 -78.5 -185.5t-88 -134.5t-97.5 -106l-443 447q12 6 37 19q60 31 91 48t80 49.5t74 60t44.5 66.5t19.5 82
q0 111 -78.5 165t-203.5 54q-127 0 -212 -57t-85 -162q0 -51 25.5 -102t92.5 -131l21 10q-65 77 -91 127.5t-26 95.5q0 92 75.5 146.5t199.5 54.5q39 0 75 -6t70 -21t58.5 -37.5t39.5 -57.5t15 -79q0 -22 -5.5 -43t-13.5 -38.5t-24.5 -36t-29 -31.5t-37.5 -31t-40 -28
t-46.5 -27.5t-47.5 -25.5t-51.5 -26t-50.5 -26q-65 -32 -112.5 -59t-102 -66.5t-88.5 -79t-57 -92t-23 -109.5q0 -151 104.5 -244.5t269.5 -93.5q105 0 187.5 36.5t159.5 107.5zM612 1178q0 -18 3.5 -30.5t24 -41.5t62.5 -74q49 25 77 57t28 64q0 41 -25 68.5t-82 27.5
q-32 0 -60 -18t-28 -53z" />
    <glyph glyph-name="quotesingle" unicode="'" horiz-adv-x="505" 
d="M362 995h-217l-43 500h301zM266 1112v252h-18v-252h18z" />
    <glyph glyph-name="parenleft" unicode="(" horiz-adv-x="706" 
d="M455 729v-401q0 -125 10.5 -216.5t24.5 -143.5t40.5 -90.5t45.5 -53.5t53 -37q5 -3 8.5 -5.5t7.5 -4.5v-256q-96 12 -173.5 43.5t-143.5 91.5t-110.5 147t-69.5 213.5t-25 286.5v451q0 161 25 287.5t69.5 212.5t111 146t143.5 91.5t173 44.5v-256q-61 -40 -77 -54
q-74 -69 -98 -238q-15 -104 -15 -259zM299 311v434q0 57 2.5 105.5t10 116t24.5 123t43 111t68.5 97.5t97.5 66v25q-57 -25 -102 -66t-73 -94.5t-47 -110t-28 -125t-12.5 -125t-3.5 -123.5v-434q0 -82 4.5 -149.5t21 -149.5t44 -143.5t77.5 -116.5t119 -84v25
q-55 24 -97.5 66t-68.5 97t-43 111t-24.5 123t-10 115.5t-2.5 105.5z" />
    <glyph glyph-name="parenright" unicode=")" horiz-adv-x="706" 
d="M252 328v401q0 124 -10.5 216t-24.5 144t-41 90.5t-45.5 53.5t-53.5 37q-11 6 -16 10v256q96 -13 173 -44.5t144 -91.5t111.5 -146t69.5 -212.5t25 -287.5v-451q0 -160 -25 -286.5t-69.5 -213.5t-111 -147t-144 -91.5t-173.5 -43.5v256q61 40 77 54q75 69 99 238
q15 104 15 259zM408 745v-434q0 -57 -2.5 -105.5t-10 -115.5t-24.5 -123t-43 -111t-68.5 -97t-97.5 -66v-25q69 29 119 84t77.5 116.5t44 143.5t21 149.5t4.5 149.5v434q0 67 -3.5 123.5t-12.5 125t-28 125t-47 110t-73 94.5t-102 66v-25q55 -24 97.5 -66t68.5 -97.5
t43 -111t24.5 -123t10 -116t2.5 -105.5z" />
    <glyph glyph-name="asterisk" unicode="*" horiz-adv-x="1067" 
d="M813 901l107 -143l-228 -156l-112 150l-45 100q-8 -18 -19.5 -50t-17.5 -46l-107 -156l-227 158l98 137l94 86q-17 3 -55 8t-59 8l-181 64l84 252l189 -64l84 -57q-3 23 -13.5 66.5t-13.5 58.5v178h283v-178l-25 -127q9 5 40.5 26.5t49.5 30.5l185 66l82 -252l-162 -70
h-135q23 -18 104 -90zM526 1317l11 -160l8 160v94h-19v-94zM285 1110l135 -37l-129 53l-103 35l-6 -16zM649 1073l135 37l103 35l-6 16l-103 -35zM319 752l15 -11l65 88l70 107l-82 -94zM745 741l15 11l-68 90l-82 94l70 -107z" />
    <glyph glyph-name="plus" unicode="+" horiz-adv-x="1251" 
d="M113 506v280h370v379h295v-379h361v-280h-361v-379h-295v379h-370zM1020 637v18h-379v389h-20v-802h20v395h379zM508 637v18h-264v-18h264z" />
    <glyph glyph-name="comma" unicode="," horiz-adv-x="630" 
d="M135 -307v155q112 34 115 152h-115v342h361v-283q0 -157 -79.5 -244t-281.5 -122zM328 123v96h-21v-96h21z" />
    <glyph glyph-name="hyphen" unicode="-" horiz-adv-x="774" 
d="M684 793v-291h-594v291h594zM524 637v20h-280v-20h280z" />
    <glyph glyph-name="period" unicode="." horiz-adv-x="630" 
d="M496 0h-361v342h361v-342zM328 123v96h-21v-96h21z" />
    <glyph glyph-name="slash" unicode="/" horiz-adv-x="819" 
d="M492 1495h317l-471 -1495h-318zM225 121l396 1235h-21l-393 -1235h18z" />
    <glyph glyph-name="zero" unicode="0" horiz-adv-x="1212" 
d="M1147 739v-10q0 -138 -16.5 -249t-55 -207.5t-100 -161.5t-154.5 -101.5t-215 -36.5t-215 36.5t-154 101.5t-100 161.5t-55 207.5t-16 249v10q0 138 16 249t55 207.5t100 161.5t154 101.5t215 36.5t215 -36.5t154.5 -101.5t100 -161.5t55 -207.5t16.5 -249zM606 1346h-18
q-64 -2 -115 -21.5t-86 -50t-60.5 -77t-40 -94.5t-23 -111.5t-11 -118.5t-2.5 -125q0 -68 2 -120.5t10.5 -121.5t22.5 -120t40.5 -104t63 -86.5t91 -55t122.5 -21.5h4q68 0 122.5 21.5t91 55t63 86.5t40.5 104t22.5 120t10.5 121.5t2 120.5q0 70 -2.5 125t-11.5 118.5
t-23.5 111.5t-40 94.5t-60 77t-85.5 50t-114 21.5h-15zM606 139h-10q-64 1 -115 24.5t-84 58.5t-57 89.5t-36.5 103.5t-19.5 116t-8.5 112t-1.5 105q0 84 4 148t15.5 135t34.5 120.5t58.5 91.5t90 63t125.5 21h4q71 0 125.5 -21t90 -63t58.5 -91.5t34.5 -120.5t15.5 -135
t4 -148q0 -60 -1.5 -105.5t-8.5 -113t-19.5 -117t-37 -104t-58.5 -89t-86 -57.5t-117 -23zM461 793v-117q0 -66 1 -106.5t5.5 -92t14 -82t24.5 -59.5t40 -42t58 -13h4q33 0 58 13t40.5 41.5t25 59.5t14 82t5.5 92.5t1 106.5v117q0 55 -1 91t-4 81.5t-8.5 74.5t-16 60
t-26 48.5t-37.5 28.5t-51 11h-4q-29 0 -51 -11t-37 -28.5t-25.5 -48.5t-16.5 -60t-9 -75t-3.5 -81.5t-0.5 -90.5z" />
    <glyph glyph-name="one" unicode="1" horiz-adv-x="1212" 
d="M922 131v19h-277v1163l-309 -78v-21q45 12 143.5 37.5t143.5 36.5v-1138h-295v-19h594zM772 1487l41 -35v-1171h234v-281h-850v281h256v833l-250 -61v293z" />
    <glyph glyph-name="two" unicode="2" horiz-adv-x="1212" 
d="M985 131v186h-22v-167h-660q-1 12 -5 33.5t-5 33.5l-2 -2l424 471q38 43 67 80t62.5 90.5t52 110.5t18.5 112q0 57 -27.5 115.5t-80.5 99.5q-84 60 -215 60q-208 0 -291 -158q-17 -33 -28.5 -71t-14 -57t-2.5 -26v-10h23v10q5 37 8 48q8 42 35 100q76 147 270 147
q59 0 107.5 -13.5t79 -33t53 -47t34 -52t18 -50.5t8 -39.5t1.5 -22.5q0 -159 -197 -381h2l-430 -475l13 -92h704zM434 909l-350 11q0 92 2 108q5 100 36.5 180.5t80.5 133t114 88t133 50.5t142 15q235 0 367.5 -115t132.5 -303q0 -68 -18.5 -130t-60.5 -126.5t-81.5 -112.5
t-110.5 -126l-270 -301h264l31 161h293v-442h-1022l-23 250l500 559q123 138 123 264q0 53 -38.5 92t-82.5 39q-162 0 -162 -227v-68z" />
    <glyph glyph-name="three" unicode="3" horiz-adv-x="1212" 
d="M571 111q98 0 173.5 28.5t119 77t65 107.5t21.5 125q0 136 -83 220.5t-228 108.5q116 34 185 113.5t69 198.5q0 50 -17 94.5t-52.5 83t-100 61.5t-150.5 23q-109 0 -189 -50t-114 -151h25q27 63 55 94q78 88 223 88q79 0 137.5 -20.5t88 -48t47 -65t21 -61.5t3.5 -48
q0 -71 -27.5 -128t-66 -89t-84.5 -53.5t-78 -28.5t-51 -7h-12v-20h31q24 0 56.5 -4.5t86.5 -23.5t96.5 -50t74.5 -93t32 -144q0 -61 -21 -117t-62.5 -102t-112 -73.5t-161.5 -27.5q-132 0 -205.5 56.5t-99.5 176.5l-22 -2q52 -249 327 -249zM426 1026h-330q0 104 30.5 186.5
t79 134.5t113.5 86t130 48t133 14q218 0 350.5 -104t132.5 -291q0 -34 -6.5 -68.5t-23 -78.5t-54.5 -82.5t-92 -61.5v-6q118 -41 182 -137.5t64 -212.5q0 -100 -32.5 -184.5t-98.5 -151.5t-176.5 -104.5t-256.5 -37.5q-129 0 -225.5 35t-154.5 100t-86.5 150.5t-28.5 192.5
l325 20q4 -96 52 -152.5t116 -56.5q82 0 132.5 42.5t50.5 133.5q0 85 -51 138t-130 53h-122l-3 276q64 0 109 7.5t81.5 27t54.5 55.5t18 90q0 66 -39 94.5t-97 28.5q-59 0 -101 -46t-46 -138z" />
    <glyph glyph-name="four" unicode="4" horiz-adv-x="1212" 
d="M1026 545v18h-205v768h-170l-452 -641l32 -145h424v18h-405q-4 20 -13.5 60t-13.5 61q72 102 220 314t221 315h135v-1163h-228v-19h426v19h-176v395h205zM582 1468h411v-784h148v-260h-148v-143h135v-281h-684v281h189v143h-541l-59 244zM633 1085h-4l-15 -55l-235 -346
h254v401z" />
    <glyph glyph-name="five" unicode="5" horiz-adv-x="1212" 
d="M571 111q172 0 272.5 102.5t100.5 271.5q0 154 -78 259.5t-227 105.5q-136 0 -248 -86q-15 4 -46.5 13.5t-47.5 13.5q8 86 24.5 261t24.5 261h549l12 -158h23l-12 176h-592l-52 -555l121 -33q3 1 6.5 4.5t6.5 4.5q34 24 60 38.5t72 27.5t99 13q75 0 132 -30t88.5 -80.5
t47 -110t15.5 -125.5q0 -65 -18.5 -125.5t-58 -113.5t-110 -85t-164.5 -32q-122 0 -190.5 42t-93.5 134l-23 -2q27 -98 100.5 -145t206.5 -47zM88 401l336 33q0 -76 48 -123t103 -47q170 0 170 209q0 92 -37.5 153.5t-117.5 61.5q-114 0 -213 -82l-266 76l75 786h863
l14 -411h-281l-18 123h-291l-24 -254q89 55 223 55q117 0 205 -37.5t140 -104.5t77.5 -153t25.5 -190q0 -257 -142 -390t-407 -133q-73 0 -137.5 11.5t-128 42t-109.5 77.5t-75.5 123t-32.5 174z" />
    <glyph glyph-name="six" unicode="6" horiz-adv-x="1212" 
d="M618 111q351 0 351 378q0 142 -70.5 234t-206.5 92q-137 0 -252 -100v-29q9 9 25 21.5t50.5 36t81.5 38.5t95 15q28 0 56 -5t65.5 -24.5t65.5 -50.5t47.5 -90.5t19.5 -137.5q0 -360 -328 -360q-350 0 -350 582q0 116 12.5 210t33.5 158t52 112t63 75.5t72.5 44t75.5 21.5
t76 5q55 0 102 -14t77.5 -36t46 -37.5t24.5 -28.5l27 4q-11 15 -26.5 31t-49 42t-86.5 42t-115 16q-85 0 -151.5 -26t-110 -75t-73 -108t-45 -136t-21.5 -147t-6 -153q0 -600 372 -600zM1110 1221l-260 -164q-77 143 -195 143q-59 0 -101 -30.5t-64 -83t-31.5 -109.5
t-9.5 -123q48 51 128 77.5t150 26.5q97 0 172 -30t119.5 -76.5t73 -110.5t39 -123.5t10.5 -123.5q0 -123 -41 -222.5t-112.5 -163.5t-167 -98.5t-206.5 -34.5q-280 0 -412 181.5t-132 562.5q0 76 5.5 145t21.5 149.5t42 147t70.5 130t103.5 107.5t144.5 70.5t189.5 26.5
q161 0 277.5 -62t185.5 -212zM641 668q-91 0 -192 -101q0 -54 7.5 -102.5t24.5 -95.5t52.5 -75t84.5 -28q29 0 54 8.5t50 29.5t39.5 63t14.5 102q0 199 -135 199z" />
    <glyph glyph-name="seven" unicode="7" horiz-adv-x="1212" 
d="M854 131v19h-236q2 138 27 280t62 257.5t86 227t92 188.5t86 142v86h-727l-21 -264h23q3 40 9 123t9 123h684v-58q-56 -85 -110.5 -191.5t-111 -250t-92.5 -318t-38 -345.5h-207v-19h465zM1143 1468v-258q-139 -182 -238.5 -449t-99.5 -480h184v-281h-723v281h170
q11 201 93 443.5t198 453.5h-324l-32 -213h-301l32 503h1041z" />
    <glyph glyph-name="eight" unicode="8" horiz-adv-x="1216" 
d="M600 111q24 0 49.5 2t64 9.5t73 20.5t70.5 37t61.5 56t42 81t16.5 109q0 38 -13 74.5t-30.5 64.5t-51.5 58.5t-60.5 50.5t-74.5 47.5t-75.5 41.5t-81.5 41q-7 3 -10 5q-52 26 -80 41t-70.5 44.5t-64.5 55.5t-39 64.5t-17 81.5q0 65 28 114t73.5 75.5t96.5 39t105 12.5
q46 0 93 -12t94.5 -37.5t77.5 -75.5t30 -116q0 -34 -13 -68t-27 -55t-41 -47t-36 -32.5t-32 -23.5l18 -10q154 107 154 236q0 121 -90.5 190.5t-227.5 69.5q-59 0 -114 -14t-104 -42.5t-79 -81t-30 -122.5q0 -34 9.5 -65.5t22.5 -55t38.5 -48t45 -40t54.5 -36t55.5 -31
t58.5 -29.5q169 -87 231 -131q152 -107 152 -234q0 -64 -19.5 -115.5t-53 -82t-70.5 -52t-80 -31t-72.5 -13t-56.5 -3.5q-89 0 -166.5 32t-128.5 99t-51 156q0 51 19 98.5t43.5 78.5t54.5 57.5t46 37t25 14.5l-18 11q-3 0 -22 -12t-48 -38t-56.5 -60t-47 -84t-19.5 -103
q0 -97 55 -168t137 -104t177 -33zM1102 1112q0 -196 -203 -311q139 -74 195.5 -166.5t56.5 -210.5q0 -92 -36.5 -172.5t-105 -142.5t-175.5 -98t-238 -36q-242 0 -387.5 118.5t-145.5 316.5q0 221 238 358q-184 115 -184 324q0 179 132 291t355 112q124 0 221.5 -30.5
t156.5 -84t89.5 -121.5t30.5 -147zM752 1083q0 63 -36.5 100.5t-111.5 37.5q-62 0 -93.5 -35.5t-31.5 -87.5q0 -89 164 -162q48 21 78.5 61t30.5 86zM770 426q0 43 -39 84t-72.5 60t-97.5 50q-9 5 -14 7q-47 -26 -84 -78.5t-37 -130.5q0 -67 58.5 -108.5t119.5 -41.5
q166 0 166 158z" />
    <glyph glyph-name="nine" unicode="9" horiz-adv-x="1212" 
d="M100 250l260 164q78 -144 195 -144q59 0 101 30.5t64 82.5t32 109.5t10 123.5q-48 -51 -128 -77.5t-151 -26.5q-97 0 -172 30t-119 77t-72.5 110.5t-39 123.5t-10.5 124q0 163 71 282t188.5 177.5t266.5 58.5q278 0 411.5 -183t133.5 -560q0 -76 -5.5 -145t-21.5 -149.5
t-42 -147t-71 -130.5t-104 -108t-144.5 -70.5t-189.5 -26.5q-105 0 -187 23.5t-155.5 86t-120.5 165.5zM569 803q93 0 193 100q0 54 -7.5 102.5t-25 95.5t-53 75t-84.5 28q-29 0 -54 -8.5t-50 -29.5t-39.5 -63t-14.5 -102q0 -198 135 -198zM596 1356q-350 0 -350 -379
q0 -142 70 -234t206 -92t252 101v28q-9 -9 -25 -21.5t-50.5 -35.5t-81.5 -38t-95 -15q-28 0 -56 5t-65.5 24t-65.5 50.5t-47.5 90.5t-19.5 137q0 360 328 360q350 0 350 -581q0 -116 -12.5 -210t-33.5 -158t-52 -112t-63 -75.5t-72.5 -44t-75.5 -22t-76 -5.5q-55 0 -102 14
t-77.5 36.5t-46 37.5t-24.5 29l-26 -4q11 -16 26.5 -31.5t48.5 -41.5t86 -42t115 -16q73 0 132.5 20.5t101.5 54.5t73.5 84.5t50.5 105t30.5 121.5t15.5 128t4 131q0 600 -373 600z" />
    <glyph glyph-name="colon" unicode=":" horiz-adv-x="630" 
d="M496 0h-361v342h361v-342zM328 123v96h-21v-96h21zM496 682h-361v342h361v-342zM328 805v96h-21v-96h21z" />
    <glyph glyph-name="semicolon" unicode=";" horiz-adv-x="630" 
d="M496 682h-361v342h361v-342zM328 805v96h-21v-96h21zM135 -307v155q112 34 115 152h-115v342h361v-283q0 -157 -79.5 -244t-281.5 -122zM328 123v96h-21v-96h21z" />
    <glyph glyph-name="less" unicode="&#x3c;" horiz-adv-x="1091" 
d="M113 477v318l866 426v-308l-557 -270l557 -266v-324zM244 569l596 -295v23l-576 285v125l576 284v23l-596 -295v-150z" />
    <glyph glyph-name="equal" unicode="=" horiz-adv-x="1155" 
d="M113 725v283h929v-283h-929zM113 285v282h929v-282h-929zM911 416v20h-667v-20h667zM911 856v21h-667v-21h667z" />
    <glyph glyph-name="greater" unicode="&#x3e;" horiz-adv-x="1091" 
d="M979 797v-318l-866 -426v307l557 271l-557 266v324zM848 705l-596 294v-22l575 -285v-125l-575 -284v-23l596 295v150z" />
    <glyph glyph-name="question" unicode="?" horiz-adv-x="1107" 
d="M61 1024v264q39 75 119.5 130.5t170.5 80.5t179 25q234 0 375.5 -116t141.5 -331q0 -71 -23 -134t-62.5 -108t-90.5 -78t-107.5 -50t-114.5 -19l-35 -188h-231l-23 395q77 2 134 14t90 29t53 41t26.5 46.5t6.5 49.5q0 20 -3.5 39.5t-13.5 41.5t-25.5 38t-43 26.5
t-62.5 10.5q-44 0 -82 -16t-57 -41l-47 -150h-275zM498 653h8l10 123q67 0 128.5 18t113 53t82 94.5t30.5 135.5q0 134 -95.5 218.5t-248.5 84.5q-94 0 -181 -40.5t-134 -118.5v-88h18v81q10 18 30 39.5t55 48t91 43.5t121 17q149 0 235.5 -79.5t86.5 -205.5q0 -54 -20 -103
t-61 -90t-111 -65t-162 -24zM680 0h-361v342h361v-342zM514 123v96h-20v-96h20z" />
    <glyph glyph-name="at" unicode="@" horiz-adv-x="2002" 
d="M1038 -313q98 0 190 14t153.5 33.5t108.5 40.5t69 35t22 16l-10 12q-55 -38 -137 -69q-175 -68 -396 -68q-242 0 -425 93t-283.5 267.5t-100.5 407.5q0 247 108 438t301.5 295.5t442.5 104.5q147 0 268 -39t199.5 -101t133 -143t77.5 -162.5t23 -161.5q0 -93 -28.5 -195
t-81 -192.5t-138.5 -149.5t-188 -59q-74 0 -111 38t-27 104l133 616l-20 -6l-129 -602q-17 -74 24 -121t127 -47q105 0 194.5 57t145.5 148t87.5 198t31.5 213q0 111 -41 217.5t-114 184.5q-198 221 -566 221q-253 0 -451.5 -106t-310.5 -301.5t-112 -448.5q0 -358 223 -570
t608 -212zM877 90q69 0 137 33q36 20 51 35l-4 18l-18 -12q-18 -13 -37 -24t-55 -21t-74 -10q-48 0 -85.5 19.5t-59 48.5t-35.5 67.5t-18.5 73t-4.5 69.5q0 102 20.5 188.5t55.5 146.5t81.5 102t97 61.5t103.5 19.5q105 0 154 -57l8 16q-15 21 -58.5 40.5t-103.5 19.5
q-71 0 -137.5 -33.5t-121.5 -97.5t-88.5 -169t-33.5 -237q0 -140 60.5 -218.5t165.5 -78.5zM1608 -16l127 -174q-131 -117 -315.5 -170.5t-385.5 -53.5q-225 0 -405 65.5t-297 183t-178.5 277t-61.5 349.5q0 223 80.5 407.5t217.5 305t316 186t379 65.5q247 0 434.5 -88
t289.5 -250t102 -376q0 -128 -41 -255.5t-115 -233.5t-190.5 -172t-255.5 -66q-143 0 -217 86q-116 -88 -246 -88q-92 0 -160.5 32t-108 88t-58.5 125.5t-19 151.5q0 104 19.5 198.5t61.5 179t103 147t149.5 98.5t196.5 36q141 0 238 -94l194 76l51 -51l-147 -703
q-2 -4 -2 -18q0 -29 27 -29q49 0 110 49q83 69 124.5 181t41.5 243q0 102 -38.5 193.5t-110.5 163.5t-185.5 114.5t-253.5 42.5q-155 0 -288 -47t-233 -137t-157 -231t-57 -318q0 -140 47 -260t134 -209.5t221.5 -140.5t300.5 -51q146 0 303 48t258 124zM1053 791
q-92 0 -155.5 -113t-63.5 -283q0 -164 90 -164q57 0 120 48l101 477q-40 35 -92 35z" />
    <glyph glyph-name="A" unicode="A" horiz-adv-x="1665" 
d="M1137 1337v21h-619v-21h174l-381 -1179h-121v-21h396v21h-248l379 1179h190l242 -731h-508l-4 -20h518l141 -428h-266v-21h447v21h-154l-391 1179h205zM1616 295v-295h-725v295h188l-57 174h-416l-49 -174h168v-295h-674v295h148l301 905h-121v295h897v-295h-121
l301 -905h160zM795 1200h-7v-88l-110 -389h256z" />
    <glyph glyph-name="B" unicode="B" horiz-adv-x="1425" 
d="M203 137h600q71 0 129.5 13.5t98 35t70 51.5t47 59.5t27 63t14 58.5t3.5 49q0 75 -28 133.5t-77.5 96t-109 60t-131.5 34.5q103 29 168 107.5t65 176.5q0 283 -381 283h-493v-21h178v-1179h-180v-21zM590 776h160q188 0 301.5 -82t113.5 -227q0 -33 -6 -67t-29 -80
t-60 -80t-106.5 -58t-160.5 -24h-395v1179h290q355 0 355 -262q0 -52 -19.5 -100t-57 -88.5t-101.5 -65t-146 -24.5h-139v-21zM63 0v295h138v905h-140v295h639q183 0 294 -35t184 -125q35 -44 53.5 -95.5t21 -79.5t2.5 -68q0 -78 -43 -149t-116 -101v-4
q131 -36 204.5 -135.5t73.5 -231.5q0 -43 -4 -81.5t-18 -87.5t-37.5 -89.5t-65 -81.5t-96.5 -68.5t-137 -45t-182 -17.5h-771zM590 295h192q108 0 150.5 41t42.5 135q0 168 -180 168h-205v-344zM707 1200h-117v-285h153q82 0 115 39.5t33 116.5q0 72 -45.5 100.5
t-138.5 28.5z" />
    <glyph glyph-name="C" unicode="C" horiz-adv-x="1359" 
d="M756 113q218 0 370 114v201h-26v-190q-61 -42 -109 -62q-105 -43 -235 -43q-304 0 -420 242q-66 141 -66 379q0 58 2.5 104.5t14 111t30.5 114t55.5 102t86.5 86.5t125.5 56t169.5 22q178 0 327 -64l2 -182h25v199q-156 67 -354 67q-98 0 -177 -22t-131.5 -57t-90.5 -88
t-58.5 -104t-32.5 -117.5t-15 -116t-3 -111.5q0 -49 1 -79t6.5 -87.5t20 -112t37.5 -104.5q126 -258 445 -258zM754 -27q-701 0 -701 775q0 81 4 142t18 134t38.5 131t68 118t103.5 109q170 140 469 140q143 -5 264.5 -34t253.5 -91l-23 -414h-309l-25 201q-13 2 -41.5 9
t-56 11t-63.5 4q-291 0 -291 -393v-135q0 -77 13 -141.5t43.5 -124t90 -93.5t144.5 -34q112 0 178 30v242h350v-395q-119 -107 -239 -149t-289 -42z" />
    <glyph glyph-name="D" unicode="D" horiz-adv-x="1478" 
d="M203 137h526q145 0 245 41t156.5 122.5t80.5 188.5t24 254q0 149 -26 258.5t-85 191.5t-160.5 123.5t-246.5 41.5h-516v-21h186v-1179h-184v-21zM729 158h-317v1179h305q263 0 377 -148t114 -446q0 -69 -4.5 -125.5t-17.5 -118.5t-34.5 -110t-58 -92.5t-86 -74t-120 -47
t-158.5 -17.5zM739 0h-676v295h142v905h-144v295h656q161 0 275 -25t210 -100q60 -47 102.5 -107t65.5 -116.5t36 -130.5t16 -131t3 -137q0 -95 -8 -170t-31 -159.5t-72.5 -159t-123.5 -134.5q-88 -73 -192 -99t-259 -26zM594 1200v-905h123q299 0 299 399v127
q0 379 -301 379h-121z" />
    <glyph glyph-name="E" unicode="E" 
d="M778 756v20h-356v561h602v-172h25v193h-848v-21h196v-1179h-196v-21h870v219h-27v-198h-622v598h356zM918 629h-314v-334h291v192h332v-487h-1166v295h154v905h-154v295h1135v-455h-293l-22 160h-277v-295h314v-276z" />
    <glyph glyph-name="F" unicode="F" horiz-adv-x="1267" 
d="M817 741v21h-385v575h615v-188h24v209h-870v-21h207v-1179h-193v-21h424v21h-207v583h385zM778 295v-295h-702v295h149v905h-164v295h1153v-471h-296l-23 176h-281v-309h334v-277h-334v-319h164z" />
    <glyph glyph-name="G" unicode="G" horiz-adv-x="1394" 
d="M758 123q71 0 135.5 11.5t106 26.5t76 33.5t47 28t18.5 15.5v428h-254v-21h229v-399q-143 -103 -358 -103q-136 0 -233 42t-153.5 123.5t-82 189t-25.5 250.5q0 54 5 106t19 114t36 115t60.5 104t89 87t123.5 58t161 22q105 0 200.5 -24t137.5 -44v-170h24v182
q-17 9 -53 22.5t-128 33.5t-181 20q-256 0 -387 -167.5t-131 -458.5q0 -108 13.5 -195.5t49.5 -169.5t93 -138t149 -89t213 -33zM758 -27q-705 0 -705 775q0 81 4 142t18 134t38.5 131t68 118t103.5 109q170 140 473 140q289 -9 534 -125l-22 -400h-312l-22 187q-7 1 -44 9
t-67.5 11.5t-66.5 3.5q-295 0 -295 -393v-135q0 -60 8 -113.5t29 -106t53.5 -90t85 -60.5t119.5 -23q130 0 196 30v207h-196v277h547v-637q-120 -104 -246.5 -147.5t-300.5 -43.5z" />
    <glyph glyph-name="H" unicode="H" horiz-adv-x="1695" 
d="M1495 1337v21h-405v-21h192v-561h-674v-20h674v-598h-195v-21h406v21h-186v1179h188zM627 1337v21h-416v-21h190v-1179h-200v-21h424v21h-199v1179h201zM950 1495h684v-295h-145v-905h143v-295h-684v295h152v334h-492v-334h156v-295h-703v295h158v905h-147v295h694v-295
h-158v-295h492v295h-150v295z" />
    <glyph glyph-name="I" unicode="I" horiz-adv-x="868" 
d="M664 1337v21h-453v-21h215v-1179h-221v-21h463v21h-217v1179h213zM72 1495h731v-295h-170v-905h174v-295h-741v295h178v905h-172v295z" />
    <glyph glyph-name="J" unicode="J" horiz-adv-x="1048" 
d="M387 109q76 0 132.5 23.5t89 59.5t52.5 89.5t26.5 105t6.5 113.5v837h162v21h-405v-21h219v-837q0 -80 -11.5 -141t-41 -116.5t-87.5 -85.5t-143 -30q-83 0 -168 37v201h-24v-211q90 -45 192 -45zM45 74v422h289l31 -226h20q32 0 54 20.5t31.5 54t13 60.5t3.5 56v739
h-176v295h684v-295h-118v-618q0 -62 -1 -98t-7.5 -91.5t-19 -95.5t-36.5 -87.5t-59 -88.5q-121 -146 -379 -146q-105 0 -191 27.5t-139 71.5z" />
    <glyph glyph-name="K" unicode="K" horiz-adv-x="1632" 
d="M1425 137v21h-174l-430 659l250 344q25 34 32 43t32 39t41 42t42 29.5t54 24.5t59 7q39 0 74 -9v-186h20v201q-38 14 -94 14q-21 0 -40.5 -3.5t-35 -6.5t-33 -13.5t-28 -15.5t-28 -21t-24 -21.5t-24.5 -27t-22 -26.5t-24 -30.5t-23 -29.5l-261 -354l449 -680h188z
M621 1337v21h-412v-21h221v-1179h-229v-21h467v21h-213v1179h166zM1012 840l344 -545h209v-295h-455l-473 748v-453h170v-295h-746v295h187v905h-178v295h690v-295h-123v-344l297 406q87 117 183.5 179t213.5 62q111 0 240 -35l-10 -444h-273l-39 160l-59 -99z" />
    <glyph glyph-name="L" unicode="L" horiz-adv-x="1269" 
d="M643 1337v21h-438v-21h198v-1179h-182v-21h834v230h-25v-209h-602v1179h215zM782 1495v-295h-172v-905h267v227h331v-522h-1126v295h139v905h-155v295h716z" />
    <glyph glyph-name="M" unicode="M" horiz-adv-x="2013" 
d="M1812 137v21h-202v1179h194v21h-372q-71 -145 -211.5 -434.5t-210.5 -434.5l-404 869h-385v-21h172v-1179h-192v-21h434v21h-217v1179h170l409 -882h25q69 143 214 441.5t214 440.5h135v-1179h-233v-21h460zM1036 203h-92l-352 774h-2v-682h184v-295h-713v295h170v905
h-149v295h616l322 -704l340 704h584v-295h-152v-905h160v-295h-740v295h191v663z" />
    <glyph glyph-name="N" unicode="N" horiz-adv-x="1628" 
d="M1239 131h33v1206h164v21h-365v-21h176v-1173l-792 1194h-250v-21h180v-1179h-182v-21h379v21h-172v1179h28zM1069 651h6v549h-143v295h643v-295h-141v-1200h-304l-555 842v-547h146v-295h-658v295h154v905h-151v295h475l508 -770z" />
    <glyph glyph-name="O" unicode="O" horiz-adv-x="1507" 
d="M756 121q194 0 309 82q201 154 201 547q0 624 -514 624q-135 0 -234.5 -47.5t-158.5 -133.5t-87 -196.5t-28 -246.5q0 -391 202 -547q109 -82 310 -82zM752 1354q489 0 489 -604q0 -98 -13.5 -181t-33.5 -141.5t-52.5 -105.5t-63 -76.5t-72 -50.5t-71.5 -31t-70.5 -16
t-60 -6.5t-48.5 -0.5t-48.5 0.5t-60.5 6.5t-70.5 16t-71.5 31t-72 50.5t-63 76.5t-53 105.5t-33.5 141.5t-13.5 181q0 99 14.5 184.5t49.5 164.5t88.5 134t138 88t191.5 33zM768 -27h-29q-139 2 -250.5 32t-203.5 108q-60 49 -103.5 109t-68 117.5t-38.5 130.5t-18 134.5
t-4 143.5q0 81 4 142t18 134t38.5 131t68 118t103.5 109q170 140 469 140t469 -140q75 -61 123 -134.5t70.5 -159.5t30 -161.5t7.5 -178.5q0 -81 -4 -142t-18 -134.5t-38 -131.5t-67.5 -118t-103.5 -109q-171 -140 -455 -140zM463 815v-135q0 -393 291 -393q290 0 290 393
v135q0 393 -290 393q-291 0 -291 -393z" />
    <glyph glyph-name="P" unicode="P" horiz-adv-x="1347" 
d="M649 137v21h-221v1179h320q54 0 100.5 -7.5t94.5 -28.5t82 -55t55.5 -92t21.5 -134q0 -168 -78 -249t-244 -81h-172v-20h172q172 0 259 83t87 267q0 338 -378 338h-545v-21h200v-1179h-200v-21h446zM608 295h176v-295h-716v295h153v905h-153v295h702q100 0 181 -16.5
t136 -43.5t96 -66.5t64 -79.5t37 -89.5t18.5 -89.5t4.5 -86q0 -230 -136.5 -352.5t-379.5 -122.5h-183v-254zM731 1200h-123v-375h158q34 0 60.5 11t43 29t27 43.5t14.5 52t4 57.5q0 85 -39 133.5t-145 48.5z" />
    <glyph glyph-name="Q" unicode="Q" horiz-adv-x="1523" 
d="M1270 -31l20 15q-58 70 -139 116.5t-156 59.5q41 21 72 43q201 154 201 547q0 624 -514 624q-135 0 -234.5 -47.5t-158.5 -133.5t-87 -196.5t-28 -246.5q0 -391 203 -547q109 -82 309 -82q119 0 207 29q66 -9 152.5 -55t152.5 -126zM754 1354q489 0 489 -604
q0 -98 -13.5 -181t-33.5 -141.5t-52.5 -105.5t-63 -76.5t-72 -50.5t-71.5 -31t-70.5 -16t-60 -6.5t-48.5 -0.5q-39 0 -66 1.5t-82.5 13.5t-95 33t-88.5 66.5t-80 107.5t-52.5 162t-21.5 225q0 99 14.5 184.5t49.5 164.5t88.5 134t138 88t191.5 33zM768 -27h-29
q-139 2 -250.5 32t-203.5 108q-60 49 -103.5 109t-68 117.5t-38.5 130.5t-18 134.5t-4 143.5q0 81 4 142t18 134t38.5 131t68 118t103.5 109q170 140 469 140t469 -140q75 -61 123 -134.5t70.5 -159.5t30 -161.5t7.5 -178.5q0 -187 -34.5 -326t-135.5 -252l-6 -6
q150 -60 217 -211l-283 -193l-36 56q-49 71 -111.5 115t-114.5 61q-129 -19 -182 -19zM463 815v-135q0 -393 291 -393q290 0 290 393v135q0 393 -290 393q-291 0 -291 -393z" />
    <glyph glyph-name="R" unicode="R" horiz-adv-x="1503" 
d="M600 137v21h-174v1179h346q164 0 259 -75.5t95 -239.5q0 -68 -23 -121t-56 -82t-78 -47.5t-81.5 -24.5t-72.5 -6h-24l348 -604h166v21h-154l-322 565q137 5 229.5 80.5t92.5 218.5q0 84 -25 146.5t-62.5 98t-90.5 57t-100 28t-101 6.5h-563v-21h192v-1179h-200v-21h399z
M612 711h-4v-416h131v-295h-678v295h158v905h-149v295h731q106 0 192 -19t141 -48t95.5 -72.5t60.5 -82.5t32 -88t14.5 -79.5t2.5 -65.5q0 -87 -27 -154t-73 -107.5t-96 -64t-107 -32.5l217 -387h191v-295h-430zM608 1200v-373h156q174 0 174 185q0 88 -38 138t-138 50h-154
z" />
    <glyph glyph-name="S" unicode="S" 
d="M641 113q75 0 144.5 15t133.5 47.5t103 94t39 144.5q0 42 -11.5 79t-28 64.5t-46 53.5t-55.5 42.5t-66.5 36t-68 30.5t-71.5 28t-67 26q-53 21 -84 34.5t-73.5 34.5t-67.5 38t-53.5 40.5t-43 47.5t-24.5 55t-10 66q0 70 36 123t95 81.5t124.5 42t135.5 13.5
q116 0 309 -35v-205h25v221q-1 0 -20 4t-51.5 9.5t-72.5 11.5t-91 10t-99 4q-55 0 -109 -7.5t-110.5 -27.5t-99 -50.5t-70 -81t-27.5 -113.5q0 -52 17.5 -94.5t45.5 -74t78.5 -62t101 -53t128.5 -52.5q170 -61 234 -97q150 -83 163 -213q2 -15 2 -30q0 -75 -35 -131.5
t-93.5 -88t-125.5 -46.5t-141 -15q-94 0 -193.5 31.5t-166.5 75.5v178h-25v-187q64 -50 168.5 -84t216.5 -34zM88 150v399h354v-215q35 -22 91.5 -34.5t107.5 -12.5q88 0 146.5 28t58.5 95q0 33 -21.5 60t-58.5 46t-72.5 33t-78.5 28t-62 23q-93 34 -161.5 65.5t-131 74
t-101.5 90t-62 111.5t-23 140q0 71 20 133t64.5 118t111.5 96.5t165.5 65.5t221.5 28q231 0 517 -74l-17 -457h-295l-37 203q-68 14 -131 14q-37 0 -71 -4t-69.5 -14.5t-57 -33t-21.5 -54.5q0 -52 82 -99.5t272 -111.5q122 -47 202.5 -96.5t126.5 -108t64.5 -122.5
t18.5 -148q0 -64 -16.5 -123t-59 -118.5t-108.5 -103t-173 -71t-243 -27.5q-180 0 -313 44t-240 133z" />
    <glyph glyph-name="T" unicode="T" horiz-adv-x="1482" 
d="M973 137v21h-219v1179h503v-293h25v314h-1071v-314h25v293h493v-1179h-229v-21h473zM1434 1495v-598h-320l-33 303h-145v-905h176v-295h-752v295h187v905h-146l-32 -303h-320v598h1385z" />
    <glyph glyph-name="U" unicode="U" horiz-adv-x="1611" 
d="M1419 1337v21h-415v-21h223v-645q0 -72 -3.5 -128.5t-14.5 -116t-30 -103.5t-50 -84t-73.5 -65t-102.5 -39.5t-136 -14.5q-103 0 -177.5 26t-120.5 71t-73.5 117t-37 151t-9.5 186v645h185v21h-391v-21h182v-645q0 -74 4 -132t15.5 -119.5t31.5 -107t53 -87.5t79 -68
t111.5 -41.5t147.5 -15.5q107 0 184 26t125 71t76 119t38.5 157t10.5 198v645h168zM827 -29h-22q-155 0 -259 32.5t-188 119.5q-46 46 -78.5 100.5t-49 101.5t-25.5 112.5t-10.5 111t-1.5 121.5v530h-140v295h670v-295h-141v-493q0 -64 2.5 -111t10.5 -98.5t24.5 -86
t41.5 -64t64.5 -44t91.5 -14.5q44 0 79 12t59.5 31.5t42 51.5t28 64t17 79t9 86t3.5 94v493h-191v295h695v-295h-136v-528q0 -75 -4.5 -136t-19 -136t-39.5 -133t-70.5 -115.5t-106.5 -95.5t-152 -61.5t-204 -23.5z" />
    <glyph glyph-name="V" unicode="V" horiz-adv-x="1703" 
d="M1507 1337v21h-440v-21h274q-65 -192 -198 -589.5t-197 -589.5h-192q-61 195 -184 589t-183 590h252v21h-442v-21h163l373 -1200h234q62 188 200 600.5t201 599.5h139zM844 375h6l266 825h-188v295h719v-295h-160l-404 -1200h-501l-373 1200h-152v295h721v-295h-160
l226 -745v-80z" />
    <glyph glyph-name="W" unicode="W" horiz-adv-x="2512" 
d="M2316 1337v21h-428v-21h254l-330 -1179h-208l-355 1179h250v21h-461v-21h185l358 -1200h254l334 1200h147zM963 137l217 785l-13 43q-37 -128 -112.5 -403.5t-112.5 -403.5h-211l-350 1179h262v21h-446v-21h157l357 -1200h252zM1253 668h-4v-74l-164 -594h-516l-354 1200
h-158v295h725v-295h-178l230 -776v-80h4l235 856h-174v295h739v-295h-161l227 -776v-80h6l229 856h-190v295h707v-295h-162l-328 -1200h-520z" />
    <glyph glyph-name="X" unicode="X" horiz-adv-x="1570" 
d="M1380 137v21h-88l-938 1179h246v21h-383v-21h105l434 -546l-496 -633h-63v-21h360v21h-262l477 612l488 -612h-261v-21h381zM915 868l353 469h96v21h-356v-21h227l-334 -446zM57 0v295h133l375 475l-352 430h-135v295h661v-295h-77l163 -199l152 199h-109v295h635v-295
h-164l-329 -422l393 -483h117v-295h-660v295h96l-202 248l-193 -248h135v-295h-639z" />
    <glyph glyph-name="Y" unicode="Y" horiz-adv-x="1595" 
d="M1411 1337v21h-387v-21h252l-479 -733v-446h-244v-21h508v21h-240v436q73 115 242.5 371.5t243.5 371.5h104zM721 748l12 24l-371 565h252v21h-421v-21h139zM754 1200h-111l182 -278l179 278h-119v295h665v-295h-161l-385 -588v-317h196v-295h-786v295h200v293l-403 612
h-158v295h701v-295z" />
    <glyph glyph-name="Z" unicode="Z" horiz-adv-x="1273" 
d="M1044 137v281h-24v-260h-741v63l735 1041l-15 96h-761v-254h24v233h717q1 -12 5 -33t5 -32l-735 -1039v-96h790zM1208 0h-1142v250l667 950h-280q-33 -104 -64 -227h-305v522h1081l23 -270l-651 -930h327v254h344v-549z" />
    <glyph glyph-name="bracketleft" unicode="[" horiz-adv-x="753" 
d="M692 -424h-569v1919h569v-268h-235v-1383h235v-268zM281 -297h282v16h-264v1633h264v16h-282v-1665z" />
    <glyph glyph-name="backslash" unicode="\" horiz-adv-x="819" 
d="M10 1495h318l471 -1495h-318zM203 1356l395 -1235h18l-393 1235h-20z" />
    <glyph glyph-name="bracketright" unicode="]" horiz-adv-x="753" 
d="M61 1495h570v-1919h-570v268h236v1383h-236v268zM473 1368h-283v-16h265v-1633h-265v-16h283v1665z" />
    <glyph glyph-name="asciicircum" unicode="^" horiz-adv-x="1329" 
d="M459 700h-338l399 795h277l387 -795h-350l-185 379zM358 807l265 516h69l258 -516h19l-267 532h-90l-272 -532h18z" />
    <glyph glyph-name="underscore" unicode="_" horiz-adv-x="1103" 
d="M-10 -377v217h1124v-217h-1124zM1001 -276v16h-903v-16h903z" />
    <glyph glyph-name="grave" unicode="`" horiz-adv-x="712" 
d="M371 1126l-299 277h338l231 -277h-270zM307 1323l135 -125l-104 125h-31z" />
    <glyph glyph-name="a" unicode="a" horiz-adv-x="1110" 
d="M954 131v19h-63q-82 54 -82 176v245q0 67 -3.5 109.5t-18 91.5t-41.5 76.5t-76.5 46t-120.5 18.5q-65 0 -140 -14.5t-114 -27t-59 -21.5v-109h24v97q133 57 289 57q76 0 124.5 -21t73 -66.5t33 -99t8.5 -137.5v-245q0 -135 99 -195h67zM979 281h88v-281h-252
q-27 6 -63.5 37.5t-59.5 64.5q-36 -40 -65 -62t-93 -40t-157 -18q-74 0 -132 19.5t-93 50t-58 71.5t-32 80.5t-9 79.5q0 65 20.5 117.5t52 87.5t81.5 61t95 39.5t108 22.5t106 11.5t102 4.5v35q0 56 -18.5 89t-69.5 33q-84 0 -157 -30l-25 -107h-233l-11 297q257 98 469 98
q99 0 174 -25.5t118 -64.5t69.5 -94t35.5 -106t9 -109v-362zM618 295v115q-215 0 -215 -101q0 -37 24.5 -56.5t61.5 -19.5q83 0 129 62zM436 96q56 0 109.5 21t79.5 42l26 21l-6 19q-33 -30 -59 -43q-70 -41 -150 -41q-13 0 -26.5 1.5t-38 6t-44.5 17t-39.5 30.5t-30.5 49.5
t-11 71.5q0 52 20.5 90.5t53.5 61.5t83 37t101 19t114 5v20q-34 0 -57.5 -0.5t-68.5 -5.5t-77.5 -13t-71.5 -25.5t-63.5 -41.5t-41.5 -61.5t-17 -85.5q0 -92 57.5 -143.5t157.5 -51.5z" />
    <glyph glyph-name="b" unicode="b" horiz-adv-x="1173" 
d="M342 1368l-184 -31v-18q12 2 73 12t91 15v-1020q0 -72 -25.5 -115.5t-54.5 -60.5h-70v-19h76q40 20 67 68.5t27 126.5v1042zM512 1497v-500q89 50 186 50q430 0 430 -533q0 -78 -13 -149t-47.5 -142t-87 -122t-138.5 -83t-195 -32q-129 0 -233 75q-27 -39 -70 -61h-283
v281h91v921h-115v260l418 72zM612 774q-47 0 -100 -47v-422q57 -43 113 -43q76 0 105.5 60t29.5 192q0 131 -33.5 195.5t-114.5 64.5zM512 864v-24q66 49 166 49q70 0 121.5 -31t79 -85.5t40.5 -117.5t13 -137q0 -70 -14.5 -135t-45 -124t-87.5 -94.5t-134 -35.5
q-42 0 -77.5 11.5t-52 23t-44.5 33.5l-8 -19q32 -32 81 -49.5t101 -17.5q64 0 116 23t87 61.5t58 91t33.5 110.5t10.5 121q0 100 -20 175t-49 115t-69.5 64t-72.5 30.5t-67 6.5q-101 0 -166 -45z" />
    <glyph glyph-name="c" unicode="c" horiz-adv-x="968" 
d="M569 111q109 0 195 49l-10 20q-27 -14 -41.5 -20.5t-56 -16.5t-87.5 -10q-42 0 -81.5 7.5t-87 32t-81.5 64.5t-57.5 111.5t-23.5 165.5q0 96 26 168.5t61 110t82.5 60.5t79.5 28.5t62 5.5q96 0 205 -35v-147h22v161q-132 39 -227 39q-162 0 -250 -108.5t-88 -282.5
q0 -99 25 -174.5t62 -117.5t88 -68.5t94 -34.5t89 -8zM897 602h-262l-25 166h-53q-47 0 -78.5 -21.5t-46.5 -61t-20.5 -79.5t-5.5 -92q0 -109 46.5 -176.5t147.5 -67.5q86 0 225 82l103 -254q-4 -3 -28 -18.5t-32 -20.5t-33 -18.5t-41 -19t-45 -15t-56 -13.5t-64 -7.5
t-78 -3.5q-260 0 -385 139.5t-125 394.5q0 111 32.5 206t94 166.5t158 112.5t217.5 41q211 0 375 -86z" />
    <glyph glyph-name="d" unicode="d" horiz-adv-x="1167" 
d="M850 342v1026l-186 -31v-18q3 1 69 11.5t96 15.5v-1004q0 -79 25.5 -133t60.5 -78h101v19h-90q-29 22 -52.5 74t-23.5 118zM1020 281h113v-281h-310q-42 39 -69 84q-57 -54 -120 -78t-145 -24q-94 0 -171.5 32.5t-127.5 85.5t-84.5 123t-49.5 142.5t-15 146.5
q0 84 14.5 159t48 144t84 118.5t127.5 79t174 29.5q86 0 170 -41v201h-114v260l418 72l57 -37v-1216zM557 768q-81 0 -114 -62.5t-33 -193.5q0 -134 29 -195t104 -61q62 0 116 43v420q-52 49 -102 49zM516 113q67 0 133 32q36 20 51 35l-6 19q-86 -66 -178 -66
q-62 0 -110.5 21t-79.5 56t-51 84.5t-28.5 103t-8.5 114.5q0 52 5.5 99.5t23 100t45 90t75.5 62.5t111 25q90 0 161 -47v20q-63 45 -161 45q-22 0 -42 -2.5t-50 -12t-55 -25.5t-51.5 -46t-44.5 -70t-30 -101.5t-12 -137.5q0 -62 8 -116t29.5 -107.5t55 -91t87.5 -61
t123 -23.5z" />
    <glyph glyph-name="e" unicode="e" horiz-adv-x="1024" 
d="M549 104q60 0 115.5 11t79 20.5t36.5 16.5l-8 20q-11 -7 -32.5 -15.5t-76 -20t-114.5 -11.5q-44 0 -84.5 9t-84.5 35.5t-76 68t-52.5 112t-20.5 162.5q0 97 24 169.5t57.5 110.5t79.5 61t79 28.5t68 5.5q26 0 49.5 -2.5t55 -9.5t57 -23t48.5 -39t35.5 -61.5t12.5 -87.5
q0 -88 -9 -150h-397v-18h418l2 26q8 65 8 142q0 121 -72 181t-208 60q-167 0 -249.5 -108t-82.5 -285q0 -97 22.5 -172t57 -118.5t81.5 -71t90.5 -37t90.5 -9.5zM547 -18q-120 0 -212.5 35t-146.5 88t-88.5 126.5t-46.5 141.5t-12 141q0 70 12 136.5t46.5 140t88 127
t144.5 89t209 35.5q208 0 323 -100t115 -299q0 -56 -23 -242h-555q6 -68 47 -104.5t113 -36.5q138 0 293 82l92 -258q-44 -26 -66 -36.5t-73 -30t-114.5 -27.5t-145.5 -8zM639 688q-6 38 -33 61t-65 23q-63 0 -101 -42t-39 -116h240q0 60 -2 74z" />
    <glyph glyph-name="f" unicode="f" horiz-adv-x="886" 
d="M588 131v19h-217v735h307v18h-516v-18h188v-735h-145v-19h383zM348 1024h27q-74 103 -74 174q0 83 63.5 130.5t161.5 47.5q135 0 201 -28v-131h21v143q-77 35 -222 35q-102 0 -174.5 -50.5t-72.5 -146.5q0 -33 13.5 -70t24 -54.5t31.5 -49.5zM184 1024l2 4
q-73 82 -73 180q0 72 25.5 130t65.5 93.5t94 59t106 32.5t106 9q100 0 203.5 -21t181.5 -59l-25 -344h-247l-41 180q-58 -1 -86.5 -31t-28.5 -77q0 -77 63 -156h267v-254h-256v-489h176v-281h-641v281h104v489h-114l-21 254h139z" />
    <glyph glyph-name="g" unicode="g" horiz-adv-x="1171" 
d="M545 365q154 0 239.5 68t85.5 204q0 138 -79 212.5t-236 74.5q-41 0 -79 -5.5t-83 -23t-77 -46.5t-54 -81.5t-22 -122.5q0 -135 79.5 -207.5t225.5 -72.5zM555 905q39 0 74.5 -5t77 -22.5t71.5 -45.5t50 -78t20 -117q0 -65 -23 -114t-55.5 -75t-77 -41.5t-78.5 -19.5
t-69 -4q-134 0 -208.5 69t-74.5 193q0 66 20.5 115t50 76t72 43.5t77 21t73.5 4.5zM887 932l16 -17q40 33 73 46.5t83 9.5l2 22q-56 5 -94 -10.5t-80 -50.5zM205 -25l-23 -20q3 -122 64 -188q88 -95 336 -95q52 0 98 4.5t100.5 19t93.5 38t65 66.5t26 100q0 38 -12 68
t-28 49t-46 32.5t-53.5 20t-63.5 10t-62 4t-62 0.5h-9q-61 0 -109 8.5t-74 20.5t-42.5 25.5t-21.5 21t-5 10.5l-12 -20q1 -1 7.5 -8t11.5 -12t16.5 -13.5t24 -14.5t33.5 -13.5t44 -12t56 -7.5t71 -3q170 0 240.5 -35.5t70.5 -130.5q0 -52 -24 -91t-60 -61t-86 -35.5
t-94.5 -17.5t-93.5 -4q-110 0 -195 23t-125 69q-31 36 -43 79t-14 113zM1042 649q0 -93 -29.5 -164t-77.5 -114.5t-117.5 -70t-141.5 -36.5t-158 -10q-3 0 -8.5 1t-9.5 1q10 -51 213 -51q122 0 207 -20.5t132 -61t67 -91.5t20 -120q0 -367 -551 -367q-108 0 -191.5 10
t-156.5 35.5t-120 66.5t-73.5 104.5t-26.5 148.5v104q227 116 283 285q-233 79 -233 350q0 106 38.5 184.5t106.5 122.5t151 65t183 21q150 0 246 -34q50 60 102 87t131 27q76 0 129 -28l-18 -246h-144q47 -71 47 -199zM434 680v-66q0 -59 29 -85t86 -31q129 0 129 116v66
q0 59 -33 88t-90 29q-56 0 -88.5 -29t-32.5 -88zM659 -51q-69 0 -111 2t-94.5 12.5t-86.5 30.5v-41q0 -131 215 -131q100 0 145 15.5t45 53.5q0 30 -22 44t-91 14z" />
    <glyph glyph-name="h" unicode="h" horiz-adv-x="1257" 
d="M342 1368l-184 -31v-18q12 2 73 12t91 15v-1196h-132v-19h289v19h-137v1218zM512 903l68 82q88 47 178 47q192 0 277 -105.5t85 -318.5v-327h99v-281h-459v555q0 57 -7.5 94t-32.5 62.5t-69 25.5q-83 0 -139 -80v-376h96v-281h-547v281h91v921h-115v260l418 72l57 -37
v-594zM1090 131v19h-140v425q0 52 -4.5 93t-19 84t-39.5 71t-68 46t-102 18q-119 0 -205 -86v-23q92 92 205 92q110 0 161.5 -70.5t51.5 -224.5v-444h160z" />
    <glyph glyph-name="i" unicode="i" horiz-adv-x="692" 
d="M524 131v19h-143v745l-195 -16v-19l174 14v-724h-165v-19h329zM379 1276v24h-72v-24h72zM510 1044l41 -32v-731h102v-281h-587v281h124v462h-120v263zM129 1288q0 72 63.5 125t151.5 53q95 0 156 -52t61 -126q0 -77 -60.5 -129.5t-156.5 -52.5q-88 0 -151.5 53.5
t-63.5 128.5z" />
    <glyph glyph-name="j" unicode="j" horiz-adv-x="638" 
d="M360 874v-800q0 -91 -15 -160t-38 -108t-54.5 -62.5t-59 -31t-58.5 -7.5q-37 0 -94 19l-2 94h-23v-109q11 -7 45.5 -15.5t73.5 -8.5q61 0 106.5 25.5t71.5 63.5t42 92.5t21 103.5t5 104v821l-193 -16v-19zM379 1276v24h-72v-24h72zM176 -221h14v964h-120v263l440 38
l41 -32v-873q0 -134 -31 -238.5t-77.5 -165t-108 -99.5t-115 -52.5t-106.5 -13.5q-133 0 -236 59l10 297h211zM129 1288q0 72 63.5 125t151.5 53q95 0 156 -52t61 -126q0 -77 -60.5 -129.5t-156.5 -52.5q-88 0 -151.5 53.5t-63.5 128.5z" />
    <glyph glyph-name="k" unicode="k" horiz-adv-x="1269" 
d="M1092 131v19h-136l-256 460l136 176q67 91 163 91q23 0 58 -5v-124h20v141q-30 6 -78 6q-107 0 -182 -98l-141 -185l266 -481h150zM360 1368l-186 -31v-18l166 27v-1196h-133v-19h278v19h-125v1218zM1047 281h174v-281h-381l-310 553v-272h84v-281h-551v281h107v921h-115
v260l418 72l57 -37v-852l154 191q73 93 149.5 145.5t176.5 52.5q31 0 60 -2.5t41.5 -4.5t50 -10t50.5 -11l-28 -355h-191l-49 84l-84 -104z" />
    <glyph glyph-name="l" unicode="l" horiz-adv-x="710" 
d="M377 1368l-187 -31v-18q150 25 166 27v-1196h-133v-19h289v19h-135v1218zM186 1202h-114v260l417 72l58 -37v-1216h125v-281h-606v281h120v921z" />
    <glyph glyph-name="m" unicode="m" horiz-adv-x="1861" 
d="M160 877v-19l174 16v-724h-131v-19h276v19h-125v745zM1092 131v19h-136v487q0 252 -219 252q-38 0 -76 -9.5t-63.5 -22t-49 -28t-32 -23t-12.5 -11.5l2 -23q5 5 14 13t32.5 24t49 28.5t62.5 22.5t73 10q199 0 199 -233v-506h156zM1694 131v19h-135v487q0 126 -60 189
t-172 63q-39 0 -77.5 -10.5t-64 -22.5t-49.5 -29t-31 -23.5t-13 -12.5l4 -21q13 13 36 31t81 43.5t114 25.5q211 0 211 -233v-506h156zM74 281h90v462h-117v261l399 40q26 -55 50 -149l82 92q88 45 186 45q109 0 171.5 -30t119.5 -97q77 64 150 95.5t161 31.5
q191 0 277 -106t86 -318v-327h94v-281h-455v555q0 92 -20.5 137t-83.5 45q-85 0 -138 -80v-376h95v-281h-455v555q0 92 -20.5 137t-83.5 45q-85 0 -138 -80v-376h97v-281h-547v281z" />
    <glyph glyph-name="n" unicode="n" horiz-adv-x="1265" 
d="M664 737q-84 0 -140 -80v-376h97v-281h-547v281h90v464h-117v259l399 40q26 -55 50 -149l82 92q99 45 186 45q192 0 279 -106t87 -318v-327h97v-281h-457v555q0 88 -22 135t-84 47zM160 877v-19l174 16v-724h-131v-19h289v19h-138v745zM1098 131v19h-137v487
q0 252 -224 252q-38 0 -75.5 -9.5t-63 -21.5t-48.5 -27t-31.5 -22.5t-12.5 -11.5l2 -25q12 12 34 29.5t80 43t115 25.5q203 0 203 -233v-506h158z" />
    <glyph glyph-name="o" unicode="o" horiz-adv-x="1105" 
d="M551 113q342 0 342 399q0 196 -88.5 298.5t-251.5 102.5q-171 0 -255.5 -109t-84.5 -292q0 -94 21 -167t54 -115.5t79.5 -70t90.5 -37t93 -9.5zM553 895q162 0 238.5 -103.5t76.5 -279.5q0 -97 -20.5 -168.5t-51.5 -110.5t-76 -63t-83.5 -30.5t-85.5 -6.5
q-160 0 -236.5 102.5t-76.5 276.5q0 189 80 286t235 97zM553 1042q112 0 193 -19.5t149 -74.5q54 -43 89.5 -96.5t52 -112.5t22.5 -110.5t6 -114.5q0 -64 -5.5 -114t-21.5 -111t-52 -114.5t-91 -96.5q-68 -56 -150 -76t-192 -20t-192 20t-150 76q-53 43 -88.5 97t-52 113
t-23 111.5t-6.5 114.5q0 288 170 434q122 94 342 94zM553 260q79 0 111 60t32 192q0 133 -32 193.5t-111 60.5t-111 -61t-32 -195q0 -129 32 -189.5t111 -60.5z" />
    <glyph glyph-name="p" unicode="p" horiz-adv-x="1175" 
d="M514 -330v19h-172v1206l-184 -18v-19l164 16v-1185h-146v-19h338zM512 205v-25q27 -19 41.5 -28.5t49.5 -21t73 -11.5q65 0 115.5 23t81.5 60.5t50.5 90.5t27 106.5t7.5 114.5q0 192 -71.5 293.5t-212.5 101.5q-111 0 -197 -86l4 -20q88 88 193 88q61 0 108 -22.5t75 -58
t46 -86.5t24.5 -101.5t6.5 -108.5q0 -186 -65.5 -281.5t-192.5 -95.5q-21 0 -41 4t-32.5 7.5t-29.5 13.5t-22.5 13.5t-21.5 16t-17 13.5zM512 84v-272h137v-263h-606v263h109v933h-117v259l377 38q18 -29 43 -118l69 80q29 16 80.5 27t89.5 11q118 0 203.5 -39t135.5 -112
t73.5 -167t23.5 -212q0 -85 -11.5 -158.5t-40.5 -142.5t-74 -118t-116 -78t-163 -29q-132 0 -213 98zM614 260q79 0 113.5 62.5t34.5 189.5q0 133 -30 194.5t-105 61.5q-61 0 -115 -63v-379q20 -29 48.5 -47.5t53.5 -18.5z" />
    <glyph glyph-name="q" unicode="q" horiz-adv-x="1118" 
d="M991 -328v19h-137v1194h-20v-1194h-181v-19h338zM664 170v23q-75 -56 -168 -56q-256 0 -256 377q0 65 10.5 124.5t34.5 119.5t73.5 96.5t118.5 36.5q51 0 101.5 -20.5t75 -39.5t28.5 -26l2 24q-11 11 -29.5 25t-70.5 34.5t-107 20.5q-36 0 -69 -9.5t-69 -36t-62 -69
t-43 -114.5t-17 -166q0 -395 279 -395q99 0 168 51zM664 -188v245q-99 -71 -183 -71q-118 0 -203.5 39t-135.5 112t-73.5 167t-23.5 212q0 85 11.5 158.5t41 142.5t74.5 118t116 78t163 29q65 0 132 -27t119 -89q34 81 60 116l262 -18v-1212h94v-263h-588v263h134zM549 260
q60 0 115 64v378q-20 29 -49 47.5t-54 18.5q-79 0 -113 -62t-34 -190q0 -133 30 -194.5t105 -61.5z" />
    <glyph glyph-name="r" unicode="r" horiz-adv-x="1011" 
d="M541 131v19h-181v745l-190 -18v-19q27 3 85 8t85 8v-724h-139v-19h340zM514 770l2 -33q104 158 225 158q27 0 50 -10v-197h22v209q-29 16 -72 16q-74 0 -132.5 -45t-94.5 -98zM53 1004l402 43q31 -64 49 -166q123 166 278 166q96 0 197 -58l-47 -418h-252l-43 170
q-26 -8 -58 -48.5t-49 -88.5v-323h136v-281h-598v281h102v462h-117v261z" />
    <glyph glyph-name="s" unicode="s" horiz-adv-x="960" 
d="M66 98v281h284v-111q58 -28 121 -28q42 0 65 19.5t25 47.5q-1 7 -4 13.5t-9 12t-12 10t-17 9.5t-18 8t-22 8t-23.5 7.5t-26 7.5t-26.5 8q-65 19 -109.5 35.5t-89.5 43t-71.5 58.5t-43.5 80t-17 109q0 63 21.5 118t68.5 103t135 76t209 28q89 0 193 -21.5t186 -53.5
l-11 -305h-272l-18 112q-54 12 -88 12q-41 0 -65.5 -14t-24.5 -39q0 -23 28 -41t72.5 -33t98.5 -32t108.5 -42.5t99 -58.5t72.5 -86.5t28 -120.5q0 -66 -22.5 -123t-70.5 -106.5t-136.5 -78.5t-208.5 -29q-131 0 -227 27.5t-182 88.5zM481 98q136 0 205.5 60t69.5 137
q0 84 -58 134t-225 101q-128 38 -173.5 86.5t-45.5 110.5q0 85 68 125.5t172 40.5q114 0 235 -39v-109h23v121q-9 5 -37.5 14.5t-91.5 20t-129 10.5q-68 0 -124.5 -16t-97.5 -59t-41 -109q0 -48 18 -83.5t55.5 -60t71 -39t89.5 -32.5q153 -49 210.5 -96t57.5 -121
q0 -80 -68.5 -129t-183.5 -49q-64 0 -123 14.5t-85 27.5t-44 25v99h-22v-107q0 -5 32 -22.5t100 -36.5t142 -19z" />
    <glyph glyph-name="t" unicode="t" horiz-adv-x="774" 
d="M502 119q52 0 102 16l-6 21q-42 -19 -96 -19q-47 0 -81.5 17t-54 42.5t-30.5 64.5t-14 74t-3 81v469h269l2 18h-271v154h-20v-154h-109v-18h109v-469v-36t2 -39.5t5 -44.5t10 -43t17 -42.5t25.5 -35.5t35 -30t47.5 -18.5t61 -7.5zM680 309l70 -264q-154 -61 -306 -61
q-161 0 -238 93.5t-77 299.5v393h-88v213q45 17 78.5 44t48.5 50l108 160h213v-213h232l-19 -254h-213v-319q0 -26 0.5 -43t5 -42.5t12.5 -40.5t24 -26.5t38 -11.5q25 0 111 22z" />
    <glyph glyph-name="u" unicode="u" horiz-adv-x="1249" 
d="M760 207l-4 24q-90 -98 -215 -98q-122 0 -175 69.5t-53 203.5v468h123v19h-270v-19h127v-468q0 -68 11.5 -118.5t39 -91t77 -61t120.5 -20.5q83 0 141 32t78 60zM1079 131v19h-94q-63 63 -63 165v559h133v19h-279v-19h125v-559q0 -112 72 -184h106zM1200 0h-360
q-42 45 -62 96q-2 -2 -24 -22t-31 -26.5t-34.5 -23t-47.5 -23t-57 -13t-74 -6.5q-202 0 -294.5 96t-92.5 305v360h-86v281h528v-281h-82v-282q0 -31 0.5 -48t5.5 -49t14.5 -49.5t29.5 -32t49 -14.5q95 0 149 78v397h-84v281h537v-281h-92v-462h108v-281z" />
    <glyph glyph-name="v" unicode="v" horiz-adv-x="1234" 
d="M1071 874v19h-285v-19h177q-40 -118 -125 -362t-125 -362h-197q-36 119 -111.5 362t-111.5 362h151v19h-278v-19h102l228 -743h237q127 366 252 743h86zM610 272h6l152 471h-111v281h543v-281h-106l-244 -743h-471l-227 743h-115v281h536v-281h-79l116 -403v-68z" />
    <glyph glyph-name="w" unicode="w" horiz-adv-x="1843" 
d="M1679 874v19h-315v-19h190q-32 -120 -94.5 -362t-93.5 -362h-207l-198 743h-93q-35 -138 -99.5 -394t-88.5 -349h-205q-29 119 -91.5 362t-92.5 362h182v19h-307v-19h100l191 -743h243q31 123 189 743h53l197 -743h247q32 122 95.5 371.5t95.5 371.5h102zM911 489h-8v-45
l-96 -444h-473l-182 743h-115v281h565v-281h-115l101 -411v-60h8l164 752h313l176 -692v-60h8l117 471h-139v281h573v-281h-120l-189 -743h-463z" />
    <glyph glyph-name="x" unicode="x" horiz-adv-x="1134" 
d="M303 131l252 389l279 -389h122v19h-108l-537 743h-116v-19h104q37 -52 121 -167.5t121 -167.5l-252 -389h-111v-19h125zM664 674l12 -17l151 217h107v19h-119zM723 0l-182 258l-154 -258h-338v281h162l151 231l-163 231h-133v281h356l162 -229l147 229h332v-281h-164
l-133 -206l180 -256h139v-281h-362z" />
    <glyph glyph-name="y" unicode="y" horiz-adv-x="1234" 
d="M399 -322q57 0 107.5 27t81.5 63.5t56 82t35 72.5t15 46l299 905h78v19h-272v-19h170l-297 -901q-4 -14 -13 -38.5t-32.5 -68t-52.5 -79.5t-76 -63t-99 -27q-58 0 -110 18v111h-23v-127q60 -21 133 -21zM561 74l10 39l-268 761h154v19h-289v-19h111zM440 -246l90 246
h-118l-254 743h-119v281h547v-281h-78l115 -335v-113h4l145 448h-102v281h530v-281h-100l-266 -821q-29 -85 -65.5 -147.5t-90 -112.5t-129 -76t-172.5 -26q-109 0 -244 47l8 340h246z" />
    <glyph glyph-name="z" unicode="z" horiz-adv-x="1001" 
d="M807 131l20 193h-24q-3 -28 -9.5 -87.5t-9.5 -86.5h-534q0 7 -2 19t-2 19l530 646l-8 59h-557v-182h25v163h509q1 -8 4 -18.5t3 -13.5l-533 -645l8 -66h580zM895 1024l31 -225l-430 -518h174l28 141h263l-31 -422h-848l-25 201l469 563h-151l-56 -158h-233v418h809z" />
    <glyph glyph-name="braceleft" unicode="{" horiz-adv-x="882" 
d="M82 391v287q30 1 54.5 4t44 10.5t34.5 15t26 23.5t19 28.5t13 37t8 43t4 53.5t1.5 60.5t0.5 70.5q0 113 9 185.5t32.5 118.5t51 69.5t75.5 48.5q93 49 288 49h95v-291q-93 0 -135 -9t-57 -30.5t-15 -70.5q0 -117 -4 -191.5t-14 -135t-30.5 -99.5t-49 -69.5t-74.5 -61.5
q51 -33 78.5 -63.5t51 -90.5t32 -156t8.5 -250q0 -68 41 -90t168 -22v-289h-95q-78 0 -138 5.5t-107 20t-80.5 32.5t-57 49t-38 64.5t-22.5 84t-10.5 101t-2.5 122.5q0 62 -1 98t-5 76t-13 61.5t-23.5 43t-37 31.5t-53 17t-72.5 9zM176 549v-29q176 -9 234 -145
q41 -103 41 -355q0 -79 14.5 -136t37 -89t58 -50.5t69 -24t79.5 -5.5h6v19h-6q-42 0 -72 4.5t-63.5 22t-54.5 47.5t-34.5 83.5t-13.5 128.5q0 127 -8 213.5t-35 151.5q-53 126 -192 150q140 24 192 149q27 65 35 151.5t8 213.5q0 75 13.5 128.5t34.5 83.5t54.5 47.5t63.5 22
t72 4.5h6v19h-6q-46 0 -79.5 -5.5t-69 -24t-58 -50.5t-37 -89t-14.5 -136q0 -252 -41 -355q-58 -136 -234 -145z" />
    <glyph glyph-name="bar" unicode="|" horiz-adv-x="593" 
d="M143 -428v1987h308v-1987h-308zM309 -283v1694h-24v-1694h24z" />
    <glyph glyph-name="braceright" unicode="}" horiz-adv-x="882" 
d="M801 680v-287q-61 -3 -99 -17.5t-60 -34t-32 -68.5t-12 -92t-2 -134q0 -113 -9 -185.5t-32.5 -118.5t-51 -69.5t-75.5 -48.5q-93 -49 -289 -49h-94v291q93 0 135 9t57 30.5t15 70.5q0 146 6 230t25.5 149.5t51.5 103t89 75.5q-51 30 -79.5 60.5t-51 91.5t-31 157
t-8.5 250q0 68 -41 90t-168 22v289h94q89 0 155 -8.5t115.5 -24t82.5 -45t54 -63.5t31.5 -89t14.5 -110.5t4 -138.5q0 -62 1 -98t5 -76t13 -61.5t23.5 -43t37 -31.5t53 -17t72.5 -9zM707 522v29q-176 9 -234 145q-41 103 -41 355q0 79 -14.5 136t-37 89t-58 50.5t-69 24
t-79.5 5.5h-6v-19h6q42 0 72 -4.5t63.5 -22t54.5 -47.5t34.5 -83.5t13.5 -128.5q0 -127 8 -213.5t35 -151.5q52 -125 192 -149q-139 -24 -192 -150q-27 -65 -35 -151t-8 -213q0 -63 -9 -111t-26.5 -78.5t-38 -50.5t-49.5 -30t-55 -13.5t-60 -3.5h-6v-19h6q46 0 79.5 5.5
t69 24t58 51t37 89.5t14.5 136q0 251 41 354q58 136 234 145z" />
    <glyph glyph-name="asciitilde" unicode="~" horiz-adv-x="1253" 
d="M1180 983v-350q-168 -160 -332 -160q-65 0 -126 23t-159 77q-117 60 -170 60q-110 0 -319 -209v348q178 164 340 164q89 0 264 -90q142 -74 190 -74q110 0 312 211zM868 604q39 0 87.5 21.5t78 42.5t29.5 24l-2 21q-1 -1 -22.5 -16t-46.5 -31t-60 -29.5t-64 -13.5
q-22 0 -44.5 4t-38 8t-41.5 15t-35 15.5t-39.5 20.5t-36.5 19q-106 56 -152 70q-45 13 -86 13t-92 -23t-78 -42t-35 -27v-22l34 24q34 24 83.5 48t87.5 24q20 0 41 -4t37 -8.5t40 -15t36 -16.5t39 -20.5t37 -19.5t38.5 -19.5t40.5 -20t37 -16t42 -14.5t40 -8t45 -4z" />
    <glyph glyph-name="exclamdown" unicode="&#xa1;" horiz-adv-x="583" 
d="M117 1024h360v-342h-360v342zM186 524h222l73 -526v-469h-368v469zM285 387v-727h22v727h-22zM287 901v-96h20v96h-20z" />
    <glyph glyph-name="cent" unicode="&#xa2;" horiz-adv-x="1081" 
d="M948 840h-268l-25 161h-53q-158 0 -158 -258q0 -108 47 -173.5t148 -65.5q96 0 242 86l98 -260q-92 -92 -270 -109v-221h-250v225q-373 67 -373 525q0 197 96 335.5t277 178.5v231h250v-227q146 -18 260 -76zM592 1268v114h-17v-114h17zM592 100v246h20q109 0 195 49
l-10 21q-27 -14 -41.5 -20.5t-56 -16.5t-87.5 -10q-42 0 -81.5 7.5t-87 32t-81.5 64.5t-57.5 111.5t-23.5 165.5q0 96 26 168.5t61 110t82.5 60t79.5 28t62 5.5q96 0 205 -35v-147h22v162q-132 39 -227 39q-162 0 -250 -108.5t-88 -282.5q0 -92 20.5 -163.5t52.5 -114
t76.5 -71.5t85 -40.5t86.5 -14.5v-246h17z" />
    <glyph glyph-name="sterling" unicode="&#xa3;" horiz-adv-x="1212" 
d="M1083 1360l-198 -258q-74 74 -170 74q-76 0 -122 -39t-46 -115q0 -28 7 -55t20.5 -61.5t17.5 -45.5h334v-270h-305q-4 -32 -12.5 -61.5t-15 -47.5t-23.5 -45.5t-22.5 -35.5t-29 -38t-26.5 -34q47 10 102 10q54 0 141.5 -14.5t130.5 -14.5q89 0 185 41l104 -282
q-126 -70 -248 -70q-61 0 -196 22.5t-215 22.5q-115 0 -248 -43l-119 272q78 85 120.5 156.5t53.5 161.5h-194v270h165q-21 46 -31.5 71.5t-21 69.5t-10.5 86q0 78 24.5 141.5t86.5 125.5q71 70 172.5 105.5t210.5 35.5q118 0 208.5 -32t169.5 -103zM483 664q0 66 -43 195
t-43 202q0 118 81.5 190t211.5 72q76 0 144 -29q33 -15 49 -26l10 16q0 5 -21 17.5t-71 26t-111 13.5q-138 0 -226.5 -77.5t-88.5 -202.5q0 -70 38.5 -188.5t43.5 -143.5h-217v-18h221q2 -16 2 -47q0 -55 -20 -118.5t-46.5 -112t-57 -93.5t-47.5 -66t-22 -26l43 -94
q11 4 21 7.5t45.5 12t69.5 11.5t86.5 0.5t103.5 -15.5q108 -27 215 -27q40 0 70 4t42 8.5t13 8.5l-6 14q-14 -7 -29 -10q-33 -10 -88 -10q-103 0 -215 28q-59 14 -114.5 16.5t-96.5 -3.5t-64.5 -12t-39.5 -13l-33 72q1 1 22 29t38.5 52t43 67t43 82.5t30.5 90t13 97.5z
M618 729l3 -18h172v18h-175z" />
    <glyph glyph-name="currency" unicode="&#xa4;" horiz-adv-x="1212" 
d="M1200 254l-223 -223l-150 149q-109 -53 -221 -53t-221 53l-149 -149l-224 223l150 149q-53 109 -53 222q0 112 53 221l-150 149l224 224l149 -150q109 53 221 53t221 -53l150 150l223 -224l-149 -149q53 -109 53 -221q0 -113 -53 -222zM860 860l162 164l-12 12l-162 -164
q-97 97 -240 97q-147 0 -251.5 -104t-104.5 -247q0 -140 98 -243l-160 -160l13 -12l159 159q100 -94 246 -94q142 0 245 102.5t103 247.5q0 139 -96 242zM608 954q138 0 235 -99t97 -237q0 -139 -96.5 -237t-235.5 -98t-238.5 98.5t-99.5 236.5q0 137 99.5 236.5t238.5 99.5
zM801 625q0 79 -57.5 136.5t-137.5 57.5t-137 -57.5t-57 -136.5q0 -80 57.5 -137.5t136.5 -57.5q80 0 137.5 58t57.5 137zM260 948l12 13l-73 75l-13 -12zM1008 203l10 10l-76 74l-10 -11z" />
    <glyph glyph-name="yen" unicode="&#xa5;" horiz-adv-x="1216" 
d="M1194 1468v-294h-92l-144 -246h119v-199h-235l-68 -123v-10h303v-199h-303v-102h127v-295h-604v295h135v102h-307v199h299l-72 133h-227v199h117l-136 246h-88v294h562v-294h-119l155 -308l170 308h-110v294h518zM616 571l134 244h233v21h-223l266 475h29v20h-240v-20
h186l-407 -733v-72h-365v-21h365v-327h-160v-21h328v21h-146v413zM201 1311l256 -475h-228v-21h238l47 -88l12 23l-301 561h215v20h-282v-20h43zM983 485v21h-213v-21h213z" />
    <glyph glyph-name="brokenbar" unicode="&#xa6;" horiz-adv-x="593" 
d="M451 762h-308v797h308v-797zM451 -428h-308v797h308v-797zM311 901v481h-24v-481h24zM311 -279v486h-24v-486h24z" />
    <glyph glyph-name="section" unicode="&#xa7;" horiz-adv-x="1138" 
d="M1028 1133l-330 -35q-4 72 -34 110.5t-80 38.5q-40 0 -63 -17.5t-23 -43.5q0 -35 30 -68q43 -47 121 -99t149.5 -96.5t140 -98.5t110 -127t41.5 -160q0 -176 -164 -308q96 -111 96 -233q0 -158 -120.5 -259.5t-330.5 -101.5t-330 104.5t-141 291.5l334 39
q30 -174 150 -174q48 0 73 25.5t25 68.5q0 29 -37.5 59t-228.5 154q-142 93 -218.5 164.5t-105.5 134.5t-29 143q0 206 170 322q-79 101 -79 207q0 143 116.5 237t309.5 94q203 0 316.5 -97.5t131.5 -274.5zM489 553l238 -166q51 49 51 98q0 69 -106 144l-248 170
q-41 -38 -41 -88q0 -86 106 -158zM813 305l14 -12q39 27 78 82.5t39 126.5q0 41 -18 80t-45 72t-79.5 74.5t-99.5 73.5t-127 83q-128 84 -181.5 151.5t-53.5 143.5q0 11 2 25.5t15 43.5t35.5 51.5t70.5 40t112 17.5q62 0 110 -14.5t72.5 -34t40 -42.5t19.5 -36.5t4 -18.5h21
q3 0 -1.5 17t-21 41t-44.5 48t-80.5 41t-119.5 17q-70 0 -121.5 -19.5t-76 -44t-39 -56.5t-17 -48t-2.5 -28q0 -80 56.5 -151.5t189.5 -158.5q61 -40 91 -60.5t76.5 -53.5t68.5 -52t51 -47.5t41 -50.5t21.5 -49t9.5 -55q0 -66 -38 -120t-73 -77zM575 -246q73 0 130 23.5
t89 60t48 74.5t16 74q0 49 -13.5 85.5t-45.5 69.5t-72.5 63.5t-107.5 75.5q-7 4 -10 6t-8.5 6t-10.5 7q-183 121 -240 171q-101 88 -111 182q-1 12 -1 24q0 87 55 149q27 35 55 52l-12 10l-8 -6q-8 -6 -18 -14.5t-22.5 -21.5t-24.5 -30.5t-22 -37.5t-16 -46.5t-6 -54.5
q0 -30 8 -58.5t19.5 -52t35 -49.5t44.5 -46t59 -48t67.5 -48.5t79.5 -54.5q33 -22 50 -34q7 -5 21 -14q133 -89 172 -128q62 -62 65 -146v-11q0 -33 -14.5 -68t-44 -69t-83.5 -56t-123 -22q-60 0 -106 13t-73.5 37t-41.5 42t-26.5 44t-12.5 27l-18 -4l3 -10q3 -9 11 -24.5
t20.5 -34.5t34 -38t49.5 -34.5t69.5 -25t90.5 -9.5z" />
    <glyph glyph-name="dieresis" unicode="&#xa8;" horiz-adv-x="784" 
d="M72 1137v256h266v-256h-266zM446 1137v256h267v-256h-267zM213 1219v84h-16v-84h16zM588 1219v84h-17v-84h17z" />
    <glyph glyph-name="copyright" unicode="&#xa9;" horiz-adv-x="1665" 
d="M1372 748q0 245 -153.5 403t-387.5 158t-386 -158t-152 -403t152 -402.5t386 -157.5t387.5 157.5t153.5 402.5zM1593 748q0 -155 -57.5 -294t-157.5 -241t-242.5 -161.5t-304.5 -59.5t-304.5 59.5t-241.5 161.5t-156 241t-57 294q0 208 96.5 381t271.5 274.5t391 101.5
t391 -101.5t273 -274.5t98 -381zM819 285q-97 0 -171 29.5t-118 75.5t-71.5 111t-37 126.5t-9.5 130.5q0 57 4.5 100.5t18.5 93.5t43 93.5t73 80.5v-2q54 47 120 65.5t158 18.5q158 0 310 -78l-15 -243h-180l-14 121q-54 14 -107 14q-168 0 -168 -231v-76q0 -244 168 -244
q44 0 65 3t48 15v127h209v-219q-92 -109 -326 -112z" />
    <glyph glyph-name="ordfeminine" unicode="&#xaa;" horiz-adv-x="784" 
d="M649 1020h70v-176h-174q-12 3 -27.5 15.5t-22.5 20t-26 27.5q-23 -26 -41.5 -40t-59.5 -26t-100 -12q-58 0 -99.5 18t-62.5 48t-30.5 61.5t-9.5 65.5q0 41 13 74.5t32.5 55t51.5 38t60 25.5t69 15t67 7.5t65 3.5v21q0 75 -59 75q-44 0 -99 -18l-14 -68h-148l-6 187
q160 63 295 63q256 0 256 -252v-229zM424 1028v68q-27 0 -45 -1.5t-42.5 -6.5t-37 -18t-12.5 -34q0 -47 53 -47q54 0 84 39zM68 635v127h651v-127h-651z" />
    <glyph glyph-name="guillemotleft" unicode="&#xab;" horiz-adv-x="1226" 
d="M1186 0h-318l-264 512l264 512h318l-264 -512zM623 0h-318l-264 512l264 512h318l-265 -512zM954 125h21l-199 387l195 383h-21l-194 -383zM391 125h21l-199 387l195 383h-21l-194 -383z" />
    <glyph glyph-name="logicalnot" unicode="&#xac;" horiz-adv-x="1165" 
d="M1040 1008v-566h-290v283h-639v283h929zM907 559v315h-649v-18h625v-297h24z" />
    <glyph glyph-name="uni00AD" unicode="&#xad;" horiz-adv-x="716" 
d="M655 670v-291h-594v291h594zM496 514v18h-281v-18h281z" />
    <glyph glyph-name="registered" unicode="&#xae;" horiz-adv-x="1665" 
d="M1593 748q0 -155 -57.5 -294t-157.5 -241t-242.5 -161.5t-304.5 -59.5t-304.5 59.5t-241.5 161.5t-156 241t-57 294q0 208 96.5 381t271.5 274.5t391 101.5t391 -101.5t273 -274.5t98 -381zM1372 748q0 245 -153.5 403t-387.5 158q-209 0 -350 -123h393q62 0 112.5 -11.5
t83 -28.5t56.5 -42.5t36.5 -48.5t19.5 -51t8.5 -46t1.5 -38q0 -190 -184 -222l125 -219h77v-143q162 162 162 412zM471 1014v162q-178 -155 -178 -428q0 -129 44.5 -237t125.5 -183v151h72v535h-64zM838 307h-353q144 -119 346 -119q203 0 347 119h-187l-229 410v-238h76
v-172zM762 1014v-219h92q100 0 100 106q0 55 -20.5 84t-81.5 29h-90z" />
    <glyph glyph-name="macron" unicode="&#xaf;" horiz-adv-x="880" 
d="M102 1167v205h676v-205h-676zM645 1262v16h-409v-16h409z" />
    <glyph glyph-name="degree" unicode="&#xb0;" horiz-adv-x="966" 
d="M885 1094q0 -165 -117.5 -279.5t-284.5 -114.5q-166 0 -283.5 114.5t-117.5 279.5t117 279t284 114t284.5 -114t117.5 -279zM213 1094q0 -112 76 -192.5t192 -80.5q118 0 196.5 79t78.5 194t-78 191.5t-197 76.5q-117 0 -192.5 -78t-75.5 -190zM231 1094
q0 107 71.5 180.5t178.5 73.5q110 0 184 -72.5t74 -181.5q0 -108 -74 -182t-184 -74q-106 0 -178 76t-72 180zM616 1094q0 56 -39 96.5t-94 40.5t-94 -40.5t-39 -96.5t39 -97t94 -41t94 41t39 97z" />
    <glyph glyph-name="plusminus" unicode="&#xb1;" horiz-adv-x="1251" 
d="M113 745v281h370v358h295v-358h361v-281h-361v-358h-295v358h-370zM113 0v281h1026v-281h-1026zM508 874v19h-264v-19h264zM1020 131v19h-776v-19h776zM1024 874v19h-383v373h-20v-803h20v411h383z" />
    <glyph glyph-name="twosuperior" unicode="&#xb2;" horiz-adv-x="788" 
d="M303 1124l-229 6q0 64 2 72v-2q4 76 32.5 133.5t74 89.5t96.5 47t108 15q149 0 230 -69.5t81 -184.5q0 -38 -15 -80t-34.5 -75.5t-57 -80.5t-64 -75t-76 -80.5t-72.5 -77.5h131q14 63 20 94h197v-276h-633l-14 159l299 338q74 77 74 152q0 28 -20 47.5t-44 19.5
q-86 0 -86 -127v-45z" />
    <glyph glyph-name="threesuperior" unicode="&#xb3;" horiz-adv-x="745" 
d="M285 1198h-215q0 80 28 139.5t74 91t95 46t102 14.5q138 0 219.5 -64t81.5 -180q0 -38 -24 -88.5t-73 -83.5q64 -30 100 -88.5t36 -122.5q0 -129 -85 -209t-262 -80q-305 0 -305 283l215 27q1 -58 27 -91.5t63 -33.5q97 0 97 98q0 47 -27.5 76t-69.5 29h-81l-2 178
q79 0 118 21.5t39 80.5q0 66 -71 66q-32 0 -54 -26.5t-26 -82.5z" />
    <glyph glyph-name="acute" unicode="&#xb4;" horiz-adv-x="712" 
d="M641 1403l-299 -277h-270l231 277h338zM270 1198l136 125h-31z" />
    <glyph glyph-name="mu" unicode="&#xb5;" horiz-adv-x="1193" 
d="M483 -356h-360v1380h360v-563q0 -31 0.5 -48t5.5 -49t14.5 -49.5t29.5 -32t49 -14.5q95 0 149 78v678h361v-1024h-289l-25 96q-2 -2 -24 -22t-31 -26.5t-34.5 -23t-47.5 -23t-57 -13t-74 -6.5h-27v-338zM293 -217h20v491q45 -159 228 -159q79 0 136.5 35t78.5 81
q-90 -98 -215 -98q-228 0 -228 287v473h-20v-1110zM901 137h21v756h-21v-756z" />
    <glyph glyph-name="paragraph" unicode="&#xb6;" 
d="M1155 -356h-268v1527h-187v-1527h-268v987q-69 0 -139.5 33t-126 88.5t-90.5 136.5t-35 170q0 110 38 195t106 137.5t159 79t201 26.5h610v-1853zM578 1323h432v-1548h18v1564h-469q-150 0 -227.5 -76t-77.5 -204q0 -82 27.5 -139.5t74.5 -86.5t96.5 -41t106.5 -12v-1005
h19v1548zM559 1323v-524q-143 0 -213 69t-70 191q0 129 77 196.5t206 67.5z" />
    <glyph glyph-name="periodcentered" unicode="&#xb7;" horiz-adv-x="630" 
d="M496 471h-361v342h361v-342zM328 592v96h-21v-96h21z" />
    <glyph glyph-name="cedilla" unicode="&#xb8;" horiz-adv-x="688" 
d="M102 -426v104q10 0 41.5 -1t51.5 -1t50 3t48.5 10t33.5 21.5t17 35.5q6 46 -37 72t-114 26h-41l43 90q82 13 133 13q122 0 190 -58t68 -131q0 -111 -82.5 -166t-210.5 -55q-113 0 -191 37zM297 -387q69 -5 122.5 35t53.5 104q0 41 -24 69t-58 40q66 -35 66 -109
q0 -55 -44 -94t-116 -45z" />
    <glyph glyph-name="onesuperior" unicode="&#xb9;" horiz-adv-x="675" 
d="M424 1483l31 -29v-692h141v-182h-522v182h145v481q-50 -15 -145 -37v189z" />
    <glyph glyph-name="ordmasculine" unicode="&#xba;" horiz-adv-x="759" 
d="M381 1503q79 0 139.5 -22t95 -55.5t56 -80t28.5 -89t7 -89.5q0 -46 -7.5 -88t-29.5 -88t-56.5 -79.5t-94.5 -55.5t-138 -22t-137.5 21.5t-95 54.5t-57.5 78.5t-30 88.5t-8 90q0 48 8 91.5t30.5 89.5t58 79.5t95 54.5t136.5 21zM381 1010q49 0 68.5 37.5t19.5 119.5
q0 85 -19.5 122.5t-68.5 37.5q-50 0 -70 -38t-20 -122q0 -81 20.5 -119t69.5 -38zM53 614v148h652v-148h-652z" />
    <glyph glyph-name="guillemotright" unicode="&#xbb;" horiz-adv-x="1226" 
d="M41 1024h317l265 -512l-265 -512h-317l264 512zM604 1024h318l264 -512l-264 -512h-318l264 512zM272 899h-20l199 -387l-195 -383h20l195 383zM836 899h-21l199 -387l-195 -383h21l194 383z" />
    <glyph glyph-name="onequarter" unicode="&#xbc;" horiz-adv-x="1781" 
d="M1325 885h262v-465h88v-168h-88v-74h80v-178h-428v178h113v74h-324l-35 149zM1352 616l-13 -32l-108 -164h121v196zM465 1483l31 -29v-692h141v-182h-522v182h145v481q-50 -15 -145 -37v189zM1161 1468h234l-725 -1468h-234z" />
    <glyph glyph-name="onehalf" unicode="&#xbd;" horiz-adv-x="1781" 
d="M432 1483l31 -29v-692h141v-182h-522v182h145v481q-50 -15 -145 -37v189zM1329 547l-229 6q0 64 2 72v-2q4 76 32.5 133.5t74 89t96.5 46.5t108 15q149 0 230 -69.5t81 -184.5q0 -38 -15 -80t-34.5 -75.5t-57 -80.5t-64 -75t-76 -80.5t-72.5 -77.5h131q13 56 20 95h197
v-277h-633l-14 160l299 338q74 77 74 151q0 28 -20 48t-44 20q-86 0 -86 -127v-45zM1149 1468h233l-725 -1468h-233z" />
    <glyph glyph-name="threequarters" unicode="&#xbe;" horiz-adv-x="1781" 
d="M1165 1468h234l-725 -1468h-234zM1329 885h262v-465h88v-168h-88v-74h80v-178h-428v178h113v74h-324l-35 149zM1356 616l-13 -32l-108 -164h121v196zM289 1198h-215q0 80 28 139.5t74 91t95 46t102 14.5q138 0 219.5 -64t81.5 -180q0 -39 -23.5 -89t-72.5 -83
q64 -30 99.5 -88.5t35.5 -122.5q0 -130 -84.5 -209.5t-261.5 -79.5q-306 0 -306 283l215 27q1 -58 27.5 -91.5t63.5 -33.5q96 0 96 98q0 47 -27 76t-69 29h-82l-2 178q79 0 118 21.5t39 80.5q0 66 -71 66q-32 0 -54 -26.5t-26 -82.5z" />
    <glyph glyph-name="questiondown" unicode="&#xbf;" horiz-adv-x="1107" 
d="M1047 0v-264q-39 -75 -119.5 -130.5t-170.5 -80.5t-179 -25q-234 0 -375.5 116t-141.5 331q0 71 23 134t62.5 108t90.5 78t107.5 50t114.5 19l35 188h231l23 -395q-77 -2 -134 -14t-90 -29t-53 -41t-26.5 -46.5t-6.5 -49.5q0 -20 3.5 -39.5t13.5 -41.5t25.5 -38t43 -26.5
t62.5 -10.5q44 0 82 16t57 41l47 150h275zM610 371h-8l-10 -123q-67 0 -128.5 -18t-113 -53t-82 -94.5t-30.5 -135.5q0 -134 95.5 -218.5t248.5 -84.5q94 0 181 40.5t134 118.5v88h-18v-81q-10 -18 -30 -39.5t-55 -48t-91 -43.5t-121 -17q-149 0 -235.5 79.5t-86.5 205.5
q0 54 20 103t61 90t111 65t162 24zM428 1024h360v-342h-360v342zM594 901v-96h20v96h-20z" />
    <glyph glyph-name="Agrave" unicode="&#xc0;" horiz-adv-x="1665" 
d="M1137 1337v21h-619v-21h174l-381 -1179h-121v-21h396v21h-248l379 1179h190l242 -731h-508l-4 -20h518l141 -428h-266v-21h447v21h-154l-391 1179h205zM1616 295v-295h-725v295h188l-57 174h-416l-49 -174h168v-295h-674v295h148l301 905h-121v295h897v-295h-121
l301 -905h160zM795 1200h-7v-88l-110 -389h256zM776 1597l-299 277h338l232 -277h-271zM713 1794l135 -125l-105 125h-30z" />
    <glyph glyph-name="Aacute" unicode="&#xc1;" horiz-adv-x="1665" 
d="M1137 1337v21h-619v-21h174l-381 -1179h-121v-21h396v21h-248l379 1179h190l242 -731h-508l-4 -20h518l141 -428h-266v-21h447v21h-154l-391 1179h205zM1616 295v-295h-725v295h188l-57 174h-416l-49 -174h168v-295h-674v295h148l301 905h-121v295h897v-295h-121
l301 -905h160zM795 1200h-7v-88l-110 -389h256zM1174 1874l-300 -277h-270l232 277h338zM803 1669l135 125h-31z" />
    <glyph glyph-name="Acircumflex" unicode="&#xc2;" horiz-adv-x="1665" 
d="M1137 1337v21h-619v-21h174l-381 -1179h-121v-21h396v21h-248l379 1179h190l242 -731h-508l-4 -20h518l141 -428h-266v-21h447v21h-154l-391 1179h205zM1616 295v-295h-725v295h188l-57 174h-416l-49 -174h168v-295h-674v295h148l301 905h-121v295h897v-295h-121
l301 -905h160zM795 1200h-7v-88l-110 -389h256zM952 1597l-131 125l-131 -125h-270l231 277h340l232 -277h-271zM725 1792l-107 -127l134 127h-27zM1026 1665l-106 127h-27z" />
    <glyph glyph-name="Atilde" unicode="&#xc3;" horiz-adv-x="1665" 
d="M1137 1337v21h-619v-21h174l-381 -1179h-121v-21h396v21h-248l379 1179h190l242 -731h-508l-4 -20h518l141 -428h-266v-21h447v21h-154l-391 1179h205zM1616 295v-295h-725v295h188l-57 174h-416l-49 -174h168v-295h-674v295h148l301 905h-121v295h897v-295h-121
l301 -905h160zM795 1200h-7v-88l-110 -389h256zM668 1901q82 0 176 -54q68 -37 98 -37q19 0 33 4t42.5 25t67.5 62l142 -154q-93 -85 -150.5 -116.5t-126.5 -31.5q-82 0 -176 54q-68 37 -98 37q-20 0 -33.5 -3.5t-43 -25t-67.5 -62.5l-141 154q93 85 150.5 116.5t126.5 31.5
zM672 1786q25 0 67 -10q-39 20 -71 20q-71 0 -129 -53l10 -12q60 55 123 55zM956 1706q-25 0 -67 10q39 -20 72 -20q71 0 129 53l-11 12q-60 -55 -123 -55z" />
    <glyph glyph-name="Adieresis" unicode="&#xc4;" horiz-adv-x="1665" 
d="M1137 1337v21h-619v-21h174l-381 -1179h-121v-21h396v21h-248l379 1179h190l242 -731h-508l-4 -20h518l141 -428h-266v-21h447v21h-154l-391 1179h205zM1616 295v-295h-725v295h188l-57 174h-416l-49 -174h168v-295h-674v295h148l301 905h-121v295h897v-295h-121
l301 -905h160zM795 1200h-7v-88l-110 -389h256zM516 1608v256h266v-256h-266zM891 1608v256h266v-256h-266zM657 1690v84h-16v-84h16zM1032 1690v84h-16v-84h16z" />
    <glyph glyph-name="Aring" unicode="&#xc5;" horiz-adv-x="1665" 
d="M1137 1337v21h-619v-21h174l-381 -1179h-121v-21h396v21h-248l379 1179h190l242 -731h-508l-4 -20h518l141 -428h-266v-21h447v21h-154l-391 1179h205zM1616 295v-295h-725v295h188l-57 174h-416l-49 -174h168v-295h-674v295h148l301 905h-121v295h897v-295h-121
l301 -905h160zM795 1200h-7v-88l-110 -389h256zM553 1790q0 120 72.5 181t185.5 61q117 0 190.5 -61t73.5 -181q0 -110 -74 -168.5t-190 -58.5q-114 0 -186 58t-72 169zM729 1798q0 -40 20 -66t62 -26q46 0 67 25.5t21 66.5q0 90 -88 90q-42 0 -62 -25t-20 -65zM977 1794
q0 -54 -29 -102q45 33 45 102t-45 102q29 -48 29 -102zM649 1794q0 54 29 102q-45 -33 -45 -102t45 -102q-29 48 -29 102z" />
    <glyph glyph-name="AE" unicode="&#xc6;" horiz-adv-x="2097" 
d="M879 0v295h135v174h-393l-97 -174h203v-295h-686v295h137l506 905h-143v295h1454v-455h-293l-23 160h-276v-295h313v-276h-313v-334h291v192h331v-487h-1146zM762 723h252v477h-6l-19 -70zM588 137v21h-295l655 1179h248v-731h-502l-10 -20h512v-428h-197v-21h871v219
h-27v-198h-622v598h356v20h-356v561h602v-172h24v193h-1167v-21h242l-656 -1179h-86v-21h408z" />
    <glyph glyph-name="Ccedilla" unicode="&#xc7;" horiz-adv-x="1359" 
d="M756 113q218 0 370 114v201h-26v-190q-61 -42 -109 -62q-105 -43 -235 -43q-304 0 -420 242q-66 141 -66 379q0 58 2.5 104.5t14 111t30.5 114t55.5 102t86.5 86.5t125.5 56t169.5 22q178 0 327 -64l2 -182h25v199q-156 67 -354 67q-98 0 -177 -22t-131.5 -57t-90.5 -88
t-58.5 -104t-32.5 -117.5t-15 -116t-3 -111.5q0 -49 1 -79t6.5 -87.5t20 -112t37.5 -104.5q126 -258 445 -258zM754 -27q-701 0 -701 775q0 81 4 142t18 134t38.5 131t68 118t103.5 109q170 140 469 140q143 -5 264.5 -34t253.5 -91l-23 -414h-309l-25 201q-13 2 -41.5 9
t-56 11t-63.5 4q-291 0 -291 -393v-135q0 -77 13 -141.5t43.5 -124t90 -93.5t144.5 -34q112 0 178 30v242h350v-395q-119 -107 -239 -149t-289 -42zM438 -426v104q10 0 41.5 -1t51.5 -1t50 3t48.5 10t33.5 21.5t17 35.5q6 46 -37 72t-115 26h-41l43 90q82 13 134 13
q122 0 190 -58t68 -131q0 -111 -82.5 -166t-210.5 -55q-113 0 -191 37zM633 -387q69 -5 122.5 35t53.5 104q0 41 -24 69t-58 40q66 -35 66 -109q0 -55 -44 -94t-116 -45z" />
    <glyph glyph-name="Egrave" unicode="&#xc8;" 
d="M778 756v20h-356v561h602v-172h25v193h-848v-21h196v-1179h-196v-21h870v219h-27v-198h-622v598h356zM918 629h-314v-334h291v192h332v-487h-1166v295h154v905h-154v295h1135v-455h-293l-22 160h-277v-295h314v-276zM610 1597l-299 277h338l232 -277h-271zM547 1794
l135 -125l-104 125h-31z" />
    <glyph glyph-name="Eacute" unicode="&#xc9;" 
d="M778 756v20h-356v561h602v-172h25v193h-848v-21h196v-1179h-196v-21h870v219h-27v-198h-622v598h356zM918 629h-314v-334h291v192h332v-487h-1166v295h154v905h-154v295h1135v-455h-293l-22 160h-277v-295h314v-276zM1006 1874l-299 -277h-271l232 277h338zM635 1669
l135 125h-31z" />
    <glyph glyph-name="Ecircumflex" unicode="&#xca;" 
d="M778 756v20h-356v561h602v-172h25v193h-848v-21h196v-1179h-196v-21h870v219h-27v-198h-622v598h356zM918 629h-314v-334h291v192h332v-487h-1166v295h154v905h-154v295h1135v-455h-293l-22 160h-277v-295h314v-276zM780 1597l-131 125l-131 -125h-270l231 277h340
l232 -277h-271zM553 1792l-107 -127l134 127h-27zM854 1665l-106 127h-27z" />
    <glyph glyph-name="Edieresis" unicode="&#xcb;" 
d="M778 756v20h-356v561h602v-172h25v193h-848v-21h196v-1179h-196v-21h870v219h-27v-198h-622v598h356zM918 629h-314v-334h291v192h332v-487h-1166v295h154v905h-154v295h1135v-455h-293l-22 160h-277v-295h314v-276zM322 1608v256h266v-256h-266zM696 1608v256h267v-256
h-267zM463 1690v84h-17v-84h17zM838 1690v84h-17v-84h17z" />
    <glyph glyph-name="Igrave" unicode="&#xcc;" horiz-adv-x="860" 
d="M664 1337v21h-453v-21h215v-1179h-221v-21h463v21h-217v1179h213zM72 1495h731v-295h-170v-905h174v-295h-741v295h178v905h-172v295zM358 1597l-299 277h338l232 -277h-271zM295 1794l135 -125l-104 125h-31z" />
    <glyph glyph-name="Iacute" unicode="&#xcd;" horiz-adv-x="868" 
d="M664 1337v21h-453v-21h215v-1179h-221v-21h463v21h-217v1179h213zM72 1495h731v-295h-170v-905h174v-295h-741v295h178v905h-172v295zM786 1874l-299 -277h-270l232 277h337zM416 1669l135 125h-31z" />
    <glyph glyph-name="Icircumflex" unicode="&#xce;" horiz-adv-x="860" 
d="M664 1337v21h-453v-21h215v-1179h-221v-21h463v21h-217v1179h213zM72 1495h731v-295h-170v-905h174v-295h-741v295h178v905h-172v295zM543 1597l-131 125l-131 -125h-271l232 277h340l231 -277h-270zM315 1792l-106 -127l133 127h-27zM616 1665l-106 127h-27z" />
    <glyph glyph-name="Idieresis" unicode="&#xcf;" horiz-adv-x="860" 
d="M664 1337v21h-453v-21h215v-1179h-221v-21h463v21h-217v1179h213zM72 1495h731v-295h-170v-905h174v-295h-741v295h178v905h-172v295zM117 1608v256h266v-256h-266zM492 1608v256h266v-256h-266zM258 1690v84h-16v-84h16zM633 1690v84h-17v-84h17z" />
    <glyph glyph-name="Eth" unicode="&#xd0;" horiz-adv-x="1482" 
d="M82 645v225h123v330h-144v295h656q161 0 275 -25t210 -100q60 -47 102.5 -107t65.5 -116.5t36 -130.5t16 -131t3 -137q0 -95 -8 -170t-31 -159.5t-72.5 -159t-123.5 -134.5q-88 -73 -192 -99t-259 -26h-676v295h142v350h-123zM193 748h194v-590h-184v-21h526
q145 0 245 41t156.5 122.5t80.5 188.5t24 254q0 149 -26 258.5t-85 191.5t-160.5 123.5t-246.5 41.5h-516v-21h186v-569h-194v-20zM412 748h252v20h-252v569h305q263 0 377 -148t114 -446q0 -69 -4.5 -125.5t-17.5 -118.5t-34.5 -110t-58 -92.5t-86 -74t-120 -47
t-158.5 -17.5h-317v590zM778 645h-184v-350h123q299 0 299 399v127q0 379 -301 379h-121v-330h184v-225z" />
    <glyph glyph-name="Ntilde" unicode="&#xd1;" horiz-adv-x="1628" 
d="M1239 131h33v1206h164v21h-365v-21h176v-1173l-792 1194h-250v-21h180v-1179h-182v-21h379v21h-172v1179h28zM1069 651h6v549h-143v295h643v-295h-141v-1200h-304l-555 842v-547h146v-295h-658v295h154v905h-151v295h475l508 -770zM674 1901q82 0 176 -54q68 -37 98 -37
q20 0 33.5 3.5t43 25t67.5 62.5l141 -154q-93 -85 -150.5 -116.5t-126.5 -31.5q-82 0 -176 54q-68 37 -98 37q-19 0 -33 -4t-42.5 -25t-67.5 -62l-142 154q93 85 150.5 116.5t126.5 31.5zM678 1786q25 0 67 -10q-39 20 -71 20q-71 0 -129 -53l10 -12q60 55 123 55zM963 1706
q-26 0 -68 10q39 -20 72 -20q71 0 129 53l-11 12q-60 -55 -122 -55z" />
    <glyph glyph-name="Ograve" unicode="&#xd2;" horiz-adv-x="1507" 
d="M756 121q194 0 309 82q201 154 201 547q0 624 -514 624q-135 0 -234.5 -47.5t-158.5 -133.5t-87 -196.5t-28 -246.5q0 -391 202 -547q109 -82 310 -82zM752 1354q489 0 489 -604q0 -98 -13.5 -181t-33.5 -141.5t-52.5 -105.5t-63 -76.5t-72 -50.5t-71.5 -31t-70.5 -16
t-60 -6.5t-48.5 -0.5t-48.5 0.5t-60.5 6.5t-70.5 16t-71.5 31t-72 50.5t-63 76.5t-53 105.5t-33.5 141.5t-13.5 181q0 99 14.5 184.5t49.5 164.5t88.5 134t138 88t191.5 33zM768 -27h-29q-139 2 -250.5 32t-203.5 108q-60 49 -103.5 109t-68 117.5t-38.5 130.5t-18 134.5
t-4 143.5q0 81 4 142t18 134t38.5 131t68 118t103.5 109q170 140 469 140t469 -140q75 -61 123 -134.5t70.5 -159.5t30 -161.5t7.5 -178.5q0 -81 -4 -142t-18 -134.5t-38 -131.5t-67.5 -118t-103.5 -109q-171 -140 -455 -140zM463 815v-135q0 -393 291 -393q290 0 290 393
v135q0 393 -290 393q-291 0 -291 -393zM666 1597l-299 277h338l231 -277h-270zM602 1794l135 -125l-104 125h-31z" />
    <glyph glyph-name="Oacute" unicode="&#xd3;" horiz-adv-x="1507" 
d="M756 121q194 0 309 82q201 154 201 547q0 624 -514 624q-135 0 -234.5 -47.5t-158.5 -133.5t-87 -196.5t-28 -246.5q0 -391 202 -547q109 -82 310 -82zM752 1354q489 0 489 -604q0 -98 -13.5 -181t-33.5 -141.5t-52.5 -105.5t-63 -76.5t-72 -50.5t-71.5 -31t-70.5 -16
t-60 -6.5t-48.5 -0.5t-48.5 0.5t-60.5 6.5t-70.5 16t-71.5 31t-72 50.5t-63 76.5t-53 105.5t-33.5 141.5t-13.5 181q0 99 14.5 184.5t49.5 164.5t88.5 134t138 88t191.5 33zM768 -27h-29q-139 2 -250.5 32t-203.5 108q-60 49 -103.5 109t-68 117.5t-38.5 130.5t-18 134.5
t-4 143.5q0 81 4 142t18 134t38.5 131t68 118t103.5 109q170 140 469 140t469 -140q75 -61 123 -134.5t70.5 -159.5t30 -161.5t7.5 -178.5q0 -81 -4 -142t-18 -134.5t-38 -131.5t-67.5 -118t-103.5 -109q-171 -140 -455 -140zM463 815v-135q0 -393 291 -393q290 0 290 393
v135q0 393 -290 393q-291 0 -291 -393zM1063 1874l-299 -277h-270l231 277h338zM692 1669l135 125h-30z" />
    <glyph glyph-name="Ocircumflex" unicode="&#xd4;" horiz-adv-x="1507" 
d="M756 121q194 0 309 82q201 154 201 547q0 624 -514 624q-135 0 -234.5 -47.5t-158.5 -133.5t-87 -196.5t-28 -246.5q0 -391 202 -547q109 -82 310 -82zM752 1354q489 0 489 -604q0 -98 -13.5 -181t-33.5 -141.5t-52.5 -105.5t-63 -76.5t-72 -50.5t-71.5 -31t-70.5 -16
t-60 -6.5t-48.5 -0.5t-48.5 0.5t-60.5 6.5t-70.5 16t-71.5 31t-72 50.5t-63 76.5t-53 105.5t-33.5 141.5t-13.5 181q0 99 14.5 184.5t49.5 164.5t88.5 134t138 88t191.5 33zM768 -27h-29q-139 2 -250.5 32t-203.5 108q-60 49 -103.5 109t-68 117.5t-38.5 130.5t-18 134.5
t-4 143.5q0 81 4 142t18 134t38.5 131t68 118t103.5 109q170 140 469 140t469 -140q75 -61 123 -134.5t70.5 -159.5t30 -161.5t7.5 -178.5q0 -81 -4 -142t-18 -134.5t-38 -131.5t-67.5 -118t-103.5 -109q-171 -140 -455 -140zM463 815v-135q0 -393 291 -393q290 0 290 393
v135q0 393 -290 393q-291 0 -291 -393zM870 1597l-131 125l-131 -125h-270l231 277h340l232 -277h-271zM643 1792l-106 -127l133 127h-27zM944 1665l-106 127h-27z" />
    <glyph glyph-name="Otilde" unicode="&#xd5;" horiz-adv-x="1507" 
d="M756 121q194 0 309 82q201 154 201 547q0 624 -514 624q-135 0 -234.5 -47.5t-158.5 -133.5t-87 -196.5t-28 -246.5q0 -391 202 -547q109 -82 310 -82zM752 1354q489 0 489 -604q0 -98 -13.5 -181t-33.5 -141.5t-52.5 -105.5t-63 -76.5t-72 -50.5t-71.5 -31t-70.5 -16
t-60 -6.5t-48.5 -0.5t-48.5 0.5t-60.5 6.5t-70.5 16t-71.5 31t-72 50.5t-63 76.5t-53 105.5t-33.5 141.5t-13.5 181q0 99 14.5 184.5t49.5 164.5t88.5 134t138 88t191.5 33zM768 -27h-29q-139 2 -250.5 32t-203.5 108q-60 49 -103.5 109t-68 117.5t-38.5 130.5t-18 134.5
t-4 143.5q0 81 4 142t18 134t38.5 131t68 118t103.5 109q170 140 469 140t469 -140q75 -61 123 -134.5t70.5 -159.5t30 -161.5t7.5 -178.5q0 -81 -4 -142t-18 -134.5t-38 -131.5t-67.5 -118t-103.5 -109q-171 -140 -455 -140zM463 815v-135q0 -393 291 -393q290 0 290 393
v135q0 393 -290 393q-291 0 -291 -393zM612 1901q82 0 176 -54q68 -37 99 -37q19 0 33 4t42.5 25t67.5 62l141 -154q-93 -85 -150 -116.5t-126 -31.5q-82 0 -176 54q-68 37 -98 37q-20 0 -33.5 -3.5t-43 -25t-67.5 -62.5l-141 154q93 85 150 116.5t126 31.5zM616 1786
q26 0 68 -10q-39 20 -72 20q-71 0 -129 -53l11 -12q60 55 122 55zM901 1706q-25 0 -67 10q39 -20 71 -20q71 0 129 53l-10 12q-60 -55 -123 -55z" />
    <glyph glyph-name="Odieresis" unicode="&#xd6;" horiz-adv-x="1507" 
d="M756 121q194 0 309 82q201 154 201 547q0 624 -514 624q-135 0 -234.5 -47.5t-158.5 -133.5t-87 -196.5t-28 -246.5q0 -391 202 -547q109 -82 310 -82zM752 1354q489 0 489 -604q0 -98 -13.5 -181t-33.5 -141.5t-52.5 -105.5t-63 -76.5t-72 -50.5t-71.5 -31t-70.5 -16
t-60 -6.5t-48.5 -0.5t-48.5 0.5t-60.5 6.5t-70.5 16t-71.5 31t-72 50.5t-63 76.5t-53 105.5t-33.5 141.5t-13.5 181q0 99 14.5 184.5t49.5 164.5t88.5 134t138 88t191.5 33zM768 -27h-29q-139 2 -250.5 32t-203.5 108q-60 49 -103.5 109t-68 117.5t-38.5 130.5t-18 134.5
t-4 143.5q0 81 4 142t18 134t38.5 131t68 118t103.5 109q170 140 469 140t469 -140q75 -61 123 -134.5t70.5 -159.5t30 -161.5t7.5 -178.5q0 -81 -4 -142t-18 -134.5t-38 -131.5t-67.5 -118t-103.5 -109q-171 -140 -455 -140zM463 815v-135q0 -393 291 -393q290 0 290 393
v135q0 393 -290 393q-291 0 -291 -393zM436 1608v256h266v-256h-266zM811 1608v256h266v-256h-266zM578 1690v84h-17v-84h17zM952 1690v84h-16v-84h16z" />
    <glyph glyph-name="multiply" unicode="&#xd7;" horiz-adv-x="1300" 
d="M666 645l323 318l-16 18l-324 -322l-311 318l-19 -16l654 -660l18 12q-49 50 -162.5 166t-162.5 166zM334 299l233 244l-16 16l-234 -244zM1178 319l-205 -204l-324 323l-321 -323l-205 204l323 324l-323 326l205 202l321 -323l324 323l205 -202l-324 -326z" />
    <glyph glyph-name="Oslash" unicode="&#xd8;" horiz-adv-x="1509" 
d="M743 -29q-199 0 -323 58l-78 -138h-172l125 218q-63 49 -109 111t-71 121.5t-39.5 135.5t-18.5 137.5t-4 143.5q0 77 4 137t18 132t38.5 129.5t68 118t103.5 109.5q98 83 201 111.5t278 28.5q191 0 311 -51l72 124h172l-115 -200q65 -49 112 -111.5t73.5 -123.5t42 -137
t20 -140t4.5 -144t-8.5 -154t-31 -152.5t-57.5 -144.5t-91 -126t-128.5 -102t-174 -66.5t-222.5 -24.5zM1049 688v127q0 146 -43 236l-412 -721q64 -46 160 -49q295 9 295 407zM461 815v-127q0 -131 35 -227l407 710q-62 36 -151 39q-291 -6 -291 -395zM756 121
q194 0 309 82q201 154 201 547q0 624 -514 624q-135 0 -234.5 -47.5t-158.5 -133.5t-87 -196.5t-28 -246.5q0 -391 202 -547q109 -82 310 -82zM752 1354q489 0 489 -604q0 -98 -13.5 -181t-33.5 -141.5t-52.5 -105.5t-63 -76.5t-72 -50.5t-71.5 -31t-70.5 -16t-60 -6.5
t-48.5 -0.5t-48.5 0.5t-60.5 6.5t-70.5 16t-71.5 31t-72 50.5t-63 76.5t-53 105.5t-33.5 141.5t-13.5 181q0 99 14.5 184.5t49.5 164.5t88.5 134t138 88t191.5 33z" />
    <glyph glyph-name="Ugrave" unicode="&#xd9;" horiz-adv-x="1611" 
d="M1419 1337v21h-415v-21h223v-645q0 -72 -3.5 -128.5t-14.5 -116t-30 -103.5t-50 -84t-73.5 -65t-102.5 -39.5t-136 -14.5q-103 0 -177.5 26t-120.5 71t-73.5 117t-37 151t-9.5 186v645h185v21h-391v-21h182v-645q0 -74 4 -132t15.5 -119.5t31.5 -107t53 -87.5t79 -68
t111.5 -41.5t147.5 -15.5q107 0 184 26t125 71t76 119t38.5 157t10.5 198v645h168zM827 -29h-22q-155 0 -259 32.5t-188 119.5q-46 46 -78.5 100.5t-49 101.5t-25.5 112.5t-10.5 111t-1.5 121.5v530h-140v295h670v-295h-141v-493q0 -64 2.5 -111t10.5 -98.5t24.5 -86
t41.5 -64t64.5 -44t91.5 -14.5q44 0 79 12t59.5 31.5t42 51.5t28 64t17 79t9 86t3.5 94v493h-191v295h695v-295h-136v-528q0 -75 -4.5 -136t-19 -136t-39.5 -133t-70.5 -115.5t-106.5 -95.5t-152 -61.5t-204 -23.5zM745 1597l-299 277h338l232 -277h-271zM682 1794l135 -125
l-104 125h-31z" />
    <glyph glyph-name="Uacute" unicode="&#xda;" horiz-adv-x="1609" 
d="M1419 1337v21h-415v-21h223v-645q0 -72 -3.5 -128.5t-14.5 -116t-30 -103.5t-50 -84t-73.5 -65t-102.5 -39.5t-136 -14.5q-103 0 -177.5 26t-120.5 71t-73.5 117t-37 151t-9.5 186v645h185v21h-391v-21h182v-645q0 -74 4 -132t15.5 -119.5t31.5 -107t53 -87.5t79 -68
t111.5 -41.5t147.5 -15.5q107 0 184 26t125 71t76 119t38.5 157t10.5 198v645h168zM827 -29h-22q-155 0 -259 32.5t-188 119.5q-46 46 -78.5 100.5t-49 101.5t-25.5 112.5t-10.5 111t-1.5 121.5v530h-140v295h670v-295h-141v-493q0 -64 2.5 -111t10.5 -98.5t24.5 -86
t41.5 -64t64.5 -44t91.5 -14.5q44 0 79 12t59.5 31.5t42 51.5t28 64t17 79t9 86t3.5 94v493h-191v295h695v-295h-136v-528q0 -75 -4.5 -136t-19 -136t-39.5 -133t-70.5 -115.5t-106.5 -95.5t-152 -61.5t-204 -23.5zM1149 1874l-299 -277h-270l231 277h338zM778 1669l135 125
h-30z" />
    <glyph glyph-name="Ucircumflex" unicode="&#xdb;" horiz-adv-x="1609" 
d="M1419 1337v21h-415v-21h223v-645q0 -72 -3.5 -128.5t-14.5 -116t-30 -103.5t-50 -84t-73.5 -65t-102.5 -39.5t-136 -14.5q-103 0 -177.5 26t-120.5 71t-73.5 117t-37 151t-9.5 186v645h185v21h-391v-21h182v-645q0 -74 4 -132t15.5 -119.5t31.5 -107t53 -87.5t79 -68
t111.5 -41.5t147.5 -15.5q107 0 184 26t125 71t76 119t38.5 157t10.5 198v645h168zM827 -29h-22q-155 0 -259 32.5t-188 119.5q-46 46 -78.5 100.5t-49 101.5t-25.5 112.5t-10.5 111t-1.5 121.5v530h-140v295h670v-295h-141v-493q0 -64 2.5 -111t10.5 -98.5t24.5 -86
t41.5 -64t64.5 -44t91.5 -14.5q44 0 79 12t59.5 31.5t42 51.5t28 64t17 79t9 86t3.5 94v493h-191v295h695v-295h-136v-528q0 -75 -4.5 -136t-19 -136t-39.5 -133t-70.5 -115.5t-106.5 -95.5t-152 -61.5t-204 -23.5zM922 1597l-131 125l-132 -125h-270l232 277h340l231 -277
h-270zM694 1792l-106 -127l133 127h-27zM995 1665l-106 127h-27z" />
    <glyph glyph-name="Udieresis" unicode="&#xdc;" horiz-adv-x="1609" 
d="M1419 1337v21h-415v-21h223v-645q0 -72 -3.5 -128.5t-14.5 -116t-30 -103.5t-50 -84t-73.5 -65t-102.5 -39.5t-136 -14.5q-103 0 -177.5 26t-120.5 71t-73.5 117t-37 151t-9.5 186v645h185v21h-391v-21h182v-645q0 -74 4 -132t15.5 -119.5t31.5 -107t53 -87.5t79 -68
t111.5 -41.5t147.5 -15.5q107 0 184 26t125 71t76 119t38.5 157t10.5 198v645h168zM827 -29h-22q-155 0 -259 32.5t-188 119.5q-46 46 -78.5 100.5t-49 101.5t-25.5 112.5t-10.5 111t-1.5 121.5v530h-140v295h670v-295h-141v-493q0 -64 2.5 -111t10.5 -98.5t24.5 -86
t41.5 -64t64.5 -44t91.5 -14.5q44 0 79 12t59.5 31.5t42 51.5t28 64t17 79t9 86t3.5 94v493h-191v295h695v-295h-136v-528q0 -75 -4.5 -136t-19 -136t-39.5 -133t-70.5 -115.5t-106.5 -95.5t-152 -61.5t-204 -23.5zM471 1608v256h266v-256h-266zM846 1608v256h266v-256h-266
zM612 1690v84h-16v-84h16zM987 1690v84h-16v-84h16z" />
    <glyph glyph-name="Yacute" unicode="&#xdd;" horiz-adv-x="1595" 
d="M1411 1337v21h-387v-21h252l-479 -733v-446h-244v-21h508v21h-240v436q73 115 242.5 371.5t243.5 371.5h104zM721 748l12 24l-371 565h252v21h-421v-21h139zM754 1200h-111l182 -278l179 278h-119v295h665v-295h-161l-385 -588v-317h196v-295h-786v295h200v293l-403 612
h-158v295h701v-295zM1167 1874l-299 -277h-270l231 277h338zM797 1669l135 125h-31z" />
    <glyph glyph-name="Thorn" unicode="&#xde;" horiz-adv-x="1419" 
d="M629 819v-160q29 -30 80 -48.5t90 -18.5q17 0 32.5 2t39 11.5t41 25.5t31 47t15.5 74q0 47 -14.5 80.5t-39 49.5t-47.5 22.5t-48 6.5q-92 0 -180 -92zM240 295v905h-174v295h661v-295h-98v-80q64 41 131 62.5t164 21.5q53 0 107 -10.5t116.5 -42t109 -81t78 -135
t31.5 -196.5q0 -84 -19.5 -153.5t-50 -115t-74 -80t-85 -52.5t-89.5 -29.5t-81 -14.5t-66 -3q-144 0 -272 69v-65h108v-295h-665v295h168zM588 1337v21h-385v-21h219v-1179h-211v-21h387v21h-152v1179h142zM629 514v-25q107 -57 215 -57q76 0 134.5 18.5t95 48t59.5 71.5
t32 84.5t9 90.5q0 146 -82 230t-218 84q-64 0 -123 -16t-83 -28.5t-39 -23.5v-24q26 21 93.5 46t151.5 25q71 0 125.5 -25.5t86 -68.5t47.5 -93.5t16 -105.5q0 -145 -78.5 -218.5t-226.5 -73.5q-112 0 -215 61z" />
    <glyph glyph-name="germandbls" unicode="&#xdf;" horiz-adv-x="1396" 
d="M528 295h88v-295h-573v295h100v637q0 211 56 321q44 86 131 146.5t186.5 87t206.5 26.5q268 0 403.5 -108.5t135.5 -288.5q0 -111 -63.5 -178.5t-186.5 -120.5q151 -17 244.5 -115.5t93.5 -242.5q0 -196 -125.5 -327.5t-345.5 -131.5h-88l-76 295h71q168 0 168 172
q0 43 -18 76.5t-44 52.5t-59.5 31t-61 16t-52.5 4v246q67 6 113.5 49.5t46.5 104.5q0 178 -154 178q-113 0 -155 -74t-42 -258v-598zM975 928q100 64 100 172q0 27 -5.5 55.5t-27 69.5t-57 72t-104 53t-158.5 22q-211 0 -306 -114.5t-95 -335.5v-772h-154v-19h305v19h-129
v772q0 432 379 432q87 0 151.5 -21t98.5 -50.5t54 -69.5t25 -68.5t5 -57.5q0 -89 -82 -159zM815 754q41 -3 82 -13.5t85 -33.5t77.5 -55t55.5 -82.5t22 -112.5q0 -60 -13 -109t-32.5 -80t-47 -54.5t-52.5 -35t-53.5 -18.5t-45 -8.5t-31.5 -1.5l6 -19q146 0 219.5 93
t73.5 233q0 62 -21 113.5t-56 86t-80 57.5t-93 32.5t-96 7.5z" />
    <glyph glyph-name="agrave" unicode="&#xe0;" horiz-adv-x="1114" 
d="M958 131v19h-63q-82 54 -82 176v245q0 67 -3.5 109.5t-18 91.5t-41.5 76.5t-76.5 46t-120.5 18.5q-65 0 -140 -14.5t-114 -27t-59 -21.5v-109h24v97q133 57 289 57q76 0 124.5 -21t73.5 -66t33.5 -99.5t8.5 -137.5v-245q0 -79 26.5 -123t71.5 -72h67zM983 281h88v-281
h-252q-27 6 -63.5 37.5t-59.5 64.5q-36 -40 -65 -62t-93 -40t-157 -18q-74 0 -132 19.5t-93 50t-58 71.5t-32 80.5t-9 79.5q0 65 20.5 117.5t52 87.5t81.5 61t95.5 39.5t108.5 22.5t106 11.5t102 4.5v35q0 56 -18.5 89t-69.5 33q-85 0 -158 -30l-25 -107h-233l-10 297
q257 98 469 98q99 0 174 -25.5t118 -64.5t69.5 -94t35 -106t8.5 -109v-362zM623 295v115q-215 0 -215 -101q0 -37 24.5 -56.5t61.5 -19.5q83 0 129 62zM440 96q56 0 109.5 21t79.5 42l26 21l-6 19q-33 -30 -59 -43q-70 -41 -150 -41q-13 0 -26.5 1.5t-38 6t-44.5 17
t-39.5 30.5t-30.5 49.5t-11 71.5q0 52 20.5 90.5t54 61.5t83.5 37t101 19t114 5v20q-34 0 -57.5 -0.5t-69 -5.5t-77.5 -13t-71.5 -25.5t-64 -41.5t-41.5 -61.5t-17 -85.5q0 -92 57.5 -143.5t157.5 -51.5zM535 1126l-299 277h337l232 -277h-270zM471 1323l135 -125l-104 125
h-31z" />
    <glyph glyph-name="aacute" unicode="&#xe1;" horiz-adv-x="1110" 
d="M954 131v19h-63q-82 54 -82 176v245q0 67 -3.5 109.5t-18 91.5t-41.5 76.5t-76.5 46t-120.5 18.5q-65 0 -140 -14.5t-114 -27t-59 -21.5v-109h24v97q133 57 289 57q76 0 124.5 -21t73 -66.5t33 -99t8.5 -137.5v-245q0 -135 99 -195h67zM979 281h88v-281h-252
q-27 6 -63.5 37.5t-59.5 64.5q-36 -40 -65 -62t-93 -40t-157 -18q-74 0 -132 19.5t-93 50t-58 71.5t-32 80.5t-9 79.5q0 65 20.5 117.5t52 87.5t81.5 61t95 39.5t108 22.5t106 11.5t102 4.5v35q0 56 -18.5 89t-69.5 33q-84 0 -157 -30l-25 -107h-233l-11 297q257 98 469 98
q99 0 174 -25.5t118 -64.5t69.5 -94t35.5 -106t9 -109v-362zM618 295v115q-215 0 -215 -101q0 -37 24.5 -56.5t61.5 -19.5q83 0 129 62zM436 96q56 0 109.5 21t79.5 42l26 21l-6 19q-33 -30 -59 -43q-70 -41 -150 -41q-13 0 -26.5 1.5t-38 6t-44.5 17t-39.5 30.5t-30.5 49.5
t-11 71.5q0 52 20.5 90.5t53.5 61.5t83 37t101 19t114 5v20q-34 0 -57.5 -0.5t-68.5 -5.5t-77.5 -13t-71.5 -25.5t-63.5 -41.5t-41.5 -61.5t-17 -85.5q0 -92 57.5 -143.5t157.5 -51.5zM920 1403l-299 -277h-271l232 277h338zM549 1198l135 125h-31z" />
    <glyph glyph-name="acircumflex" unicode="&#xe2;" horiz-adv-x="1114" 
d="M958 131v19h-63q-82 54 -82 176v245q0 67 -3.5 109.5t-18 91.5t-41.5 76.5t-76.5 46t-120.5 18.5q-65 0 -140 -14.5t-114 -27t-59 -21.5v-109h24v97q133 57 289 57q76 0 124.5 -21t73.5 -66t33.5 -99.5t8.5 -137.5v-245q0 -79 26.5 -123t71.5 -72h67zM983 281h88v-281
h-252q-27 6 -63.5 37.5t-59.5 64.5q-36 -40 -65 -62t-93 -40t-157 -18q-74 0 -132 19.5t-93 50t-58 71.5t-32 80.5t-9 79.5q0 65 20.5 117.5t52 87.5t81.5 61t95.5 39.5t108.5 22.5t106 11.5t102 4.5v35q0 56 -18.5 89t-69.5 33q-85 0 -158 -30l-25 -107h-233l-10 297
q257 98 469 98q99 0 174 -25.5t118 -64.5t69.5 -94t35 -106t8.5 -109v-362zM623 295v115q-215 0 -215 -101q0 -37 24.5 -56.5t61.5 -19.5q83 0 129 62zM440 96q56 0 109.5 21t79.5 42l26 21l-6 19q-33 -30 -59 -43q-70 -41 -150 -41q-13 0 -26.5 1.5t-38 6t-44.5 17
t-39.5 30.5t-30.5 49.5t-11 71.5q0 52 20.5 90.5t54 61.5t83.5 37t101 19t114 5v20q-34 0 -57.5 -0.5t-69 -5.5t-77.5 -13t-71.5 -25.5t-64 -41.5t-41.5 -61.5t-17 -85.5q0 -92 57.5 -143.5t157.5 -51.5zM672 1126l-131 125l-131 -125h-271l232 277h340l231 -277h-270z
M444 1321l-106 -127l133 127h-27zM745 1194l-106 127h-27z" />
    <glyph glyph-name="atilde" unicode="&#xe3;" horiz-adv-x="1105" 
d="M948 131v19h-63q-82 54 -82 176v245q0 67 -3.5 109.5t-18 91.5t-41.5 76.5t-76.5 46t-120.5 18.5q-93 0 -184 -23t-130 -40v-109h25v97q133 57 289 57q76 0 124.5 -21t73 -66.5t33 -99t8.5 -137.5v-245q0 -135 99 -195h67zM973 281h88v-281h-252q-27 6 -63.5 37.5
t-59.5 64.5q-36 -40 -65 -62t-93 -40t-157 -18q-74 0 -132 19.5t-93 50t-58 71.5t-32 80.5t-9 79.5q0 65 20.5 117.5t52 87.5t81.5 61t95 39.5t108 22.5t106 11.5t102 4.5v35q0 56 -18.5 89t-69.5 33q-84 0 -157 -30l-25 -107h-233l-11 297q257 98 469 98q99 0 174 -25.5
t118 -64.5t69.5 -94t35.5 -106t9 -109v-362zM612 295v115q-215 0 -215 -101q0 -37 24.5 -56.5t61.5 -19.5q83 0 129 62zM430 96q56 0 109.5 21t79.5 42l26 21l-6 19q-33 -30 -59 -43q-70 -41 -150 -41q-13 0 -26.5 1.5t-38 6t-44.5 17t-39.5 30.5t-30.5 49.5t-11 71.5
q0 52 20.5 90.5t53.5 61.5t83 37t101 19t114 5v20q-34 0 -57.5 -0.5t-68.5 -5.5t-77.5 -13t-71.5 -25.5t-63.5 -41.5t-41.5 -61.5t-17 -85.5q0 -92 57.5 -143.5t157.5 -51.5zM430 1430q82 0 176 -54q68 -37 99 -37q19 0 33 4t42.5 25t67.5 62l141 -154q-93 -85 -150 -116.5
t-126 -31.5q-82 0 -176 54q-68 37 -99 37q-19 0 -33 -4t-42.5 -25t-67.5 -62l-141 154q93 85 150 116.5t126 31.5zM434 1315q26 0 68 -10q-39 20 -72 20q-71 0 -129 -53l10 -12q60 55 123 55zM719 1235q-26 0 -68 10q39 -20 72 -20q71 0 129 53l-10 12q-60 -55 -123 -55z
" />
    <glyph glyph-name="adieresis" unicode="&#xe4;" horiz-adv-x="1110" 
d="M954 131v19h-63q-82 54 -82 176v245q0 67 -3.5 109.5t-18 91.5t-41.5 76.5t-76.5 46t-120.5 18.5q-65 0 -140 -14.5t-114 -27t-59 -21.5v-109h24v97q133 57 289 57q76 0 124.5 -21t73 -66.5t33 -99t8.5 -137.5v-245q0 -135 99 -195h67zM979 281h88v-281h-252
q-27 6 -63.5 37.5t-59.5 64.5q-36 -40 -65 -62t-93 -40t-157 -18q-74 0 -132 19.5t-93 50t-58 71.5t-32 80.5t-9 79.5q0 65 20.5 117.5t52 87.5t81.5 61t95 39.5t108 22.5t106 11.5t102 4.5v35q0 56 -18.5 89t-69.5 33q-84 0 -157 -30l-25 -107h-233l-11 297q257 98 469 98
q99 0 174 -25.5t118 -64.5t69.5 -94t35.5 -106t9 -109v-362zM618 295v115q-215 0 -215 -101q0 -37 24.5 -56.5t61.5 -19.5q83 0 129 62zM436 96q56 0 109.5 21t79.5 42l26 21l-6 19q-33 -30 -59 -43q-70 -41 -150 -41q-13 0 -26.5 1.5t-38 6t-44.5 17t-39.5 30.5t-30.5 49.5
t-11 71.5q0 52 20.5 90.5t53.5 61.5t83 37t101 19t114 5v20q-34 0 -57.5 -0.5t-68.5 -5.5t-77.5 -13t-71.5 -25.5t-63.5 -41.5t-41.5 -61.5t-17 -85.5q0 -92 57.5 -143.5t157.5 -51.5zM233 1137v256h267v-256h-267zM608 1137v256h266v-256h-266zM375 1219v84h-17v-84h17z
M750 1219v84h-17v-84h17z" />
    <glyph glyph-name="aring" unicode="&#xe5;" horiz-adv-x="1110" 
d="M954 131v19h-63q-82 54 -82 176v245q0 67 -3.5 109.5t-18 91.5t-41.5 76.5t-76.5 46t-120.5 18.5q-65 0 -140 -14.5t-114 -27t-59 -21.5v-109h24v97q133 57 289 57q76 0 124.5 -21t73 -66.5t33 -99t8.5 -137.5v-245q0 -135 99 -195h67zM979 281h88v-281h-252
q-27 6 -63.5 37.5t-59.5 64.5q-36 -40 -65 -62t-93 -40t-157 -18q-74 0 -132 19.5t-93 50t-58 71.5t-32 80.5t-9 79.5q0 65 20.5 117.5t52 87.5t81.5 61t95 39.5t108 22.5t106 11.5t102 4.5v35q0 56 -18.5 89t-69.5 33q-84 0 -157 -30l-25 -107h-233l-11 297q257 98 469 98
q99 0 174 -25.5t118 -64.5t69.5 -94t35.5 -106t9 -109v-362zM618 295v115q-215 0 -215 -101q0 -37 24.5 -56.5t61.5 -19.5q83 0 129 62zM436 96q56 0 109.5 21t79.5 42l26 21l-6 19q-33 -30 -59 -43q-70 -41 -150 -41q-13 0 -26.5 1.5t-38 6t-44.5 17t-39.5 30.5t-30.5 49.5
t-11 71.5q0 52 20.5 90.5t53.5 61.5t83 37t101 19t114 5v20q-34 0 -57.5 -0.5t-68.5 -5.5t-77.5 -13t-71.5 -25.5t-63.5 -41.5t-41.5 -61.5t-17 -85.5q0 -92 57.5 -143.5t157.5 -51.5zM313 1319q0 120 72.5 181t185.5 61q117 0 191 -61t74 -181q0 -109 -74.5 -168
t-190.5 -59q-114 0 -186 58t-72 169zM489 1327q0 -40 20 -66t62 -26q46 0 67 25.5t21 66.5q0 90 -88 90q-42 0 -62 -25t-20 -65zM737 1323q0 -56 -28 -102q45 33 45 102t-45 102q28 -46 28 -102zM410 1323q0 56 28 102q-45 -33 -45 -102t45 -102q-28 46 -28 102z" />
    <glyph glyph-name="ae" unicode="&#xe6;" horiz-adv-x="1593" 
d="M1116 -18q-261 0 -389 151q-70 -79 -143 -115t-207 -36q-74 0 -132 19.5t-93 50t-58 71.5t-32 80.5t-9 79.5q0 65 20.5 118t52 88t81 61.5t96 41.5t108 24t106 12t101.5 5v29q0 56 -18.5 89t-69.5 33q-84 0 -157 -30l-25 -107h-233l-11 297q257 98 469 98q165 0 258 -67
q118 67 279 67q208 0 323 -100t115 -299q0 -152 -10 -242h-563q13 -141 155 -141q126 0 293 88l93 -264q-44 -25 -66.5 -36t-73 -30.5t-114.5 -27.5t-146 -8zM1128 104q60 0 116 11t79.5 20.5t36.5 16.5l-8 20q-11 -6 -32.5 -15t-76.5 -20.5t-115 -11.5q-44 0 -84.5 9
t-84 35.5t-75.5 68t-52.5 112t-20.5 162.5q0 97 24 169.5t57 110.5t79 61t79 28.5t68 5.5q26 0 49.5 -2.5t55 -9.5t57 -23t48.5 -39t35.5 -61.5t12.5 -87.5q0 -95 -8 -150h-397v-18h418l2 26q8 65 8 142q0 121 -72.5 181t-208.5 60q-248 0 -313 -241q-4 60 -16 101t-39 77
t-77 53.5t-124 17.5q-65 0 -140 -14.5t-114 -27t-59 -21.5v-109h24v97q133 57 289 57q76 0 124 -21t72.5 -66.5t32.5 -99t8 -137.5v-43v-16v-2q0 -96 22.5 -170.5t57 -118t81.5 -71t90.5 -37t90.5 -9.5zM1208 688q-6 38 -33 61t-65 23q-63 0 -100.5 -41.5t-38.5 -116.5h239
q0 60 -2 74zM639 305q-14 46 -23 96q-29 0 -45 -0.5t-45.5 -3t-47.5 -8.5t-37 -15.5t-28.5 -26t-9.5 -38.5q0 -76 86 -76q93 0 150 72zM436 96q56 0 109.5 21t79.5 42l26 21l-4 21q-33 -30 -59 -43q-73 -43 -152 -43q-13 0 -26.5 1.5t-38 6t-44.5 17t-39.5 30.5t-30.5 49.5
t-11 71.5q0 52 20.5 90.5t53.5 61.5t83 37t101 19t114 5v20q-34 0 -57.5 -0.5t-68.5 -5.5t-77.5 -13t-71.5 -25.5t-63.5 -41.5t-41.5 -61.5t-17 -85.5q0 -92 57.5 -143.5t157.5 -51.5z" />
    <glyph glyph-name="ccedilla" unicode="&#xe7;" horiz-adv-x="968" 
d="M569 111q109 0 195 49l-10 20q-27 -14 -41.5 -20.5t-56 -16.5t-87.5 -10q-42 0 -81.5 7.5t-87 32t-81.5 64.5t-57.5 111.5t-23.5 165.5q0 96 26 168.5t61 110t82.5 60.5t79.5 28.5t62 5.5q96 0 205 -35v-147h22v161q-132 39 -227 39q-162 0 -250 -108.5t-88 -282.5
q0 -99 25 -174.5t62 -117.5t88 -68.5t94 -34.5t89 -8zM897 602h-262l-25 166h-53q-47 0 -78.5 -21.5t-46.5 -61t-20.5 -79.5t-5.5 -92q0 -109 46.5 -176.5t147.5 -67.5q86 0 225 82l103 -254q-4 -3 -28 -18.5t-32 -20.5t-33 -18.5t-41 -19t-45 -15t-56 -13.5t-64 -7.5
t-78 -3.5q-260 0 -385 139.5t-125 394.5q0 111 32.5 206t94 166.5t158 112.5t217.5 41q211 0 375 -86zM242 -426v104q10 0 41.5 -1t51.5 -1t50 3t48 10t33 21.5t17 35.5q6 46 -37 72t-114 26h-41l43 90q82 13 133 13q122 0 190 -58t68 -131q0 -111 -82.5 -166t-210.5 -55
q-112 0 -190 37zM436 -387q69 -5 122.5 35t53.5 104q0 41 -24 69t-58 40q66 -35 66 -109q0 -55 -44 -94t-116 -45z" />
    <glyph glyph-name="egrave" unicode="&#xe8;" horiz-adv-x="1024" 
d="M549 104q60 0 115.5 11t79 20.5t36.5 16.5l-8 20q-11 -7 -32.5 -15.5t-76 -20t-114.5 -11.5q-44 0 -84.5 9t-84.5 35.5t-76 68t-52.5 112t-20.5 162.5q0 97 24 169.5t57.5 110.5t79.5 61t79 28.5t68 5.5q26 0 49.5 -2.5t55 -9.5t57 -23t48.5 -39t35.5 -61.5t12.5 -87.5
q0 -88 -9 -150h-397v-18h418l2 26q8 65 8 142q0 121 -72 181t-208 60q-167 0 -249.5 -108t-82.5 -285q0 -97 22.5 -172t57 -118.5t81.5 -71t90.5 -37t90.5 -9.5zM547 -18q-120 0 -212.5 35t-146.5 88t-88.5 126.5t-46.5 141.5t-12 141q0 70 12 136.5t46.5 140t88 127
t144.5 89t209 35.5q208 0 323 -100t115 -299q0 -56 -23 -242h-555q6 -68 47 -104.5t113 -36.5q138 0 293 82l92 -258q-44 -26 -66 -36.5t-73 -30t-114.5 -27.5t-145.5 -8zM639 688q-6 38 -33 61t-65 23q-63 0 -101 -42t-39 -116h240q0 60 -2 74zM502 1126l-299 277h338
l231 -277h-270zM438 1323l135 -125l-104 125h-31z" />
    <glyph glyph-name="eacute" unicode="&#xe9;" horiz-adv-x="1024" 
d="M549 104q60 0 115.5 11t79 20.5t36.5 16.5l-8 20q-11 -7 -32.5 -15.5t-76 -20t-114.5 -11.5q-44 0 -84.5 9t-84.5 35.5t-76 68t-52.5 112t-20.5 162.5q0 97 24 169.5t57.5 110.5t79.5 61t79 28.5t68 5.5q26 0 49.5 -2.5t55 -9.5t57 -23t48.5 -39t35.5 -61.5t12.5 -87.5
q0 -88 -9 -150h-397v-18h418l2 26q8 65 8 142q0 121 -72 181t-208 60q-167 0 -249.5 -108t-82.5 -285q0 -97 22.5 -172t57 -118.5t81.5 -71t90.5 -37t90.5 -9.5zM547 -18q-120 0 -212.5 35t-146.5 88t-88.5 126.5t-46.5 141.5t-12 141q0 70 12 136.5t46.5 140t88 127
t144.5 89t209 35.5q208 0 323 -100t115 -299q0 -56 -23 -242h-555q6 -68 47 -104.5t113 -36.5q138 0 293 82l92 -258q-44 -26 -66 -36.5t-73 -30t-114.5 -27.5t-145.5 -8zM639 688q-6 38 -33 61t-65 23q-63 0 -101 -42t-39 -116h240q0 60 -2 74zM891 1403l-299 -277h-270
l231 277h338zM520 1198l135 125h-30z" />
    <glyph glyph-name="ecircumflex" unicode="&#xea;" horiz-adv-x="1024" 
d="M549 104q60 0 115.5 11t79 20.5t36.5 16.5l-8 20q-11 -7 -32.5 -15.5t-76 -20t-114.5 -11.5q-44 0 -84.5 9t-84.5 35.5t-76 68t-52.5 112t-20.5 162.5q0 97 24 169.5t57.5 110.5t79.5 61t79 28.5t68 5.5q26 0 49.5 -2.5t55 -9.5t57 -23t48.5 -39t35.5 -61.5t12.5 -87.5
q0 -88 -9 -150h-397v-18h418l2 26q8 65 8 142q0 121 -72 181t-208 60q-167 0 -249.5 -108t-82.5 -285q0 -97 22.5 -172t57 -118.5t81.5 -71t90.5 -37t90.5 -9.5zM547 -18q-120 0 -212.5 35t-146.5 88t-88.5 126.5t-46.5 141.5t-12 141q0 70 12 136.5t46.5 140t88 127
t144.5 89t209 35.5q208 0 323 -100t115 -299q0 -56 -23 -242h-555q6 -68 47 -104.5t113 -36.5q138 0 293 82l92 -258q-44 -26 -66 -36.5t-73 -30t-114.5 -27.5t-145.5 -8zM639 688q-6 38 -33 61t-65 23q-63 0 -101 -42t-39 -116h240q0 60 -2 74zM678 1126l-131 125
l-131 -125h-271l232 277h340l231 -277h-270zM451 1321l-107 -127l133 127h-26zM752 1194l-107 127h-27z" />
    <glyph glyph-name="edieresis" unicode="&#xeb;" horiz-adv-x="1024" 
d="M549 104q60 0 115.5 11t79 20.5t36.5 16.5l-8 20q-11 -7 -32.5 -15.5t-76 -20t-114.5 -11.5q-44 0 -84.5 9t-84.5 35.5t-76 68t-52.5 112t-20.5 162.5q0 97 24 169.5t57.5 110.5t79.5 61t79 28.5t68 5.5q26 0 49.5 -2.5t55 -9.5t57 -23t48.5 -39t35.5 -61.5t12.5 -87.5
q0 -88 -9 -150h-397v-18h418l2 26q8 65 8 142q0 121 -72 181t-208 60q-167 0 -249.5 -108t-82.5 -285q0 -97 22.5 -172t57 -118.5t81.5 -71t90.5 -37t90.5 -9.5zM547 -18q-120 0 -212.5 35t-146.5 88t-88.5 126.5t-46.5 141.5t-12 141q0 70 12 136.5t46.5 140t88 127
t144.5 89t209 35.5q208 0 323 -100t115 -299q0 -56 -23 -242h-555q6 -68 47 -104.5t113 -36.5q138 0 293 82l92 -258q-44 -26 -66 -36.5t-73 -30t-114.5 -27.5t-145.5 -8zM639 688q-6 38 -33 61t-65 23q-63 0 -101 -42t-39 -116h240q0 60 -2 74zM211 1137v256h266v-256h-266
zM586 1137v256h266v-256h-266zM352 1219v84h-16v-84h16zM727 1219v84h-16v-84h16z" />
    <glyph glyph-name="igrave" unicode="&#xec;" horiz-adv-x="679" 
d="M510 1044l41 -32v-731h102v-281h-587v281h124v462h-120v263zM524 131v19h-143v745l-195 -16v-19l174 14v-724h-165v-19h329zM281 1126l-299 277h337l232 -277h-270zM217 1323l135 -125l-104 125h-31z" />
    <glyph glyph-name="iacute" unicode="&#xed;" horiz-adv-x="696" 
d="M510 1044l41 -32v-731h102v-281h-587v281h124v462h-120v263zM524 131v19h-143v745l-195 -16v-19l174 14v-724h-165v-19h329zM721 1403l-299 -277h-270l231 277h338zM350 1198l135 125h-30z" />
    <glyph glyph-name="icircumflex" unicode="&#xee;" horiz-adv-x="679" 
d="M510 1044l41 -32v-731h102v-281h-587v281h124v462h-120v263zM524 131v19h-143v745l-195 -16v-19l174 14v-724h-165v-19h329zM449 1126l-132 125l-131 -125h-270l231 277h340l232 -277h-270zM221 1321l-106 -127l133 127h-27zM522 1194l-106 127h-27z" />
    <glyph glyph-name="idieresis" unicode="&#xef;" horiz-adv-x="679" 
d="M510 1044l41 -32v-731h102v-281h-587v281h124v462h-120v263zM524 131v19h-143v745l-195 -16v-19l174 14v-724h-165v-19h329zM8 1137v256h266v-256h-266zM383 1137v256h266v-256h-266zM150 1219v84h-17v-84h17zM524 1219v84h-16v-84h16z" />
    <glyph glyph-name="eth" unicode="&#xf0;" horiz-adv-x="1142" 
d="M684 932l6 4q-24 105 -120 185t-216 106l-241 -209l-66 74l189 161q-100 17 -187 19l256 258q120 0 217 -29l158 135l68 -71l-119 -103q110 -51 193 -119t135.5 -142t85.5 -163.5t46 -177.5t13 -190q0 -101 -19.5 -197.5t-63 -186t-106 -157t-155 -107.5t-203.5 -40
q-239 0 -378.5 147t-139.5 412q0 217 117 359t303 142q137 0 227 -110zM555 260q41 0 73.5 28t51.5 74.5t29 100t10 110.5q-13 61 -43 103.5t-61.5 59t-61.5 16.5q-64 0 -105.5 -59.5t-41.5 -164.5q0 -43 7.5 -86.5t23.5 -86t46.5 -69t71.5 -26.5zM719 762v29
q-84 112 -223 112q-10 0 -24 -1.5t-44 -9t-57.5 -21t-58.5 -41.5t-54 -65.5t-38 -97t-15 -132.5q0 -108 27 -189t65 -124t89.5 -69t89.5 -33t77 -7q373 0 373 557q0 138 -31.5 252t-79 187t-110 129.5t-119 85t-111 46.5t-81 22.5t-34.5 4.5l-16 -17q7 0 32.5 -4t79.5 -21
t109.5 -45t117 -82.5t109 -126t78.5 -183.5t31 -248q0 -280 -88.5 -409.5t-259.5 -129.5q-36 0 -72 6.5t-84 32t-83 66.5t-60 118.5t-25 180.5q0 70 14 127.5t35 93t50.5 61.5t54.5 38.5t52.5 20t39.5 8.5t21 1q24 0 40.5 -2t50.5 -12t68 -37.5t64 -71.5z" />
    <glyph glyph-name="ntilde" unicode="&#xf1;" horiz-adv-x="1265" 
d="M664 737q-84 0 -140 -80v-376h97v-281h-547v281h90v464h-117v259l399 40q26 -55 50 -149l82 92q99 45 186 45q192 0 279 -106t87 -318v-327h97v-281h-457v555q0 88 -22 135t-84 47zM160 877v-19l174 16v-724h-131v-19h289v19h-138v745zM1098 131v19h-137v487
q0 252 -224 252q-38 0 -75.5 -9.5t-63 -21.5t-48.5 -27t-31.5 -22.5t-12.5 -11.5l2 -25q12 12 34 29.5t80 43t115 25.5q203 0 203 -233v-506h158zM479 1430q82 0 176 -54q68 -37 99 -37q19 0 33 4t42.5 25t67.5 62l141 -154q-93 -85 -150 -116.5t-126 -31.5q-82 0 -176 54
q-68 37 -99 37q-19 0 -33 -4t-42.5 -25t-67.5 -62l-141 154q93 85 150 116.5t126 31.5zM483 1315q26 0 68 -10q-39 20 -72 20q-71 0 -129 -53l10 -12q60 55 123 55zM768 1235q-26 0 -68 10q39 -20 72 -20q71 0 129 53l-10 12q-60 -55 -123 -55z" />
    <glyph glyph-name="ograve" unicode="&#xf2;" horiz-adv-x="1105" 
d="M551 113q342 0 342 399q0 196 -88.5 298.5t-251.5 102.5q-171 0 -255.5 -109t-84.5 -292q0 -94 21 -167t54 -115.5t79.5 -70t90.5 -37t93 -9.5zM553 895q162 0 238.5 -103.5t76.5 -279.5q0 -97 -20.5 -168.5t-51.5 -110.5t-76 -63t-83.5 -30.5t-85.5 -6.5
q-160 0 -236.5 102.5t-76.5 276.5q0 189 80 286t235 97zM553 1042q112 0 193 -19.5t149 -74.5q54 -43 89.5 -96.5t52 -112.5t22.5 -110.5t6 -114.5q0 -64 -5.5 -114t-21.5 -111t-52 -114.5t-91 -96.5q-68 -56 -150 -76t-192 -20t-192 20t-150 76q-53 43 -88.5 97t-52 113
t-23 111.5t-6.5 114.5q0 288 170 434q122 94 342 94zM553 260q79 0 111 60t32 192q0 133 -32 193.5t-111 60.5t-111 -61t-32 -195q0 -129 32 -189.5t111 -60.5zM530 1126l-299 277h338l232 -277h-271zM467 1323l135 -125l-104 125h-31z" />
    <glyph glyph-name="oacute" unicode="&#xf3;" horiz-adv-x="1105" 
d="M551 113q342 0 342 399q0 196 -88.5 298.5t-251.5 102.5q-171 0 -255.5 -109t-84.5 -292q0 -94 21 -167t54 -115.5t79.5 -70t90.5 -37t93 -9.5zM553 895q162 0 238.5 -103.5t76.5 -279.5q0 -97 -20.5 -168.5t-51.5 -110.5t-76 -63t-83.5 -30.5t-85.5 -6.5
q-160 0 -236.5 102.5t-76.5 276.5q0 189 80 286t235 97zM553 1042q112 0 193 -19.5t149 -74.5q54 -43 89.5 -96.5t52 -112.5t22.5 -110.5t6 -114.5q0 -64 -5.5 -114t-21.5 -111t-52 -114.5t-91 -96.5q-68 -56 -150 -76t-192 -20t-192 20t-150 76q-53 43 -88.5 97t-52 113
t-23 111.5t-6.5 114.5q0 288 170 434q122 94 342 94zM553 260q79 0 111 60t32 192q0 133 -32 193.5t-111 60.5t-111 -61t-32 -195q0 -129 32 -189.5t111 -60.5zM907 1403l-299 -277h-270l231 277h338zM537 1198l135 125h-31z" />
    <glyph glyph-name="ocircumflex" unicode="&#xf4;" horiz-adv-x="1105" 
d="M551 113q342 0 342 399q0 196 -88.5 298.5t-251.5 102.5q-171 0 -255.5 -109t-84.5 -292q0 -94 21 -167t54 -115.5t79.5 -70t90.5 -37t93 -9.5zM553 895q162 0 238.5 -103.5t76.5 -279.5q0 -97 -20.5 -168.5t-51.5 -110.5t-76 -63t-83.5 -30.5t-85.5 -6.5
q-160 0 -236.5 102.5t-76.5 276.5q0 189 80 286t235 97zM553 1042q112 0 193 -19.5t149 -74.5q54 -43 89.5 -96.5t52 -112.5t22.5 -110.5t6 -114.5q0 -64 -5.5 -114t-21.5 -111t-52 -114.5t-91 -96.5q-68 -56 -150 -76t-192 -20t-192 20t-150 76q-53 43 -88.5 97t-52 113
t-23 111.5t-6.5 114.5q0 288 170 434q122 94 342 94zM553 260q79 0 111 60t32 192q0 133 -32 193.5t-111 60.5t-111 -61t-32 -195q0 -129 32 -189.5t111 -60.5zM682 1126l-131 125l-131 -125h-270l231 277h340l231 -277h-270zM455 1321l-107 -127l133 127h-26zM756 1194
l-107 127h-26z" />
    <glyph glyph-name="otilde" unicode="&#xf5;" horiz-adv-x="1105" 
d="M551 113q342 0 342 399q0 196 -88.5 298.5t-251.5 102.5q-171 0 -255.5 -109t-84.5 -292q0 -94 21 -167t54 -115.5t79.5 -70t90.5 -37t93 -9.5zM553 895q162 0 238.5 -103.5t76.5 -279.5q0 -97 -20.5 -168.5t-51.5 -110.5t-76 -63t-83.5 -30.5t-85.5 -6.5
q-160 0 -236.5 102.5t-76.5 276.5q0 189 80 286t235 97zM553 1042q112 0 193 -19.5t149 -74.5q54 -43 89.5 -96.5t52 -112.5t22.5 -110.5t6 -114.5q0 -64 -5.5 -114t-21.5 -111t-52 -114.5t-91 -96.5q-68 -56 -150 -76t-192 -20t-192 20t-150 76q-53 43 -88.5 97t-52 113
t-23 111.5t-6.5 114.5q0 288 170 434q122 94 342 94zM553 260q79 0 111 60t32 192q0 133 -32 193.5t-111 60.5t-111 -61t-32 -195q0 -129 32 -189.5t111 -60.5zM406 1430q82 0 176 -54q68 -37 98 -37q19 0 33 4t42.5 25t67.5 62l142 -154q-93 -85 -150.5 -116.5
t-126.5 -31.5q-82 0 -176 54q-68 37 -98 37q-20 0 -33.5 -3.5t-43 -25t-67.5 -62.5l-141 154q93 85 150.5 116.5t126.5 31.5zM410 1315q25 0 67 -10q-39 20 -71 20q-72 0 -130 -53l11 -12q60 55 123 55zM694 1235q-25 0 -67 10q39 -20 71 -20q71 0 129 53l-10 12
q-60 -55 -123 -55z" />
    <glyph glyph-name="odieresis" unicode="&#xf6;" horiz-adv-x="1105" 
d="M551 113q342 0 342 399q0 196 -88.5 298.5t-251.5 102.5q-171 0 -255.5 -109t-84.5 -292q0 -94 21 -167t54 -115.5t79.5 -70t90.5 -37t93 -9.5zM553 895q162 0 238.5 -103.5t76.5 -279.5q0 -97 -20.5 -168.5t-51.5 -110.5t-76 -63t-83.5 -30.5t-85.5 -6.5
q-160 0 -236.5 102.5t-76.5 276.5q0 189 80 286t235 97zM553 1042q112 0 193 -19.5t149 -74.5q54 -43 89.5 -96.5t52 -112.5t22.5 -110.5t6 -114.5q0 -64 -5.5 -114t-21.5 -111t-52 -114.5t-91 -96.5q-68 -56 -150 -76t-192 -20t-192 20t-150 76q-53 43 -88.5 97t-52 113
t-23 111.5t-6.5 114.5q0 288 170 434q122 94 342 94zM553 260q79 0 111 60t32 192q0 133 -32 193.5t-111 60.5t-111 -61t-32 -195q0 -129 32 -189.5t111 -60.5zM229 1137v256h267v-256h-267zM604 1137v256h266v-256h-266zM371 1219v84h-17v-84h17zM745 1219v84h-16v-84h16z
" />
    <glyph glyph-name="divide" unicode="&#xf7;" horiz-adv-x="1146" 
d="M741 981h-331v315h331v-315zM1042 868v-280h-929v280h929zM741 160h-331v315h331v-315zM883 719v18h-623v-18h623zM586 1094v84h-21v-84h21zM586 281v84h-21v-84h21z" />
    <glyph glyph-name="oslash" unicode="&#xf8;" horiz-adv-x="1105" 
d="M553 1042q124 0 201 -22l53 98h137l-80 -147q120 -97 160.5 -204.5t40.5 -252.5q0 -64 -5.5 -114t-21.5 -111t-52 -114.5t-91 -96.5q-68 -56 -150 -76t-192 -20q-126 0 -203 22l-37 -72h-137l66 123q-201 115 -201 459q0 288 170 434q122 94 342 94zM553 260q79 0 111 60
t32 192q0 58 -10 123l-192 -365q30 -10 59 -10zM412 510q0 -75 8 -119l192 363q-24 12 -59 12q-79 0 -110 -61t-31 -195zM553 897q84 0 145.5 -28.5t98 -81t54 -121t17.5 -154.5q0 -97 -20.5 -168.5t-51 -111t-75.5 -63.5t-84 -31t-86 -7q-161 0 -238 102.5t-77 278.5
q0 385 317 385zM551 113q342 0 342 399q0 196 -88.5 298.5t-251.5 102.5q-171 0 -255.5 -109t-84.5 -292q0 -94 21 -167t54 -115.5t79.5 -70t90.5 -37t93 -9.5z" />
    <glyph glyph-name="ugrave" unicode="&#xf9;" horiz-adv-x="1249" 
d="M760 207l-4 24q-90 -98 -215 -98q-122 0 -175 69.5t-53 203.5v468h123v19h-270v-19h127v-468q0 -68 11.5 -118.5t39 -91t77 -61t120.5 -20.5q83 0 141 32t78 60zM1079 131v19h-94q-63 63 -63 165v559h133v19h-279v-19h125v-559q0 -112 72 -184h106zM1200 0h-360
q-42 45 -62 96q-2 -2 -24 -22t-31 -26.5t-34.5 -23t-47.5 -23t-57 -13t-74 -6.5q-202 0 -294.5 96t-92.5 305v360h-86v281h528v-281h-82v-282q0 -31 0.5 -48t5.5 -49t14.5 -49.5t29.5 -32t49 -14.5q95 0 149 78v397h-84v281h537v-281h-92v-462h108v-281zM571 1126l-299 277
h338l232 -277h-271zM508 1323l135 -125l-104 125h-31z" />
    <glyph glyph-name="uacute" unicode="&#xfa;" horiz-adv-x="1249" 
d="M760 207l-4 24q-90 -98 -215 -98q-122 0 -175 69.5t-53 203.5v468h123v19h-270v-19h127v-468q0 -68 11.5 -118.5t39 -91t77 -61t120.5 -20.5q83 0 141 32t78 60zM1079 131v19h-94q-63 63 -63 165v559h133v19h-279v-19h125v-559q0 -112 72 -184h106zM1200 0h-360
q-42 45 -62 96q-2 -2 -24 -22t-31 -26.5t-34.5 -23t-47.5 -23t-57 -13t-74 -6.5q-202 0 -294.5 96t-92.5 305v360h-86v281h528v-281h-82v-282q0 -31 0.5 -48t5.5 -49t14.5 -49.5t29.5 -32t49 -14.5q95 0 149 78v397h-84v281h537v-281h-92v-462h108v-281zM938 1403l-299 -277
h-270l231 277h338zM567 1198l135 125h-30z" />
    <glyph glyph-name="ucircumflex" unicode="&#xfb;" horiz-adv-x="1249" 
d="M760 207l-4 24q-90 -98 -215 -98q-122 0 -175 69.5t-53 203.5v468h123v19h-270v-19h127v-468q0 -68 11.5 -118.5t39 -91t77 -61t120.5 -20.5q83 0 141 32t78 60zM1079 131v19h-94q-63 63 -63 165v559h133v19h-279v-19h125v-559q0 -112 72 -184h106zM1200 0h-360
q-42 45 -62 96q-2 -2 -24 -22t-31 -26.5t-34.5 -23t-47.5 -23t-57 -13t-74 -6.5q-202 0 -294.5 96t-92.5 305v360h-86v281h528v-281h-82v-282q0 -31 0.5 -48t5.5 -49t14.5 -49.5t29.5 -32t49 -14.5q95 0 149 78v397h-84v281h537v-281h-92v-462h108v-281zM727 1126l-131 125
l-131 -125h-270l231 277h340l231 -277h-270zM500 1321l-107 -127l133 127h-26zM801 1194l-107 127h-26z" />
    <glyph glyph-name="udieresis" unicode="&#xfc;" horiz-adv-x="1249" 
d="M760 207l-4 24q-90 -98 -215 -98q-122 0 -175 69.5t-53 203.5v468h123v19h-270v-19h127v-468q0 -68 11.5 -118.5t39 -91t77 -61t120.5 -20.5q83 0 141 32t78 60zM1079 131v19h-94q-63 63 -63 165v559h133v19h-279v-19h125v-559q0 -112 72 -184h106zM1200 0h-360
q-42 45 -62 96q-2 -2 -24 -22t-31 -26.5t-34.5 -23t-47.5 -23t-57 -13t-74 -6.5q-202 0 -294.5 96t-92.5 305v360h-86v281h528v-281h-82v-282q0 -31 0.5 -48t5.5 -49t14.5 -49.5t29.5 -32t49 -14.5q95 0 149 78v397h-84v281h537v-281h-92v-462h108v-281zM287 1137v256h266
v-256h-266zM662 1137v256h266v-256h-266zM428 1219v84h-16v-84h16zM803 1219v84h-17v-84h17z" />
    <glyph glyph-name="yacute" unicode="&#xfd;" horiz-adv-x="1234" 
d="M399 -322q57 0 107.5 27t81.5 63.5t56 82t35 72.5t15 46l299 905h78v19h-272v-19h170l-297 -901q-4 -14 -13 -38.5t-32.5 -68t-52.5 -79.5t-76 -63t-99 -27q-58 0 -110 18v111h-23v-127q60 -21 133 -21zM561 74l10 39l-268 761h154v19h-289v-19h111zM440 -246l90 246
h-118l-254 743h-119v281h547v-281h-78l115 -335v-113h4l145 448h-102v281h530v-281h-100l-266 -821q-29 -85 -65.5 -147.5t-90 -112.5t-129 -76t-172.5 -26q-109 0 -244 47l8 340h246zM954 1403l-299 -277h-270l231 277h338zM584 1198l135 125h-31z" />
    <glyph glyph-name="thorn" unicode="&#xfe;" horiz-adv-x="1208" 
d="M156 -195v1397h-140v260l439 72l61 -37v-502l139 47q110 0 194.5 -34t134.5 -86t81.5 -125t43 -141.5t11.5 -143.5q0 -85 -13 -159.5t-45 -143.5t-80.5 -118.5t-124 -79t-171.5 -29.5q-86 0 -170 41v-218h137v-262h-645v262h148zM618 256q78 0 106 61.5t28 194.5
q0 132 -27.5 194t-93.5 62q-61 0 -115 -43v-420q52 -49 102 -49zM346 1368l-186 -31v-18q150 25 166 27v-1661h-189v-19h387v19h-178v1683zM516 166v-23q62 -32 131 -32q133 0 215 92q42 52 66 134.5t24 180.5q0 100 -20 175t-49 115t-69.5 64t-72.5 30.5t-67 6.5
q-99 0 -158 -39v-24q61 45 158 45q57 0 101.5 -21.5t72.5 -56.5t46.5 -84.5t26 -101t7.5 -109.5q0 -205 -84 -301h2q-78 -88 -199 -88q-75 0 -131 37z" />
    <glyph glyph-name="ydieresis" unicode="&#xff;" horiz-adv-x="1234" 
d="M399 -322q57 0 107.5 27t81.5 63.5t56 82t35 72.5t15 46l299 905h78v19h-272v-19h170l-297 -901q-4 -14 -13 -38.5t-32.5 -68t-52.5 -79.5t-76 -63t-99 -27q-58 0 -110 18v111h-23v-127q60 -21 133 -21zM561 74l10 39l-268 761h154v19h-289v-19h111zM440 -246l90 246
h-118l-254 743h-119v281h547v-281h-78l115 -335v-113h4l145 448h-102v281h530v-281h-100l-266 -821q-29 -85 -65.5 -147.5t-90 -112.5t-129 -76t-172.5 -26q-109 0 -244 47l8 340h246zM307 1137v256h266v-256h-266zM682 1137v256h266v-256h-266zM449 1219v84h-17v-84h17z
M823 1219v84h-16v-84h16z" />
    <glyph glyph-name="Amacron" unicode="&#x100;" horiz-adv-x="1679" 
d="M500 1618v205h676v-205h-676zM1036 1708v14h-407v-14h407zM1143 1337v21h-619v-21h174l-381 -1179h-120v-21h395v21h-248l379 1179h190l242 -731h-508l-4 -20h518l142 -428h-267v-21h447v21h-154l-391 1179h205zM1622 295v-295h-725v295h188l-57 174h-416l-49 -174h168
v-295h-674v295h148l301 905h-121v295h897v-295h-121l301 -905h160zM801 1200h-6v-88l-111 -389h256z" />
    <glyph glyph-name="amacron" unicode="&#x101;" horiz-adv-x="1116" 
d="M197 1167v205h675v-205h-675zM735 1262v14h-409v-14h409zM946 131v19h-63q-82 54 -82 176v245q0 67 -3.5 109.5t-18 91.5t-41.5 76.5t-76.5 46t-120.5 18.5q-93 0 -184 -23t-130 -40v-109h25v97q133 57 289 57q76 0 124.5 -21t73 -66.5t33 -99t8.5 -137.5v-245
q0 -135 99 -195h67zM971 281h88v-281h-252q-27 6 -63.5 37.5t-59.5 64.5q-36 -40 -65 -62t-93 -40t-157 -18q-74 0 -132 19.5t-93 50t-58 71.5t-32 80.5t-9 79.5q0 65 20.5 117.5t52 87.5t81.5 61t95 39.5t108 22.5t106 11.5t102 4.5v35q0 56 -18.5 89t-69.5 33
q-84 0 -157 -30l-25 -107h-234l-10 297q257 98 469 98q99 0 174 -25.5t118 -64.5t69.5 -94t35.5 -106t9 -109v-362zM610 295v115q-215 0 -215 -101q0 -37 24.5 -56.5t61.5 -19.5q83 0 129 62zM428 96q56 0 109.5 21t79.5 42l26 21l-6 19q-33 -30 -59 -43q-70 -41 -150 -41
q-13 0 -26.5 1.5t-38 6t-44.5 17t-39.5 30.5t-30.5 49.5t-11 71.5q0 52 20.5 90.5t53.5 61.5t83 37t101 19t114 5v20q-34 0 -57.5 -0.5t-68.5 -5.5t-77.5 -13t-71.5 -25.5t-63.5 -41.5t-41.5 -61.5t-17 -85.5q0 -92 57.5 -143.5t157.5 -51.5z" />
    <glyph glyph-name="Abreve" unicode="&#x102;" horiz-adv-x="1665" 
d="M829 1595h-4q-360 0 -360 222v59h262v-35q0 -17 0.5 -24.5t5 -27t14 -29t30 -18.5t50.5 -9h9q30 0 50.5 9.5t30 20t14 31t5 28t0.5 25.5v29h262v-59q0 -63 -26 -107t-77 -68.5t-115.5 -35.5t-150.5 -11zM604 1796v14h-16v-14q0 -61 57 -84q-41 30 -41 84zM1059 1810v-14
q0 -54 -41 -84q57 23 57 84v14h-16zM1137 1337v21h-619v-21h174l-381 -1179h-121v-21h396v21h-248l379 1179h190l242 -731h-508l-4 -20h518l141 -428h-266v-21h447v21h-154l-391 1179h205zM1616 295v-295h-725v295h188l-57 174h-416l-49 -174h168v-295h-674v295h148l301 905
h-121v295h897v-295h-121l301 -905h160zM795 1200h-7v-88l-110 -389h256z" />
    <glyph glyph-name="abreve" unicode="&#x103;" horiz-adv-x="1114" 
d="M567 1122h-4q-360 0 -360 221v60h262v-35q0 -17 0.5 -24.5t5 -27t14 -29t30 -18.5t50.5 -9h8q30 0 50.5 9.5t30 20.5t14.5 30.5t5.5 28t0.5 25.5v29h262v-60q0 -63 -26 -107t-77 -68.5t-115.5 -35t-150.5 -10.5zM342 1323v14h-16v-14q0 -61 57 -84q-41 30 -41 84z
M797 1337v-14q0 -54 -41 -84q57 23 57 84v14h-16zM958 131v19h-63q-82 54 -82 176v245q0 67 -3.5 109.5t-18 91.5t-41.5 76.5t-76.5 46t-120.5 18.5q-65 0 -140 -14.5t-114 -27t-59 -21.5v-109h24v97q133 57 289 57q76 0 124.5 -21t73.5 -66t33.5 -99.5t8.5 -137.5v-245
q0 -79 26.5 -123t71.5 -72h67zM983 281h88v-281h-252q-27 6 -63.5 37.5t-59.5 64.5q-36 -40 -65 -62t-93 -40t-157 -18q-74 0 -132 19.5t-93 50t-58 71.5t-32 80.5t-9 79.5q0 65 20.5 117.5t52 87.5t81.5 61t95.5 39.5t108.5 22.5t106 11.5t102 4.5v35q0 56 -18.5 89
t-69.5 33q-85 0 -158 -30l-25 -107h-233l-10 297q257 98 469 98q99 0 174 -25.5t118 -64.5t69.5 -94t35 -106t8.5 -109v-362zM623 295v115q-215 0 -215 -101q0 -37 24.5 -56.5t61.5 -19.5q83 0 129 62zM440 96q56 0 109.5 21t79.5 42l26 21l-6 19q-33 -30 -59 -43
q-70 -41 -150 -41q-13 0 -26.5 1.5t-38 6t-44.5 17t-39.5 30.5t-30.5 49.5t-11 71.5q0 52 20.5 90.5t54 61.5t83.5 37t101 19t114 5v20q-34 0 -57.5 -0.5t-69 -5.5t-77.5 -13t-71.5 -25.5t-64 -41.5t-41.5 -61.5t-17 -85.5q0 -92 57.5 -143.5t157.5 -51.5z" />
    <glyph glyph-name="Aogonek" unicode="&#x104;" horiz-adv-x="1665" 
d="M1440 -291v-127q-56 -33 -158 -33q-117 0 -185.5 58t-68.5 155q0 75 45.5 142t97.5 96h-280v295h188l-57 174h-416l-49 -174h168v-295h-674v295h148l301 905h-121v295h897v-295h-121l301 -905h160v-295h-293q-27 -34 -47.5 -80.5t-20.5 -87.5q0 -123 158 -123h27z
M795 1200h-7v-88l-110 -389h256zM1137 1337v21h-619v-21h174l-381 -1179h-121v-21h396v21h-248l379 1179h190l242 -731h-508l-4 -20h518l141 -428h-266v-21h447v21h-154l-391 1179h205zM1151 -186q-10 -28 -5 -59t18 -56.5t44.5 -41t75.5 -11.5q-65 7 -101.5 56t-31.5 112z
" />
    <glyph glyph-name="aogonek" unicode="&#x105;" horiz-adv-x="1114" 
d="M1051 -291v-127q-56 -33 -158 -33q-117 0 -185.5 58t-68.5 155q0 79 52 149t104 95q-44 22 -103 96q-36 -40 -65 -62t-93 -40t-157 -18q-74 0 -132 19.5t-93 50t-58 71.5t-32 80.5t-9 79.5q0 65 20.5 117.5t52 87.5t81.5 61t95 39.5t108 22.5t106 11.5t102 4.5v35
q0 56 -18.5 89t-69.5 33q-84 0 -157 -30l-25 -107h-233l-11 297q257 98 469 98q99 0 174 -25.5t118 -64.5t69.5 -94t35.5 -106t9 -109v-362h88v-281h-133q-27 -34 -47.5 -80.5t-20.5 -87.5q0 -123 158 -123h27zM618 295v115q-215 0 -215 -101q0 -37 24.5 -56.5t61.5 -19.5
q83 0 129 62zM954 131v19h-59q-86 57 -86 176v245q0 67 -3.5 109.5t-18 91.5t-41.5 76.5t-76.5 46t-120.5 18.5q-65 0 -140 -14.5t-114 -27t-59 -21.5v-109h24v97q133 57 289 57q76 0 124.5 -21t73 -66.5t33 -99t8.5 -137.5v-245q0 -135 99 -195h67zM436 96q56 0 109.5 21
t79.5 42l26 21l-4 21q-33 -30 -59 -43q-73 -43 -152 -43q-13 0 -26.5 1.5t-38 6t-44.5 17t-39.5 30.5t-30.5 49.5t-11 71.5q0 52 20.5 90.5t53.5 61.5t83 37t101 19t114 5v20q-34 0 -57.5 -0.5t-68.5 -5.5t-77.5 -13t-71.5 -25.5t-63.5 -41.5t-41.5 -61.5t-17 -85.5
q0 -92 57.5 -143.5t157.5 -51.5zM762 -186q-10 -28 -5 -59t18 -56.5t44.5 -41t75.5 -11.5q-65 7 -101.5 56t-31.5 112z" />
    <glyph glyph-name="Cacute" unicode="&#x106;" horiz-adv-x="1363" 
d="M756 113q218 0 370 114v201h-26v-190q-61 -42 -109 -62q-105 -43 -235 -43q-304 0 -420 242q-66 141 -66 379q0 58 2.5 104.5t14 111t30.5 114t55.5 102t86.5 86.5t125.5 56t169.5 22q178 0 327 -64l2 -182h25v199q-156 67 -354 67q-98 0 -177 -22t-131.5 -57t-90.5 -88
t-58.5 -104t-32.5 -117.5t-15 -116t-3 -111.5q0 -49 1 -79t6.5 -87.5t20 -112t37.5 -104.5q126 -258 445 -258zM754 -27q-701 0 -701 775q0 81 4 142t18 134t38.5 131t68 118t103.5 109q170 140 469 140q143 -5 264.5 -34t253.5 -91l-23 -414h-309l-25 201q-13 2 -41.5 9
t-56 11t-63.5 4q-291 0 -291 -393v-135q0 -77 13 -141.5t43.5 -124t90 -93.5t144.5 -34q112 0 178 30v242h350v-395q-119 -107 -239 -149t-289 -42zM1126 1874l-299 -277h-270l231 277h338zM756 1669l135 125h-31z" />
    <glyph glyph-name="cacute" unicode="&#x107;" horiz-adv-x="968" 
d="M569 111q109 0 195 49l-10 20q-27 -14 -41.5 -20.5t-56 -16.5t-87.5 -10q-42 0 -81.5 7.5t-87 32t-81.5 64.5t-57.5 111.5t-23.5 165.5q0 96 26 168.5t61 110t82.5 60.5t79.5 28.5t62 5.5q96 0 205 -35v-147h22v161q-132 39 -227 39q-162 0 -250 -108.5t-88 -282.5
q0 -99 25 -174.5t62 -117.5t88 -68.5t94 -34.5t89 -8zM897 602h-262l-25 166h-53q-47 0 -78.5 -21.5t-46.5 -61t-20.5 -79.5t-5.5 -92q0 -109 46.5 -176.5t147.5 -67.5q86 0 225 82l103 -254q-4 -3 -28 -18.5t-32 -20.5t-33 -18.5t-41 -19t-45 -15t-56 -13.5t-64 -7.5
t-78 -3.5q-260 0 -385 139.5t-125 394.5q0 111 32.5 206t94 166.5t158 112.5t217.5 41q211 0 375 -86zM928 1403l-299 -277h-271l232 277h338zM557 1198l135 125h-30z" />
    <glyph glyph-name="Ccircumflex" unicode="&#x108;" horiz-adv-x="1363" 
d="M756 113q218 0 370 114v201h-26v-190q-61 -42 -109 -62q-105 -43 -235 -43q-304 0 -420 242q-66 141 -66 379q0 58 2.5 104.5t14 111t30.5 114t55.5 102t86.5 86.5t125.5 56t169.5 22q178 0 327 -64l2 -182h25v199q-156 67 -354 67q-98 0 -177 -22t-131.5 -57t-90.5 -88
t-58.5 -104t-32.5 -117.5t-15 -116t-3 -111.5q0 -49 1 -79t6.5 -87.5t20 -112t37.5 -104.5q126 -258 445 -258zM754 -27q-701 0 -701 775q0 81 4 142t18 134t38.5 131t68 118t103.5 109q170 140 469 140q143 -5 264.5 -34t253.5 -91l-23 -414h-309l-25 201q-13 2 -41.5 9
t-56 11t-63.5 4q-291 0 -291 -393v-135q0 -77 13 -141.5t43.5 -124t90 -93.5t144.5 -34q112 0 178 30v242h350v-395q-119 -107 -239 -149t-289 -42zM836 1597l-131 125l-132 -125h-270l232 277h339l232 -277h-270zM608 1792l-106 -127l133 127h-27zM909 1665l-106 127h-27z
" />
    <glyph glyph-name="ccircumflex" unicode="&#x109;" horiz-adv-x="968" 
d="M569 111q109 0 195 49l-10 20q-27 -14 -41.5 -20.5t-56 -16.5t-87.5 -10q-42 0 -81.5 7.5t-87 32t-81.5 64.5t-57.5 111.5t-23.5 165.5q0 96 26 168.5t61 110t82.5 60.5t79.5 28.5t62 5.5q96 0 205 -35v-147h22v161q-132 39 -227 39q-162 0 -250 -108.5t-88 -282.5
q0 -99 25 -174.5t62 -117.5t88 -68.5t94 -34.5t89 -8zM897 602h-262l-25 166h-53q-47 0 -78.5 -21.5t-46.5 -61t-20.5 -79.5t-5.5 -92q0 -109 46.5 -176.5t147.5 -67.5q86 0 225 82l103 -254q-4 -3 -28 -18.5t-32 -20.5t-33 -18.5t-41 -19t-45 -15t-56 -13.5t-64 -7.5
t-78 -3.5q-260 0 -385 139.5t-125 394.5q0 111 32.5 206t94 166.5t158 112.5t217.5 41q211 0 375 -86zM686 1126l-131 125l-131 -125h-270l231 277h340l231 -277h-270zM459 1321l-107 -127l133 127h-26zM760 1194l-107 127h-26z" />
    <glyph glyph-name="Cdotaccent" unicode="&#x10a;" horiz-adv-x="1363" 
d="M756 113q218 0 370 114v201h-26v-190q-61 -42 -109 -62q-105 -43 -235 -43q-304 0 -420 242q-66 141 -66 379q0 58 2.5 104.5t14 111t30.5 114t55.5 102t86.5 86.5t125.5 56t169.5 22q178 0 327 -64l2 -182h25v199q-156 67 -354 67q-98 0 -177 -22t-131.5 -57t-90.5 -88
t-58.5 -104t-32.5 -117.5t-15 -116t-3 -111.5q0 -49 1 -79t6.5 -87.5t20 -112t37.5 -104.5q126 -258 445 -258zM754 -27q-701 0 -701 775q0 81 4 142t18 134t38.5 131t68 118t103.5 109q170 140 469 140q143 -5 264.5 -34t253.5 -91l-23 -414h-309l-25 201q-13 2 -41.5 9
t-56 11t-63.5 4q-291 0 -291 -393v-135q0 -77 13 -141.5t43.5 -124t90 -93.5t144.5 -34q112 0 178 30v242h350v-395q-119 -107 -239 -149t-289 -42zM612 1608v256h267v-256h-267zM754 1690v84h-17v-84h17z" />
    <glyph glyph-name="cdotaccent" unicode="&#x10b;" horiz-adv-x="968" 
d="M569 111q109 0 195 49l-10 20q-27 -14 -41.5 -20.5t-56 -16.5t-87.5 -10q-42 0 -81.5 7.5t-87 32t-81.5 64.5t-57.5 111.5t-23.5 165.5q0 96 26 168.5t61 110t82.5 60.5t79.5 28.5t62 5.5q96 0 205 -35v-147h22v161q-132 39 -227 39q-162 0 -250 -108.5t-88 -282.5
q0 -99 25 -174.5t62 -117.5t88 -68.5t94 -34.5t89 -8zM897 602h-262l-25 166h-53q-47 0 -78.5 -21.5t-46.5 -61t-20.5 -79.5t-5.5 -92q0 -109 46.5 -176.5t147.5 -67.5q86 0 225 82l103 -254q-4 -3 -28 -18.5t-32 -20.5t-33 -18.5t-41 -19t-45 -15t-56 -13.5t-64 -7.5
t-78 -3.5q-260 0 -385 139.5t-125 394.5q0 111 32.5 206t94 166.5t158 112.5t217.5 41q211 0 375 -86zM412 1137v256h266v-256h-266zM553 1219v84h-16v-84h16z" />
    <glyph glyph-name="Ccaron" unicode="&#x10c;" horiz-adv-x="1359" 
d="M756 113q218 0 370 114v201h-26v-190q-61 -42 -109 -62q-105 -43 -235 -43q-304 0 -420 242q-66 141 -66 379q0 58 2.5 104.5t14 111t30.5 114t55.5 102t86.5 86.5t125.5 56t169.5 22q178 0 327 -64l2 -182h25v199q-156 67 -354 67q-98 0 -177 -22t-131.5 -57t-90.5 -88
t-58.5 -104t-32.5 -117.5t-15 -116t-3 -111.5q0 -49 1 -79t6.5 -87.5t20 -112t37.5 -104.5q126 -258 445 -258zM754 -27q-701 0 -701 775q0 81 4 142t18 134t38.5 131t68 118t103.5 109q170 140 469 140q143 -5 264.5 -34t253.5 -91l-23 -414h-309l-25 201q-13 2 -41.5 9
t-56 11t-63.5 4q-291 0 -291 -393v-135q0 -77 13 -141.5t43.5 -124t90 -93.5t144.5 -34q112 0 178 30v242h350v-395q-119 -107 -239 -149t-289 -42zM735 1749l131 125h271l-232 -277h-340l-231 277h270zM831 1679l107 127l-133 -127h26zM530 1806l107 -127h27z" />
    <glyph glyph-name="ccaron" unicode="&#x10d;" horiz-adv-x="970" 
d="M569 111q109 0 195 49l-10 20q-27 -14 -41.5 -20.5t-56 -16.5t-87.5 -10q-42 0 -81.5 7.5t-87 32t-81.5 64.5t-57.5 111.5t-23.5 165.5q0 96 26 168.5t61 110t82.5 60.5t79.5 28.5t62 5.5q96 0 205 -35v-147h22v161q-132 39 -227 39q-162 0 -250 -108.5t-88 -282.5
q0 -99 25 -174.5t62 -117.5t88 -68.5t94 -34.5t89 -8zM897 602h-262l-25 166h-53q-47 0 -78.5 -21.5t-46.5 -61t-20.5 -79.5t-5.5 -92q0 -109 46.5 -176.5t147.5 -67.5q86 0 225 82l103 -254q-4 -3 -28 -18.5t-32 -20.5t-33 -18.5t-41 -19t-45 -15t-56 -13.5t-64 -7.5
t-78 -3.5q-260 0 -385 139.5t-125 394.5q0 111 32.5 206t94 166.5t158 112.5t217.5 41q211 0 375 -86zM545 1278l131 125h270l-231 -277h-340l-232 277h271zM641 1208l107 127l-134 -127h27zM340 1335l106 -127h27z" />
    <glyph glyph-name="Dcaron" unicode="&#x10e;" horiz-adv-x="1478" 
d="M203 137h526q145 0 245 41t156.5 122.5t80.5 188.5t24 254q0 149 -26 258.5t-85 191.5t-160.5 123.5t-246.5 41.5h-516v-21h186v-1179h-184v-21zM729 158h-317v1179h305q263 0 377 -148t114 -446q0 -69 -4.5 -125.5t-17.5 -118.5t-34.5 -110t-58 -92.5t-86 -74t-120 -47
t-158.5 -17.5zM739 0h-676v295h142v905h-144v295h656q161 0 275 -25t210 -100q60 -47 102.5 -107t65.5 -116.5t36 -130.5t16 -131t3 -137q0 -95 -8 -170t-31 -159.5t-72.5 -159t-123.5 -134.5q-88 -73 -192 -99t-259 -26zM594 1200v-905h123q299 0 299 399v127
q0 379 -301 379h-121zM680 1749l131 125h270l-231 -277h-340l-231 277h270zM776 1679l107 127l-133 -127h26zM475 1806l107 -127h26z" />
    <glyph glyph-name="dcaron" unicode="&#x10f;" horiz-adv-x="1294" 
d="M1130 991v123q51 16 71 47t20 82h-91v252h287v-205q0 -136 -67.5 -207.5t-219.5 -91.5zM1282 1323v82h-16v-82h16zM854 342v1026l-186 -31v-18q150 25 166 27v-1004q0 -79 25.5 -133t60.5 -78h100v19h-90q-29 22 -52.5 74t-23.5 118zM1024 281h113v-281h-310
q-42 39 -69 84q-57 -54 -119.5 -78t-144.5 -24q-94 0 -171.5 32.5t-128 85.5t-85 123t-49.5 142.5t-15 146.5q0 84 14.5 159t48.5 144t84.5 118.5t127.5 79t174 29.5q86 0 170 -41v201h-115v260l418 72l57 -37v-1216zM561 768q-81 0 -114 -62.5t-33 -193.5q0 -134 29 -195
t104 -61q63 0 117 43v420q-52 49 -103 49zM520 113q67 0 133 32q38 21 52 35l-7 19q-86 -66 -178 -66q-62 0 -110.5 21t-79.5 56t-51 84.5t-28.5 103t-8.5 114.5q0 52 5.5 99.5t23 100t45 90t75.5 62.5t111 25q91 0 162 -47v20q-11 8 -28.5 16.5t-55.5 18.5t-78 10
q-22 0 -42 -2.5t-50 -12t-55 -25.5t-51.5 -46t-44.5 -70t-30 -101.5t-12 -137.5q0 -62 8 -116t29.5 -107.5t55 -91t87.5 -61t123 -23.5z" />
    <glyph glyph-name="Dcroat" unicode="&#x110;" horiz-adv-x="1490" 
d="M82 645v225h123v330h-144v295h656q161 0 275 -25t210 -100q60 -47 102.5 -107t65.5 -116.5t36 -130.5t16 -131t3 -137q0 -95 -8 -170t-31 -159.5t-72.5 -159t-123.5 -134.5q-88 -73 -192 -99t-259 -26h-676v295h142v350h-123zM193 748h194v-590h-184v-21h526
q145 0 245 41t156.5 122.5t80.5 188.5t24 254q0 149 -26 258.5t-85 191.5t-160.5 123.5t-246.5 41.5h-516v-21h186v-569h-194v-20zM412 748h252v20h-252v569h305q263 0 377 -148t114 -446q0 -69 -4.5 -125.5t-17.5 -118.5t-34.5 -110t-58 -92.5t-86 -74t-120 -47
t-158.5 -17.5h-317v590zM778 645h-184v-350h123q299 0 299 399v127q0 379 -301 379h-121v-330h184v-225z" />
    <glyph glyph-name="dcroat" unicode="&#x111;" horiz-adv-x="1187" 
d="M664 1249h-115v213l418 72l57 -37v-297h123v-123h-123v-796h119v-281h-314q-12 7 -25.5 23.5t-27 35.5t-18.5 25q-57 -54 -119.5 -78t-144.5 -24q-94 0 -171.5 32.5t-128 85.5t-85 123t-49.5 142.5t-15 146.5q0 84 14.5 157.5t48 139.5t84.5 113t128 74.5t174 27.5
q86 0 170 -41v94h-312v123h312v49zM561 750q-83 0 -115 -55t-32 -183q0 -134 29 -195t104 -61q63 0 117 43v401q-53 50 -103 50zM516 113q67 0 133 32q36 20 51 35l-6 19q-86 -66 -178 -66q-62 0 -110.5 21t-79.5 56t-51 84.5t-28.5 103t-8.5 114.5q0 52 5.5 99.5t23 100
t45 90t75.5 62.5t111 25q90 0 161 -47v20q-63 45 -161 45q-22 0 -42 -2.5t-50 -12t-55 -25.5t-51.5 -46t-44.5 -70t-30 -101.5t-12 -137.5q0 -62 8 -116t29.5 -107.5t55 -91t87.5 -61t123 -23.5zM850 342v1026l-186 -31v-18q3 1 69 11.5t96 15.5v-1004q0 -79 25.5 -133
t60.5 -78h101v19h-90q-29 22 -52.5 74t-23.5 118z" />
    <glyph glyph-name="Emacron" unicode="&#x112;" 
d="M301 1618v205h676v-205h-676zM838 1708v14h-408v-14h408zM778 756v20h-356v561h602v-172h25v193h-848v-21h196v-1179h-196v-21h870v219h-27v-198h-622v598h356zM918 629h-314v-334h291v192h332v-487h-1166v295h154v905h-154v295h1135v-455h-293l-22 160h-277v-295h314
v-276z" />
    <glyph glyph-name="emacron" unicode="&#x113;" horiz-adv-x="1024" 
d="M184 1167v205h676v-205h-676zM725 1262v14h-410v-14h410zM549 104q60 0 115.5 11t79 20.5t36.5 16.5l-8 20q-11 -7 -32.5 -15.5t-76 -20t-114.5 -11.5q-44 0 -84.5 9t-84.5 35.5t-76 68t-52.5 112t-20.5 162.5q0 97 24 169.5t57.5 110.5t79.5 61t79 28.5t68 5.5
q26 0 49.5 -2.5t55 -9.5t57 -23t48.5 -39t35.5 -61.5t12.5 -87.5q0 -88 -9 -150h-397v-18h418l2 26q8 65 8 142q0 121 -72 181t-208 60q-167 0 -249.5 -108t-82.5 -285q0 -97 22.5 -172t57 -118.5t81.5 -71t90.5 -37t90.5 -9.5zM547 -18q-120 0 -212.5 35t-146.5 88
t-88.5 126.5t-46.5 141.5t-12 141q0 70 12 136.5t46.5 140t88 127t144.5 89t209 35.5q208 0 323 -100t115 -299q0 -56 -23 -242h-555q6 -68 47 -104.5t113 -36.5q138 0 293 82l92 -258q-44 -26 -66 -36.5t-73 -30t-114.5 -27.5t-145.5 -8zM639 688q-6 38 -33 61t-65 23
q-63 0 -101 -42t-39 -116h240q0 60 -2 74z" />
    <glyph glyph-name="Edotaccent" unicode="&#x116;" 
d="M778 756v20h-356v561h602v-172h25v193h-848v-21h196v-1179h-196v-21h870v219h-27v-198h-622v598h356zM918 629h-314v-334h291v192h332v-487h-1166v295h154v905h-154v295h1135v-455h-293l-22 160h-277v-295h314v-276zM528 1608v256h267v-256h-267zM670 1690v84h-17v-84h17
z" />
    <glyph glyph-name="edotaccent" unicode="&#x117;" horiz-adv-x="1021" 
d="M549 104q60 0 115.5 11t79 20.5t36.5 16.5l-8 20q-11 -7 -32.5 -15.5t-76 -20t-114.5 -11.5q-44 0 -84.5 9t-84.5 35.5t-76 68t-52.5 112t-20.5 162.5q0 97 24 169.5t57.5 110.5t79.5 61t79 28.5t68 5.5q26 0 49.5 -2.5t55 -9.5t57 -23t48.5 -39t35.5 -61.5t12.5 -87.5
q0 -88 -9 -150h-397v-18h418l2 26q8 65 8 142q0 121 -72 181t-208 60q-167 0 -249.5 -108t-82.5 -285q0 -97 22.5 -172t57 -118.5t81.5 -71t90.5 -37t90.5 -9.5zM547 -18q-120 0 -212.5 35t-146.5 88t-88.5 126.5t-46.5 141.5t-12 141q0 70 12 136.5t46.5 140t88 127
t144.5 89t209 35.5q208 0 323 -100t115 -299q0 -56 -23 -242h-555q6 -68 47 -104.5t113 -36.5q138 0 293 82l92 -258q-44 -26 -66 -36.5t-73 -30t-114.5 -27.5t-145.5 -8zM639 688q-6 38 -33 61t-65 23q-63 0 -101 -42t-39 -116h240q0 60 -2 74zM410 1137v256h266v-256h-266
zM551 1219v84h-16v-84h16z" />
    <glyph glyph-name="Eogonek" unicode="&#x118;" 
d="M1178 -291v-127q-56 -33 -158 -33q-117 0 -185.5 58t-68.5 155q0 75 45.5 142t97.5 96h-848v295h154v905h-154v295h1133v-455h-293l-22 160h-275v-295h314v-276h-314v-334h291v192h332v-487h-166q-27 -34 -47.5 -80.5t-20.5 -87.5q0 -123 158 -123h27zM778 756v20h-356
v561h602v-172h25v193h-848v-21h196v-1179h-196v-21h870v219h-27v-198h-622v598h356zM889 -186q-10 -28 -5 -59t18 -56.5t44.5 -41t75.5 -11.5q-65 7 -101.5 56t-31.5 112z" />
    <glyph glyph-name="eogonek" unicode="&#x119;" horiz-adv-x="1024" 
d="M748 -291v-127q-56 -33 -158 -33q-117 0 -185.5 58t-68.5 155q0 68 37 128.5t86 97.5q-99 11 -175.5 50.5t-121.5 92t-73 121.5t-38 131.5t-10 130.5q0 70 12 136.5t46.5 140t88 127t144.5 89t209 35.5q208 0 323 -100t115 -299q0 -56 -23 -242h-555q6 -68 47 -104.5
t113 -36.5q138 0 293 82l92 -258q-47 -29 -77.5 -44.5t-97.5 -33t-150 -22.5q-24 -31 -41 -73t-17 -79q0 -123 158 -123h27zM639 688q-6 38 -33 61t-65 23q-63 0 -101 -42t-39 -116h240q0 60 -2 74zM549 106q59 0 113.5 10.5t78 19.5t35.5 16l-6 16q-10 -6 -31.5 -14.5
t-75.5 -19.5t-114 -11q-37 0 -71.5 6.5t-72.5 22.5t-68.5 45t-56 70.5t-39.5 104t-14 140.5q0 71 12.5 129t33 96.5t49 67.5t56 44.5t59.5 25t55.5 12t46.5 2.5q28 0 56.5 -3.5t68 -17t68.5 -36.5t50 -67t21 -103q0 -82 -10 -150h-398v-14h410q12 126 12 164
q0 116 -73 178.5t-205 62.5q-165 0 -246.5 -107.5t-81.5 -283.5q0 -96 22 -170.5t56.5 -118t81 -71t89.5 -37t89 -9.5zM459 -186q-10 -28 -5 -59t18 -56.5t44.5 -41t75.5 -11.5q-65 7 -101.5 56t-31.5 112z" />
    <glyph glyph-name="Ecaron" unicode="&#x11a;" 
d="M778 756v20h-356v561h602v-172h25v193h-848v-21h196v-1179h-196v-21h870v219h-27v-198h-622v598h356zM918 629h-314v-334h291v192h332v-487h-1166v295h154v905h-154v295h1135v-455h-293l-22 160h-277v-295h314v-276zM639 1749l131 125h270l-231 -277h-340l-231 277h270z
M735 1679l107 127l-133 -127h26zM434 1806l107 -127h26z" />
    <glyph glyph-name="ecaron" unicode="&#x11b;" horiz-adv-x="1024" 
d="M549 104q60 0 115.5 11t79 20.5t36.5 16.5l-8 20q-11 -7 -32.5 -15.5t-76 -20t-114.5 -11.5q-44 0 -84.5 9t-84.5 35.5t-76 68t-52.5 112t-20.5 162.5q0 97 24 169.5t57.5 110.5t79.5 61t79 28.5t68 5.5q26 0 49.5 -2.5t55 -9.5t57 -23t48.5 -39t35.5 -61.5t12.5 -87.5
q0 -88 -9 -150h-397v-18h418l2 26q8 65 8 142q0 121 -72 181t-208 60q-167 0 -249.5 -108t-82.5 -285q0 -97 22.5 -172t57 -118.5t81.5 -71t90.5 -37t90.5 -9.5zM547 -18q-120 0 -212.5 35t-146.5 88t-88.5 126.5t-46.5 141.5t-12 141q0 70 12 136.5t46.5 140t88 127
t144.5 89t209 35.5q208 0 323 -100t115 -299q0 -56 -23 -242h-555q6 -68 47 -104.5t113 -36.5q138 0 293 82l92 -258q-44 -26 -66 -36.5t-73 -30t-114.5 -27.5t-145.5 -8zM639 688q-6 38 -33 61t-65 23q-63 0 -101 -42t-39 -116h240q0 60 -2 74zM539 1278l131 125h270
l-231 -277h-340l-232 277h271zM635 1208l106 127l-133 -127h27zM334 1335l106 -127h27z" />
    <glyph glyph-name="Gcircumflex" unicode="&#x11c;" horiz-adv-x="1394" 
d="M758 123q71 0 135.5 11.5t106 26.5t76 33.5t47 28t18.5 15.5v428h-254v-21h229v-399q-143 -103 -358 -103q-136 0 -233 42t-153.5 123.5t-82 189t-25.5 250.5q0 54 5 106t19 114t36 115t60.5 104t89 87t123.5 58t161 22q105 0 200.5 -24t137.5 -44v-170h24v182
q-17 9 -53 22.5t-128 33.5t-181 20q-256 0 -387 -167.5t-131 -458.5q0 -108 13.5 -195.5t49.5 -169.5t93 -138t149 -89t213 -33zM758 -27q-705 0 -705 775q0 81 4 142t18 134t38.5 131t68 118t103.5 109q170 140 473 140q289 -9 534 -125l-22 -400h-312l-22 187q-7 1 -44 9
t-67.5 11.5t-66.5 3.5q-295 0 -295 -393v-135q0 -60 8 -113.5t29 -106t53.5 -90t85 -60.5t119.5 -23q130 0 196 30v207h-196v277h547v-637q-120 -104 -246.5 -147.5t-300.5 -43.5zM889 1597l-131 125l-131 -125h-271l232 277h340l231 -277h-270zM662 1792l-107 -127l133 127
h-26zM963 1665l-107 127h-27z" />
    <glyph glyph-name="gcircumflex" unicode="&#x11d;" horiz-adv-x="1171" 
d="M545 365q154 0 239.5 68t85.5 204q0 138 -79 212.5t-236 74.5q-41 0 -79 -5.5t-83 -23t-77 -46.5t-54 -81.5t-22 -122.5q0 -135 79.5 -207.5t225.5 -72.5zM555 905q39 0 74.5 -5t77 -22.5t71.5 -45.5t50 -78t20 -117q0 -65 -23 -114t-55.5 -75t-77 -41.5t-78.5 -19.5
t-69 -4q-134 0 -208.5 69t-74.5 193q0 66 20.5 115t50 76t72 43.5t77 21t73.5 4.5zM887 932l16 -17q40 33 73 46.5t83 9.5l2 22q-56 5 -94 -10.5t-80 -50.5zM205 -25l-23 -20q3 -122 64 -188q88 -95 336 -95q52 0 98 4.5t100.5 19t93.5 38t65 66.5t26 100q0 38 -12 68
t-28 49t-46 32.5t-53.5 20t-63.5 10t-62 4t-62 0.5h-9q-61 0 -109 8.5t-74 20.5t-42.5 25.5t-21.5 21t-5 10.5l-12 -20q1 -1 7.5 -8t11.5 -12t16.5 -13.5t24 -14.5t33.5 -13.5t44 -12t56 -7.5t71 -3q170 0 240.5 -35.5t70.5 -130.5q0 -52 -24 -91t-60 -61t-86 -35.5
t-94.5 -17.5t-93.5 -4q-110 0 -195 23t-125 69q-31 36 -43 79t-14 113zM1042 649q0 -93 -29.5 -164t-77.5 -114.5t-117.5 -70t-141.5 -36.5t-158 -10q-3 0 -8.5 1t-9.5 1q10 -51 213 -51q122 0 207 -20.5t132 -61t67 -91.5t20 -120q0 -367 -551 -367q-108 0 -191.5 10
t-156.5 35.5t-120 66.5t-73.5 104.5t-26.5 148.5v104q227 116 283 285q-233 79 -233 350q0 106 38.5 184.5t106.5 122.5t151 65t183 21q150 0 246 -34q50 60 102 87t131 27q76 0 129 -28l-18 -246h-144q47 -71 47 -199zM434 680v-66q0 -59 29 -85t86 -31q129 0 129 116v66
q0 59 -33 88t-90 29q-56 0 -88.5 -29t-32.5 -88zM659 -51q-69 0 -111 2t-94.5 12.5t-86.5 30.5v-41q0 -131 215 -131q100 0 145 15.5t45 53.5q0 30 -22 44t-91 14zM719 1126l-131 125l-131 -125h-271l232 277h340l231 -277h-270zM492 1321l-107 -127l133 127h-26zM793 1194
l-107 127h-27z" />
    <glyph glyph-name="Gbreve" unicode="&#x11e;" horiz-adv-x="1386" 
d="M756 123q71 0 135.5 11.5t106 26.5t76 33.5t47 28t18.5 15.5v428h-254v-21h229v-399q-143 -103 -358 -103q-136 0 -233 42t-153.5 123.5t-82 189t-25.5 250.5q0 54 5 106t19 114t36 115t60.5 104t89 87t123.5 58t161 22q105 0 200.5 -24t137.5 -44v-170h24v182
q-17 9 -53 22.5t-128 33.5t-181 20q-256 0 -387 -167.5t-131 -458.5q0 -108 13.5 -195.5t49.5 -169.5t93 -138t149 -89t213 -33zM756 -27q-705 0 -705 775q0 81 4 142t18 134t38.5 131t68 118t103.5 109q170 140 473 140q289 -9 534 -125l-22 -400h-312l-22 187q-7 1 -44 9
t-67.5 11.5t-66.5 3.5q-295 0 -295 -393v-135q0 -60 8 -113.5t29 -106t53.5 -90t85 -60.5t119.5 -23q130 0 196 30v207h-196v277h547v-637q-120 -104 -246.5 -147.5t-300.5 -43.5zM741 1593h-32q-361 0 -361 222v59h262v-35q0 -17 0.5 -25t5.5 -26.5t14.5 -28.5t30 -19
t50.5 -9h37q30 0 50.5 9.5t30 20t14 31t5 28t0.5 25.5v29h262v-59q0 -63 -26 -107t-77 -68.5t-115.5 -35.5t-150.5 -11zM487 1794v14h-16v-14q0 -61 57 -84q-41 30 -41 84zM971 1808v-14q0 -54 -41 -84q57 23 57 84v14h-16z" />
    <glyph glyph-name="gbreve" unicode="&#x11f;" horiz-adv-x="1179" 
d="M553 365q154 0 240 68t86 204q0 138 -79.5 212.5t-236.5 74.5q-41 0 -79 -5.5t-83 -23t-77 -46.5t-54 -81.5t-22 -122.5q0 -135 79.5 -207.5t225.5 -72.5zM563 905q39 0 74.5 -5t77 -22.5t71.5 -45.5t50 -78t20 -117q0 -65 -23 -114t-55.5 -75t-77 -41.5t-78.5 -19.5
t-69 -4q-134 0 -208.5 69t-74.5 193q0 66 20.5 115t50 76t72 43.5t77 21t73.5 4.5zM895 932l16 -17q40 33 73 46.5t83 9.5l2 22q-56 5 -94 -10.5t-80 -50.5zM213 -25l-23 -20q3 -122 64 -188q88 -95 336 -95q52 0 98 4.5t100.5 19t93.5 38t65 66.5t26 100q0 38 -12 68
t-28 49t-46 32.5t-53.5 20t-63.5 10t-62 4t-62 0.5h-9q-61 0 -109 8.5t-74 20.5t-42.5 25.5t-21.5 21t-5 10.5l-12 -20q1 -1 7.5 -8t11.5 -12t16.5 -13.5t24 -14.5t33.5 -13.5t44 -12t56 -7.5t71 -3q170 0 240.5 -35.5t70.5 -130.5q0 -52 -24 -91t-60 -61t-86 -35.5
t-94.5 -17.5t-93.5 -4q-110 0 -195 23t-125 69q-31 36 -43 79t-14 113zM1051 649q0 -395 -525 -395q-3 0 -8.5 1t-9.5 1q10 -51 213 -51q122 0 207 -20.5t132 -61t67 -91.5t20 -120q0 -367 -551 -367q-108 0 -191.5 10t-156 35.5t-119.5 66.5t-73.5 104.5t-26.5 148.5v104
q225 115 282 285q-233 79 -233 350q0 106 38.5 184.5t106.5 122.5t151 65t183 21q150 0 246 -34q50 60 102 87t131 27q76 0 129 -28l-18 -246h-143q47 -71 47 -199zM442 680v-66q0 -59 29 -85t86 -31q129 0 129 116v66q0 59 -33 88t-90 29q-56 0 -88.5 -29t-32.5 -88z
M668 -51q-69 0 -111.5 2t-95 12.5t-86.5 30.5v-41q0 -131 215 -131q100 0 145 15.5t45 53.5q0 30 -21.5 44t-90.5 14zM575 1122h-32q-361 0 -361 221v60h262v-35q0 -17 0.5 -25t5.5 -26.5t14.5 -28.5t30 -19t50.5 -9h37q30 0 50.5 9.5t30 20t14 31t5 28t0.5 25.5v29h262v-60
q0 -63 -26 -107t-77 -68.5t-115.5 -35t-150.5 -10.5zM322 1323v14h-17v-14q0 -61 57 -84q-40 30 -40 84zM805 1337v-14q0 -54 -41 -84q57 23 57 84v14h-16z" />
    <glyph glyph-name="Gdotaccent" unicode="&#x120;" horiz-adv-x="1394" 
d="M758 123q71 0 135.5 11.5t106 26.5t76 33.5t47 28t18.5 15.5v428h-254v-21h229v-399q-143 -103 -358 -103q-136 0 -233 42t-153.5 123.5t-82 189t-25.5 250.5q0 54 5 106t19 114t36 115t60.5 104t89 87t123.5 58t161 22q105 0 200.5 -24t137.5 -44v-170h24v182
q-17 9 -53 22.5t-128 33.5t-181 20q-256 0 -387 -167.5t-131 -458.5q0 -108 13.5 -195.5t49.5 -169.5t93 -138t149 -89t213 -33zM758 -27q-705 0 -705 775q0 81 4 142t18 134t38.5 131t68 118t103.5 109q170 140 473 140q289 -9 534 -125l-22 -400h-312l-22 187q-7 1 -44 9
t-67.5 11.5t-66.5 3.5q-295 0 -295 -393v-135q0 -60 8 -113.5t29 -106t53.5 -90t85 -60.5t119.5 -23q130 0 196 30v207h-196v277h547v-637q-120 -104 -246.5 -147.5t-300.5 -43.5zM618 1608v256h267v-256h-267zM760 1690v84h-17v-84h17z" />
    <glyph glyph-name="gdotaccent" unicode="&#x121;" horiz-adv-x="1171" 
d="M545 365q154 0 239.5 68t85.5 204q0 138 -79 212.5t-236 74.5q-41 0 -79 -5.5t-83 -23t-77 -46.5t-54 -81.5t-22 -122.5q0 -135 79.5 -207.5t225.5 -72.5zM555 905q39 0 74.5 -5t77 -22.5t71.5 -45.5t50 -78t20 -117q0 -65 -23 -114t-55.5 -75t-77 -41.5t-78.5 -19.5
t-69 -4q-134 0 -208.5 69t-74.5 193q0 66 20.5 115t50 76t72 43.5t77 21t73.5 4.5zM887 932l16 -17q40 33 73 46.5t83 9.5l2 22q-56 5 -94 -10.5t-80 -50.5zM205 -25l-23 -20q3 -122 64 -188q88 -95 336 -95q52 0 98 4.5t100.5 19t93.5 38t65 66.5t26 100q0 38 -12 68
t-28 49t-46 32.5t-53.5 20t-63.5 10t-62 4t-62 0.5h-9q-61 0 -109 8.5t-74 20.5t-42.5 25.5t-21.5 21t-5 10.5l-12 -20q1 -1 7.5 -8t11.5 -12t16.5 -13.5t24 -14.5t33.5 -13.5t44 -12t56 -7.5t71 -3q170 0 240.5 -35.5t70.5 -130.5q0 -52 -24 -91t-60 -61t-86 -35.5
t-94.5 -17.5t-93.5 -4q-110 0 -195 23t-125 69q-31 36 -43 79t-14 113zM1042 649q0 -93 -29.5 -164t-77.5 -114.5t-117.5 -70t-141.5 -36.5t-158 -10q-3 0 -8.5 1t-9.5 1q10 -51 213 -51q122 0 207 -20.5t132 -61t67 -91.5t20 -120q0 -367 -551 -367q-108 0 -191.5 10
t-156.5 35.5t-120 66.5t-73.5 104.5t-26.5 148.5v104q227 116 283 285q-233 79 -233 350q0 106 38.5 184.5t106.5 122.5t151 65t183 21q150 0 246 -34q50 60 102 87t131 27q76 0 129 -28l-18 -246h-144q47 -71 47 -199zM434 680v-66q0 -59 29 -85t86 -31q129 0 129 116v66
q0 59 -33 88t-90 29q-56 0 -88.5 -29t-32.5 -88zM659 -51q-69 0 -111 2t-94.5 12.5t-86.5 30.5v-41q0 -131 215 -131q100 0 145 15.5t45 53.5q0 30 -22 44t-91 14zM449 1137v256h266v-256h-266zM590 1219v84h-17v-84h17z" />
    <glyph glyph-name="Gcommaaccent" unicode="&#x122;" horiz-adv-x="1390" 
d="M590 -608v123q51 16 70.5 47t19.5 82h-90v252h287v-205q0 -136 -67.5 -207.5t-219.5 -91.5zM741 -276v81h-16v-81h16zM754 123q71 0 135.5 11.5t106 26.5t76 33.5t47 28t18.5 15.5v428h-254v-21h229v-399q-143 -103 -358 -103q-136 0 -233 42t-153.5 123.5t-82 189
t-25.5 250.5q0 54 5 106t19 114t36 115t60.5 104t89 87t123.5 58t161 22q105 0 200.5 -24t137.5 -44v-170h24v182q-17 9 -53 22.5t-128 33.5t-181 20q-256 0 -387 -167.5t-131 -458.5q0 -108 13.5 -195.5t49.5 -169.5t93 -138t149 -89t213 -33zM754 -27q-705 0 -705 775
q0 81 4 142t18 134t38.5 131t68 118t103.5 109q170 140 473 140q289 -9 534 -125l-22 -400h-312l-22 187q-7 1 -44 9t-67.5 11.5t-66.5 3.5q-295 0 -295 -393v-135q0 -60 8 -113.5t29 -106t53.5 -90t85 -60.5t119.5 -23q130 0 196 30v207h-196v277h546v-637
q-120 -104 -246 -147.5t-300 -43.5z" />
    <glyph glyph-name="gcommaaccent" unicode="&#x123;" horiz-adv-x="1171" 
d="M696 1630v-123q-51 -16 -70.5 -47t-19.5 -82h90v-252h-286v205q0 136 67 207.5t219 91.5zM545 1298v-81h16v81h-16zM545 365q154 0 239.5 68t85.5 204q0 138 -79 212.5t-236 74.5q-41 0 -79 -5.5t-83 -23t-77 -46.5t-54 -81.5t-22 -122.5q0 -135 79.5 -207.5t225.5 -72.5
zM555 905q39 0 74.5 -5t77 -22.5t71.5 -45.5t50 -78t20 -117q0 -65 -23 -114t-55.5 -75t-77 -41.5t-78.5 -19.5t-69 -4q-134 0 -208.5 69t-74.5 193q0 66 20.5 115t50 76t72 43.5t77 21t73.5 4.5zM887 932l16 -17q40 33 73 46.5t83 9.5l2 22q-56 5 -94 -10.5t-80 -50.5z
M205 -25l-23 -20q3 -122 64 -188q88 -95 336 -95q52 0 98 4.5t100.5 19t93.5 38t65 66.5t26 100q0 38 -12 68t-28 49t-46 32.5t-53.5 20t-63.5 10t-62 4t-62 0.5h-9q-61 0 -109 8.5t-74 20.5t-42.5 25.5t-21.5 21t-5 10.5l-12 -20q1 -1 7.5 -8t11.5 -12t16.5 -13.5t24 -14.5
t33.5 -13.5t44 -12t56 -7.5t71 -3q170 0 240.5 -35.5t70.5 -130.5q0 -52 -24 -91t-60 -61t-86 -35.5t-94.5 -17.5t-93.5 -4q-110 0 -195 23t-125 69q-31 36 -43 79t-14 113zM1042 649q0 -93 -29.5 -164t-77.5 -114.5t-117.5 -70t-141.5 -36.5t-158 -10q-3 0 -8.5 1t-9.5 1
q10 -51 213 -51q122 0 207 -20.5t132 -61t67 -91.5t20 -120q0 -367 -551 -367q-108 0 -191.5 10t-156.5 35.5t-120 66.5t-73.5 104.5t-26.5 148.5v104q227 116 283 285q-233 79 -233 350q0 106 38.5 184.5t106.5 122.5t151 65t183 21q150 0 246 -34q50 60 102 87t131 27
q76 0 129 -28l-18 -246h-144q47 -71 47 -199zM434 680v-66q0 -59 29 -85t86 -31q129 0 129 116v66q0 59 -33 88t-90 29q-56 0 -88.5 -29t-32.5 -88zM659 -51q-69 0 -111 2t-94.5 12.5t-86.5 30.5v-41q0 -131 215 -131q100 0 145 15.5t45 53.5q0 30 -22 44t-91 14z" />
    <glyph glyph-name="Hcircumflex" unicode="&#x124;" horiz-adv-x="1691" 
d="M1495 1337v21h-405v-21h192v-561h-674v-20h674v-598h-195v-21h406v21h-186v1179h188zM627 1337v21h-416v-21h190v-1179h-200v-21h424v21h-199v1179h201zM950 1495h684v-295h-145v-905h143v-295h-684v295h152v334h-492v-334h156v-295h-703v295h158v905h-147v295h694v-295
h-158v-295h492v295h-150v295zM967 1597l-131 125l-131 -125h-271l232 277h340l231 -277h-270zM739 1792l-106 -127l133 127h-27zM1040 1665l-106 127h-27z" />
    <glyph glyph-name="hcircumflex" unicode="&#x125;" horiz-adv-x="1259" 
d="M342 1368l-184 -31v-18q12 2 73 12t91 15v-1196h-132v-19h289v19h-137v1218zM512 903l68 82q88 47 178 47q192 0 277 -105.5t85 -318.5v-327h99v-281h-459v555q0 57 -7.5 94t-32.5 62.5t-69 25.5q-83 0 -139 -80v-376h96v-281h-547v281h91v921h-115v260l418 72l57 -37
v-594zM1090 131v19h-140v425q0 52 -4.5 93t-19 84t-39.5 71t-68 46t-102 18q-119 0 -205 -86v-23q92 92 205 92q110 0 161.5 -70.5t51.5 -224.5v-444h160zM449 1597l-132 125l-131 -125h-270l231 277h340l232 -277h-270zM221 1792l-106 -127l133 127h-27zM522 1665l-106 127
h-27z" />
    <glyph glyph-name="Hbar" unicode="&#x126;" horiz-adv-x="1697" 
d="M950 1495h684v-295h-145v-67h147v-162h-147v-676h143v-295h-684v295h152v334h-492v-334h156v-295h-703v295h158v676h-153v162h153v67h-156v295h703v-295h-158v-67h492v67h-150v295zM608 905h492v66h-492v-66zM1495 1337v21h-405v-21h192v-561h-674v-20h674v-598h-195v-21
h406v21h-186v1179h188zM627 1337v21h-416v-21h190v-1179h-200v-21h424v21h-199v1179h201z" />
    <glyph glyph-name="hbar" unicode="&#x127;" horiz-adv-x="1267" 
d="M160 1202h-115v260l418 72l57 -37v-344h410v-201h-410v-178q57 64 136.5 96.5t156.5 32.5q161 0 238 -93.5t77 -295.5v-233h103v-281h-463v465q0 33 -2.5 55.5t-11 51t-29 44t-53.5 15.5q-28 0 -51.5 -10t-34 -19t-34.5 -35.5t-32 -34.5v-251h119v-281h-588v281h109v671
h-115v201h115v49zM520 649q105 105 232 105q94 0 141 -63.5t47 -201.5v-358h154v19h-133v339q0 283 -209 283q-78 0 -137 -36.5t-95 -86.5zM496 131v19h-148v1228l-196 -32v-19l176 29v-295h-158v-19h158v-892h-138v-19h306zM801 1042v19h-281v-19h281z" />
    <glyph glyph-name="Itilde" unicode="&#x128;" horiz-adv-x="866" 
d="M664 1337v21h-453v-21h215v-1179h-221v-21h463v21h-217v1179h213zM72 1495h731v-295h-170v-905h174v-295h-741v295h178v905h-172v295zM295 1901q82 0 176 -54q68 -37 98 -37q20 0 33.5 3.5t43 25t67.5 62.5l141 -154q-93 -85 -150 -116.5t-126 -31.5q-83 0 -177 54
q-68 37 -98 37q-19 0 -33 -4t-42.5 -25t-67.5 -62l-142 154q93 85 150.5 116.5t126.5 31.5zM299 1786q26 0 68 -10q-39 20 -72 20q-71 0 -129 -53l10 -12q60 55 123 55zM584 1706q-26 0 -68 10q39 -20 72 -20q71 0 129 53l-10 12q-60 -55 -123 -55z" />
    <glyph glyph-name="itilde" unicode="&#x129;" horiz-adv-x="696" 
d="M510 1044l41 -32v-731h102v-281h-587v281h124v462h-120v263zM524 131v19h-143v747l-195 -16v-19q28 3 87 7.5t87 7.5v-727h-165v-19h329zM180 1430q82 0 176 -54q68 -37 99 -37q19 0 33 4t42.5 25t67.5 62l141 -154q-93 -85 -150 -116.5t-126 -31.5q-82 0 -176 54
q-68 37 -99 37q-19 0 -33 -4t-42.5 -25t-67.5 -62l-141 154q93 85 150 116.5t126 31.5zM184 1315q26 0 68 -10q-39 20 -72 20q-71 0 -129 -53l10 -12q60 55 123 55zM469 1235q-26 0 -68 10q39 -20 72 -20q71 0 129 53l-10 12q-60 -55 -123 -55z" />
    <glyph glyph-name="imacron" unicode="&#x12b;" horiz-adv-x="675" 
d="M0 1167v205h676v-205h-676zM510 1044l41 -32v-731h102v-281h-587v281h124v462h-120v263zM524 131v19h-143v745l-195 -16v-19l174 14v-724h-165v-19h329zM543 1262v14h-410v-14h410z" />
    <glyph glyph-name="Iogonek" unicode="&#x12e;" horiz-adv-x="866" 
d="M657 -291v-127q-56 -33 -157 -33q-117 0 -185.5 58t-68.5 155q0 75 45.5 142t97.5 96h-323v295h178v905h-172v295h731v-295h-170v-905h174v-295h-266q-27 -34 -47.5 -80.5t-20.5 -87.5q0 -123 158 -123h26zM369 -186q-10 -28 -5 -59t18 -56.5t44.5 -41t75.5 -11.5
q-65 7 -101.5 56t-31.5 112zM664 1337v21h-453v-21h215v-1179h-221v-21h463v21h-217v1179h213z" />
    <glyph glyph-name="iogonek" unicode="&#x12f;" horiz-adv-x="696" 
d="M553 -291v-127q-56 -33 -158 -33q-117 0 -185.5 58t-68.5 155q0 75 46 142t98 96h-217v281h122v462h-120v263l440 38l41 -32v-731h102v-281h-217q-26 -33 -46.5 -80t-20.5 -88q0 -123 157 -123h27zM127 1288q0 72 63.5 125t151.5 53q95 0 156 -52t61 -126
q0 -77 -60.5 -129.5t-156.5 -52.5q-88 0 -151.5 53.5t-63.5 128.5zM524 131v19h-143v745l-195 -16v-19l174 14v-724h-165v-19h329zM379 1276v24h-72v-24h72zM264 -186q-10 -28 -5 -59t18 -56.5t44.5 -41t75.5 -11.5q-65 7 -101.5 56t-31.5 112z" />
    <glyph glyph-name="Idotaccent" unicode="&#x130;" horiz-adv-x="868" 
d="M664 1337v21h-453v-21h215v-1179h-221v-21h463v21h-217v1179h213zM72 1495h731v-295h-170v-905h174v-295h-741v295h178v905h-172v295zM301 1608v256h266v-256h-266zM442 1690v84h-16v-84h16z" />
    <glyph glyph-name="dotlessi" unicode="&#x131;" horiz-adv-x="690" 
d="M508 1044l41 -32v-731h102v-281h-585v281h122v462h-120v263zM524 131v19h-143v745l-195 -16v-19l174 14v-724h-165v-19h329z" />
    <glyph glyph-name="Jcircumflex" unicode="&#x134;" horiz-adv-x="1042" 
d="M383 109q76 0 132.5 23.5t89 59.5t52.5 89.5t26.5 105t6.5 113.5v837h162v21h-406v-21h220v-837q0 -80 -11.5 -141t-41 -116.5t-87.5 -85.5t-143 -30q-83 0 -168 37v201h-25v-211q90 -45 193 -45zM41 74v422h289l30 -226h21q32 0 54 20.5t31.5 54t13 60.5t3.5 56v739
h-176v295h684v-295h-119v-618q0 -79 -2.5 -123.5t-13 -110.5t-37 -121t-69.5 -106q-121 -146 -379 -146q-105 0 -191 27.5t-139 71.5zM762 1597l-131 125l-131 -125h-271l232 277h340l231 -277h-270zM535 1792l-107 -127l133 127h-26zM836 1665l-107 127h-27z" />
    <glyph glyph-name="jcircumflex" unicode="&#x135;" horiz-adv-x="636" 
d="M360 877v-803q0 -91 -15 -160t-38 -108t-54.5 -62.5t-59 -31t-58.5 -7.5q-37 0 -94 19l-2 94h-23v-109q11 -7 45.5 -15.5t73.5 -8.5q61 0 106.5 25.5t71.5 63.5t42 92.5t21 103.5t5 104v823l-193 -16v-19q28 3 86 7.5t86 7.5zM176 -221h14v964h-120v263l440 38l41 -32
v-873q0 -134 -31 -238.5t-77.5 -165t-108 -99.5t-115 -52.5t-106.5 -13.5q-133 0 -236 59l10 297h211zM434 1126l-131 125l-131 -125h-270l231 277h340l232 -277h-271zM207 1321l-107 -127l133 127h-26zM508 1194l-107 127h-26z" />
    <glyph glyph-name="Kcommaaccent" unicode="&#x136;" horiz-adv-x="1632" 
d="M688 -608v123q51 16 70.5 47t19.5 82h-90v252h287v-205q0 -136 -67.5 -207.5t-219.5 -91.5zM840 -276v81h-17v-81h17zM1425 137v21h-174l-430 659l250 344q25 34 32 43t32 39t41 42t42 29.5t54 24.5t59 7q39 0 74 -9v-186h20v201q-38 14 -94 14q-21 0 -40.5 -3.5
t-35 -6.5t-33 -13.5t-28 -15.5t-28 -21t-24 -21.5t-24.5 -27t-22 -26.5t-24 -30.5t-23 -29.5l-261 -354l449 -680h188zM621 1337v21h-412v-21h221v-1179h-229v-21h467v21h-213v1179h166zM1012 840l344 -545h209v-295h-455l-473 748v-453h170v-295h-746v295h187v905h-178v295
h690v-295h-123v-344l297 406q87 117 183.5 179t213.5 62q111 0 240 -35l-10 -444h-273l-39 160l-59 -99z" />
    <glyph glyph-name="kcommaaccent" unicode="&#x137;" horiz-adv-x="1269" 
d="M510 -608v123q51 16 70.5 47t19.5 82h-90v252h287v-205q0 -136 -67.5 -207.5t-219.5 -91.5zM662 -276v81h-17v-81h17zM1092 131v19h-136l-256 460l136 176q67 91 163 91q23 0 58 -5v-124h20v141q-30 6 -78 6q-107 0 -182 -98l-141 -185l266 -481h150zM360 1368l-186 -31
v-18l166 27v-1196h-133v-19h278v19h-125v1218zM1047 281h174v-281h-381l-310 553v-272h84v-281h-551v281h107v921h-115v260l418 72l57 -37v-852l154 191q73 93 149.5 145.5t176.5 52.5q31 0 60 -2.5t41.5 -4.5t50 -10t50.5 -11l-28 -355h-191l-49 84l-84 -104z" />
    <glyph glyph-name="kgreenlandic" unicode="&#x138;" horiz-adv-x="1269" 
d="M1092 131v19h-136l-256 460l136 176q67 91 163 91q23 0 58 -5v-124h20v141q-30 6 -78 6q-107 0 -182 -98l-141 -185l266 -481h150zM360 1368l-186 -31v-18l166 27v-1196h-133v-19h278v19h-125v1218zM1047 281h174v-281h-381l-310 553v-272h84v-281h-551v281h107v921h-115
v260l418 72l57 -37v-852l154 191q73 93 149.5 145.5t176.5 52.5q31 0 60 -2.5t41.5 -4.5t50 -10t50.5 -11l-28 -355h-191l-49 84l-84 -104z" />
    <glyph glyph-name="Lacute" unicode="&#x139;" horiz-adv-x="1269" 
d="M643 1337v21h-438v-21h198v-1179h-182v-21h834v230h-25v-209h-602v1179h215zM782 1495v-295h-172v-905h267v227h331v-522h-1126v295h139v905h-155v295h716zM836 1874l-299 -277h-271l232 277h338zM465 1669l135 125h-31z" />
    <glyph glyph-name="lacute" unicode="&#x13a;" horiz-adv-x="704" 
d="M383 1368l-186 -31v-18q3 1 69 11.5t96 15.5v-1196h-133v-19h289v19h-135v1218zM193 1202h-115v260l418 72l57 -37v-1216h125v-281h-606v281h121v921zM694 1874l-299 -277h-270l231 277h338zM324 1669l135 125h-31z" />
    <glyph glyph-name="Lcommaaccent" unicode="&#x13b;" horiz-adv-x="1269" 
d="M457 -608v123q51 16 70.5 47t19.5 82h-90v252h286v-205q0 -136 -67 -207.5t-219 -91.5zM608 -276v81h-16v-81h16zM643 1337v21h-438v-21h198v-1179h-182v-21h834v230h-25v-209h-602v1179h215zM782 1495v-295h-172v-905h267v227h331v-522h-1126v295h139v905h-155v295h716z
" />
    <glyph glyph-name="lcommaaccent" unicode="&#x13c;" horiz-adv-x="710" 
d="M225 -608v123q51 16 70.5 47t19.5 82h-90v252h287v-205q0 -136 -67.5 -207.5t-219.5 -91.5zM377 -276v81h-17v-81h17zM375 1368l-187 -31v-18q150 25 166 27v-1196h-133v-19h289v19h-135v1218zM184 1202h-114v260l417 72l58 -37v-1216h125v-281h-607v281h121v921z" />
    <glyph glyph-name="Lcaron" unicode="&#x13d;" horiz-adv-x="1269" 
d="M940 991v123q51 16 70.5 47t19.5 82h-90v252h287v-205q0 -136 -67.5 -207.5t-219.5 -91.5zM1092 1323v82h-17v-82h17zM643 1337v21h-438v-21h198v-1179h-182v-21h834v230h-25v-209h-602v1179h215zM782 1495v-295h-172v-905h267v227h331v-522h-1126v295h139v905h-155v295
h716z" />
    <glyph glyph-name="lcaron" unicode="&#x13e;" horiz-adv-x="808" 
d="M645 991v123q51 16 70.5 47t19.5 82h-90v252h287v-205q0 -136 -67.5 -207.5t-219.5 -91.5zM797 1323v82h-17v-82h17zM373 1368l-187 -31v-18q150 25 166 27v-1196h-133v-19h289v19h-135v1218zM182 1202h-114v260l417 72l58 -37v-1216h125v-281h-607v281h121v921z" />
    <glyph glyph-name="Lslash" unicode="&#x141;" horiz-adv-x="1275" 
d="M782 1495v-295h-172v-285l226 99v-238l-226 -98v-383h267v217h331v-512h-1126v295h139v217l-170 -74v238l170 74v450h-155v295h716zM643 1337v21h-438v-21h198v-620l-237 -105v-22l237 104v-536h-182v-21h834v230h-25v-209h-602v547l289 126v23l-289 -127v610h215z" />
    <glyph glyph-name="lslash" unicode="&#x142;" horiz-adv-x="749" 
d="M201 1202h-115v260l418 72l57 -37v-586l164 72v-238l-164 -73v-391h125v-281h-606v281h121v235l-172 -74v240l172 74v446zM623 807v22l-232 -102v641l-186 -31v-18l166 27v-627l-234 -103v-22l234 102v-546h-131v-19h288v19h-137v555z" />
    <glyph glyph-name="Nacute" unicode="&#x143;" horiz-adv-x="1628" 
d="M1239 131h33v1206h164v21h-365v-21h176v-1173l-792 1194h-250v-21h180v-1179h-182v-21h379v21h-172v1179h28zM1069 651h6v549h-143v295h643v-295h-141v-1200h-304l-555 842v-547h146v-295h-658v295h154v905h-151v295h475l508 -770zM1161 1874l-299 -277h-270l231 277h338
zM791 1669l135 125h-31z" />
    <glyph glyph-name="nacute" unicode="&#x144;" horiz-adv-x="1263" 
d="M664 737q-84 0 -140 -80v-376h97v-281h-547v281h90v464h-117v259l399 40q26 -55 50 -149l82 92q99 45 186 45q192 0 279 -106t87 -318v-327h97v-281h-457v555q0 88 -22 135t-84 47zM160 877v-19l174 16v-724h-131v-19h289v19h-138v745zM1098 131v19h-137v487
q0 252 -224 252q-38 0 -75.5 -9.5t-63 -21.5t-48.5 -27t-31.5 -22.5t-12.5 -11.5l2 -25q12 12 34 29.5t80 43t115 25.5q203 0 203 -233v-506h158zM969 1403l-299 -277h-271l232 277h338zM598 1198l135 125h-31z" />
    <glyph glyph-name="Ncommaaccent" unicode="&#x145;" horiz-adv-x="1628" 
d="M670 -608v123q51 16 70.5 47t19.5 82h-90v252h286v-205q0 -136 -67 -207.5t-219 -91.5zM821 -276v81h-16v-81h16zM1239 131h33v1206h164v21h-365v-21h176v-1173l-792 1194h-250v-21h180v-1179h-182v-21h379v21h-172v1179h28zM1069 651h6v549h-143v295h643v-295h-141
v-1200h-304l-555 842v-547h146v-295h-658v295h154v905h-151v295h475l508 -770z" />
    <glyph glyph-name="ncommaaccent" unicode="&#x146;" horiz-adv-x="1265" 
d="M492 -608v123q51 16 70.5 47t19.5 82h-90v252h286v-205q0 -136 -67 -207.5t-219 -91.5zM643 -276v81h-16v-81h16zM664 737q-84 0 -140 -80v-376h97v-281h-547v281h90v464h-117v259l399 40q26 -55 50 -149l82 92q99 45 186 45q192 0 279 -106t87 -318v-327h97v-281h-457
v555q0 88 -22 135t-84 47zM160 877v-19l174 16v-724h-131v-19h289v19h-138v745zM1098 131v19h-137v487q0 252 -224 252q-38 0 -75.5 -9.5t-63 -21.5t-48.5 -27t-31.5 -22.5t-12.5 -11.5l2 -25q12 12 34 29.5t80 43t115 25.5q203 0 203 -233v-506h158z" />
    <glyph glyph-name="Ncaron" unicode="&#x147;" horiz-adv-x="1628" 
d="M1239 131h33v1206h164v21h-365v-21h176v-1173l-792 1194h-250v-21h180v-1179h-182v-21h379v21h-172v1179h28zM1069 651h6v549h-143v295h643v-295h-141v-1200h-304l-555 842v-547h146v-295h-658v295h154v905h-151v295h475l508 -770zM819 1749l131 125h271l-232 -277h-340
l-231 277h270zM915 1679l107 127l-133 -127h26zM614 1806l107 -127h27z" />
    <glyph glyph-name="ncaron" unicode="&#x148;" horiz-adv-x="1263" 
d="M664 737q-84 0 -140 -80v-376h97v-281h-547v281h90v464h-117v259l399 40q26 -55 50 -149l82 92q99 45 186 45q192 0 279 -106t87 -318v-327h97v-281h-457v555q0 88 -22 135t-84 47zM160 877v-19l174 16v-724h-131v-19h289v19h-138v745zM1098 131v19h-137v487
q0 252 -224 252q-38 0 -75.5 -9.5t-63 -21.5t-48.5 -27t-31.5 -22.5t-12.5 -11.5l2 -25q12 12 34 29.5t80 43t115 25.5q203 0 203 -233v-506h158zM625 1278l131 125h270l-231 -277h-340l-232 277h271zM721 1208l106 127l-133 -127h27zM420 1335l106 -127h27z" />
    <glyph glyph-name="Eng" unicode="&#x14a;" horiz-adv-x="1628" 
d="M1069 653h6v547h-143v295h643v-295h-141v-1200q-2 -120 -30 -215.5t-84.5 -170t-151 -115t-222.5 -40.5q-206 0 -325 99v381h280l31 -185h24q32 0 57 21t37.5 53t18.5 62t6 55v139l-500 758v-547h146v-295h-658v295h154v905h-151v295h475l512 -776zM1077 375v45l-622 938
h-250v-21h180v-1179h-182v-21h379v21h-172v1179h28zM1272 1337h164v21h-365v-21h176v-1353q0 -63 -6.5 -113.5t-25 -100.5t-49 -83.5t-81.5 -54.5t-120 -21q-83 0 -168 37v180h-25v-190q92 -46 193 -46q76 0 132.5 23.5t89 60t52.5 90t26.5 105t6.5 113.5v1353z" />
    <glyph glyph-name="eng" unicode="&#x14b;" horiz-adv-x="1214" 
d="M1130 608v-469q0 -134 -31 -238.5t-77.5 -165t-108 -99.5t-115 -52.5t-106.5 -13.5q-132 0 -235 59l10 297h211l78 -147h14v776q0 88 -22 135t-84 47q-84 0 -140 -80v-376h97v-281h-547v281h90v464h-117v259l399 40q26 -55 50 -149l82 92q99 45 186 45q192 0 279 -106
t87 -318zM961 74v563q0 252 -224 252q-38 0 -75.5 -9.5t-63.5 -21.5t-49 -27t-32 -22.5t-13 -11.5l2 -25q5 5 14 13t32.5 24t49 28.5t62.5 22.5t73 10q203 0 203 -233v-563q0 -91 -15 -160t-38 -108t-54.5 -62.5t-59 -31t-58.5 -7.5q-37 0 -94 19l-3 94h-22v-109
q11 -7 45.5 -15.5t73.5 -8.5q61 0 106.5 25.5t71.5 63.5t42 92.5t21 103.5t5 104zM160 877v-19l174 16v-724h-131v-19h289v19h-138v745z" />
    <glyph glyph-name="Omacron" unicode="&#x14c;" horiz-adv-x="1509" 
d="M430 1618v205h676v-205h-676zM969 1708v14h-410v-14h410zM756 121q194 0 309 82q201 154 201 547q0 624 -514 624q-135 0 -234.5 -47.5t-158.5 -133.5t-87 -196.5t-28 -246.5q0 -391 202 -547q109 -82 310 -82zM752 1354q489 0 489 -604q0 -98 -13.5 -181t-33.5 -141.5
t-52.5 -105.5t-63 -76.5t-72 -50.5t-71.5 -31t-70.5 -16t-60 -6.5t-48.5 -0.5t-48.5 0.5t-60.5 6.5t-70.5 16t-71.5 31t-72 50.5t-63 76.5t-53 105.5t-33.5 141.5t-13.5 181q0 99 14.5 184.5t49.5 164.5t88.5 134t138 88t191.5 33zM768 -27h-29q-139 2 -250.5 32t-203.5 108
q-60 49 -103.5 109t-68 117.5t-38.5 130.5t-18 134.5t-4 143.5q0 81 4 142t18 134t38.5 131t68 118t103.5 109q170 140 469 140t469 -140q75 -61 123 -134.5t70.5 -159.5t30 -161.5t7.5 -178.5q0 -81 -4 -142t-18 -134.5t-38 -131.5t-67.5 -118t-103.5 -109
q-171 -140 -455 -140zM463 815v-135q0 -393 291 -393q290 0 290 393v135q0 393 -290 393q-291 0 -291 -393z" />
    <glyph glyph-name="omacron" unicode="&#x14d;" horiz-adv-x="1105" 
d="M209 1167v205h676v-205h-676zM752 1262v14h-410v-14h410zM551 113q342 0 342 399q0 196 -88.5 298.5t-251.5 102.5q-171 0 -255.5 -109t-84.5 -292q0 -94 21 -167t54 -115.5t79.5 -70t90.5 -37t93 -9.5zM553 895q162 0 238.5 -103.5t76.5 -279.5q0 -97 -20.5 -168.5
t-51.5 -110.5t-76 -63t-83.5 -30.5t-85.5 -6.5q-160 0 -236.5 102.5t-76.5 276.5q0 189 80 286t235 97zM553 1042q112 0 193 -19.5t149 -74.5q54 -43 89.5 -96.5t52 -112.5t22.5 -110.5t6 -114.5q0 -64 -5.5 -114t-21.5 -111t-52 -114.5t-91 -96.5q-68 -56 -150 -76
t-192 -20t-192 20t-150 76q-53 43 -88.5 97t-52 113t-23 111.5t-6.5 114.5q0 288 170 434q122 94 342 94zM553 260q79 0 111 60t32 192q0 133 -32 193.5t-111 60.5t-111 -61t-32 -195q0 -129 32 -189.5t111 -60.5z" />
    <glyph glyph-name="Ohungarumlaut" unicode="&#x150;" horiz-adv-x="1507" 
d="M756 121q194 0 309 82q201 154 201 547q0 624 -514 624q-135 0 -234.5 -47.5t-158.5 -133.5t-87 -196.5t-28 -246.5q0 -391 202 -547q109 -82 310 -82zM752 1354q489 0 489 -604q0 -98 -13.5 -181t-33.5 -141.5t-52.5 -105.5t-63 -76.5t-72 -50.5t-71.5 -31t-70.5 -16
t-60 -6.5t-48.5 -0.5t-48.5 0.5t-60.5 6.5t-70.5 16t-71.5 31t-72 50.5t-63 76.5t-53 105.5t-33.5 141.5t-13.5 181q0 99 14.5 184.5t49.5 164.5t88.5 134t138 88t191.5 33zM768 -27h-29q-139 2 -250.5 32t-203.5 108q-60 49 -103.5 109t-68 117.5t-38.5 130.5t-18 134.5
t-4 143.5q0 81 4 142t18 134t38.5 131t68 118t103.5 109q170 140 469 140t469 -140q75 -61 123 -134.5t70.5 -159.5t30 -161.5t7.5 -178.5q0 -81 -4 -142t-18 -134.5t-38 -131.5t-67.5 -118t-103.5 -109q-171 -140 -455 -140zM463 815v-135q0 -393 291 -393q290 0 290 393
v135q0 393 -290 393q-291 0 -291 -393zM856 1874l-299 -277h-270l231 277h338zM1292 1874l-299 -277h-270l231 277h338zM922 1669l135 125h-31zM485 1669l136 125h-31z" />
    <glyph glyph-name="ohungarumlaut" unicode="&#x151;" horiz-adv-x="1105" 
d="M551 113q342 0 342 399q0 196 -88.5 298.5t-251.5 102.5q-171 0 -255.5 -109t-84.5 -292q0 -94 21 -167t54 -115.5t79.5 -70t90.5 -37t93 -9.5zM553 895q162 0 238.5 -103.5t76.5 -279.5q0 -97 -20.5 -168.5t-51.5 -110.5t-76 -63t-83.5 -30.5t-85.5 -6.5
q-160 0 -236.5 102.5t-76.5 276.5q0 189 80 286t235 97zM553 1042q112 0 193 -19.5t149 -74.5q54 -43 89.5 -96.5t52 -112.5t22.5 -110.5t6 -114.5q0 -64 -5.5 -114t-21.5 -111t-52 -114.5t-91 -96.5q-68 -56 -150 -76t-192 -20t-192 20t-150 76q-53 43 -88.5 97t-52 113
t-23 111.5t-6.5 114.5q0 288 170 434q122 94 342 94zM553 260q79 0 111 60t32 192q0 133 -32 193.5t-111 60.5t-111 -61t-32 -195q0 -129 32 -189.5t111 -60.5zM657 1403l-299 -277h-270l231 277h338zM1094 1403l-299 -277h-271l232 277h338zM723 1198l135 125h-31z
M287 1198l135 125h-31z" />
    <glyph glyph-name="OE" unicode="&#x152;" horiz-adv-x="2134" 
d="M768 -27h-29q-139 2 -250.5 32t-203.5 108q-60 49 -103.5 109t-68 117.5t-38.5 130.5t-18 134.5t-4 143.5q0 81 4 142t18 134t38.5 131t68 118t103.5 109q170 140 469 140q119 0 239 -27h1032v-455h-292l-23 160h-276v-295h313v-276h-313v-334h290v192h332v-487h-1059
q-114 -27 -229 -27zM1231 1337v-303q-102 340 -479 340q-135 0 -234.5 -47.5t-158.5 -133.5t-87 -196.5t-28 -246.5q0 -391 202 -547q109 -82 310 -82q194 0 309 82q116 88 166 264v-309h-82v-21h752v219h-25v-198h-623v598h355v20h-355v561h598v-172h23v193h-729v-21h86z
M1231 918v-334q-14 -91 -42.5 -163.5t-60.5 -118t-77.5 -78t-80.5 -48.5t-83.5 -24.5t-72 -9.5t-58.5 -1q-29 0 -48.5 0.5t-60.5 6.5t-70.5 16t-71.5 31t-72 50.5t-63 76.5t-53 105.5t-33.5 141.5t-13.5 181q0 99 14.5 184.5t49.5 164.5t88.5 134t138 88t191.5 33
q414 0 479 -436zM463 815v-135q0 -393 291 -393q290 0 290 393v154q-9 374 -290 374q-291 0 -291 -393z" />
    <glyph glyph-name="oe" unicode="&#x153;" horiz-adv-x="1673" 
d="M553 1042q108 0 186.5 -18t145.5 -68q120 86 313 86q208 0 323 -100t115 -299q0 -64 -22 -242h-555v-4q15 -137 160 -137q125 0 292 88l93 -264q-44 -25 -66.5 -36t-73 -30.5t-114.5 -27.5t-146 -8q-198 0 -321 86q-67 -50 -145.5 -68t-184.5 -18q-110 0 -192 20t-150 76
q-53 43 -88.5 97t-52 113t-23 111.5t-6.5 114.5q0 288 170 434q122 94 342 94zM1206 104q60 0 116 11t79.5 20.5t36.5 16.5l-8 20q-11 -6 -32.5 -15t-76.5 -20.5t-115 -11.5q-44 0 -84.5 9t-84 35.5t-75.5 68t-52.5 112t-20.5 162.5v18q1 66 14.5 121t33.5 91t48 63.5
t55 42.5t58 24.5t53.5 12t44.5 2.5q26 0 49.5 -2.5t55 -9.5t57 -23t48.5 -39t35.5 -61.5t12.5 -87.5q0 -95 -8 -150h-397v-18h417l2 26q9 74 9 142q0 121 -72.5 181t-208.5 60q-135 0 -214 -70.5t-105 -193.5q-53 272 -324 272q-171 0 -254.5 -109t-83.5 -292q0 -94 21 -167
t54.5 -115.5t79.5 -70t89.5 -37t91.5 -9.5q273 0 326 262q14 -64 41.5 -113t60 -78t73 -48t77.5 -25.5t77 -6.5zM553 895q301 0 311 -367v-16q0 -97 -20 -168t-50 -110.5t-74.5 -63t-83 -30.5t-85.5 -7q-108 0 -179 50t-101.5 132.5t-30.5 196.5q0 189 79 286t234 97z
M553 260q79 0 111 60t32 192q0 133 -32 193.5t-111 60.5t-110 -61t-31 -195q0 -130 31 -190t110 -60zM1296 688q-6 38 -33 61t-65 23q-61 0 -97.5 -43.5t-41.5 -114.5h239q0 60 -2 74z" />
    <glyph glyph-name="Racute" unicode="&#x154;" horiz-adv-x="1462" 
d="M596 137v21h-174v1179h346q164 0 259 -75.5t95 -239.5q0 -68 -23 -121t-56 -82t-78 -47.5t-81.5 -24.5t-72.5 -6h-25l349 -604h165v21h-153l-322 565q137 5 229.5 80.5t92.5 218.5q0 84 -25 146.5t-62.5 98t-90.5 57t-100 28t-101 6.5h-563v-21h192v-1179h-200v-21h399z
M608 711h-4v-416h131v-295h-678v295h158v905h-149v295h731q106 0 192 -19t141 -48t95.5 -72.5t60.5 -82.5t32 -88t14.5 -79.5t2.5 -65.5q0 -87 -27 -154t-73 -107.5t-96 -64t-107 -32.5l217 -387h191v-295h-430zM604 1200v-373h156q174 0 174 185q0 88 -38 138t-138 50h-154
zM1028 1874l-299 -277h-270l231 277h338zM657 1669l136 125h-31z" />
    <glyph glyph-name="racute" unicode="&#x155;" horiz-adv-x="1009" 
d="M541 131v19h-181v745l-190 -18v-19q27 3 85 8t85 8v-724h-139v-19h340zM514 770l2 -33q104 158 225 158q27 0 50 -10v-197h22v209q-29 16 -72 16q-74 0 -132.5 -45t-94.5 -98zM53 1004l402 43q31 -64 49 -166q123 166 278 166q96 0 197 -58l-47 -418h-252l-43 170
q-26 -8 -58 -48.5t-49 -88.5v-323h136v-281h-598v281h102v462h-117v261zM780 1403l-299 -277h-270l231 277h338zM410 1198l135 125h-31z" />
    <glyph glyph-name="Rcommaaccent" unicode="&#x156;" horiz-adv-x="1507" 
d="M592 -608v123q51 16 70.5 47t19.5 82h-90v252h287v-205q0 -136 -67.5 -207.5t-219.5 -91.5zM743 -276v81h-16v-81h16zM600 137v21h-174v1179h346q164 0 259 -75.5t95 -239.5q0 -68 -23 -121t-56 -82t-78 -47.5t-81.5 -24.5t-72.5 -6h-24l348 -604h166v21h-154l-322 565
q137 5 229.5 80.5t92.5 218.5q0 84 -25 146.5t-62.5 98t-90.5 57t-100 28t-101 6.5h-563v-21h192v-1179h-200v-21h399zM612 711h-4v-416h131v-295h-678v295h158v905h-149v295h731q106 0 192 -19t141 -48t95.5 -72.5t60.5 -82.5t32 -88t14.5 -79.5t2.5 -65.5q0 -87 -27 -154
t-73 -107.5t-96 -64t-107 -32.5l217 -387h191v-295h-430zM608 1200v-373h156q174 0 174 185q0 88 -38 138t-138 50h-154z" />
    <glyph glyph-name="rcommaaccent" unicode="&#x157;" horiz-adv-x="1009" 
d="M217 -608v123q51 16 70.5 47t19.5 82h-90v252h287v-205q0 -136 -67.5 -207.5t-219.5 -91.5zM369 -276v81h-17v-81h17zM541 131v19h-181v745l-190 -18v-19q27 3 85 8t85 8v-724h-139v-19h340zM514 770l2 -33q104 158 225 158q27 0 50 -10v-197h22v209q-29 16 -72 16
q-74 0 -132.5 -45t-94.5 -98zM53 1004l402 43q31 -64 49 -166q123 166 278 166q96 0 197 -58l-47 -418h-252l-43 170q-26 -8 -58 -48.5t-49 -88.5v-323h136v-281h-598v281h102v462h-117v261z" />
    <glyph glyph-name="Rcaron" unicode="&#x158;" horiz-adv-x="1503" 
d="M600 137v21h-174v1179h346q164 0 259 -75.5t95 -239.5q0 -68 -23 -121t-56 -82t-78 -47.5t-81.5 -24.5t-72.5 -6h-24l348 -604h166v21h-154l-322 565q137 5 229.5 80.5t92.5 218.5q0 84 -25 146.5t-62.5 98t-90.5 57t-100 28t-101 6.5h-563v-21h192v-1179h-200v-21h399z
M612 711h-4v-416h131v-295h-678v295h158v905h-149v295h731q106 0 192 -19t141 -48t95.5 -72.5t60.5 -82.5t32 -88t14.5 -79.5t2.5 -65.5q0 -87 -27 -154t-73 -107.5t-96 -64t-107 -32.5l217 -387h191v-295h-430zM608 1200v-373h156q174 0 174 185q0 88 -38 138t-138 50h-154
zM698 1749l131 125h271l-232 -277h-340l-231 277h270zM795 1679l106 127l-133 -127h27zM494 1806l106 -127h27z" />
    <glyph glyph-name="rcaron" unicode="&#x159;" horiz-adv-x="1011" 
d="M541 131v19h-181v745l-190 -18v-19q27 3 85 8t85 8v-724h-139v-19h340zM514 770l2 -33q104 158 225 158q27 0 50 -10v-197h22v209q-29 16 -72 16q-74 0 -132.5 -45t-94.5 -98zM53 1004l402 43q31 -64 49 -166q123 166 278 166q96 0 197 -58l-47 -418h-252l-43 170
q-26 -8 -58 -48.5t-49 -88.5v-323h136v-281h-598v281h102v462h-117v261zM500 1278l131 125h270l-231 -277h-340l-232 277h271zM596 1208l106 127l-133 -127h27zM295 1335l106 -127h27z" />
    <glyph glyph-name="Sacute" unicode="&#x15a;" 
d="M641 113q75 0 144.5 15t133.5 47.5t103 94t39 144.5q0 42 -11.5 79t-28 64.5t-46 53.5t-55.5 42.5t-66.5 36t-68 30.5t-71.5 28t-67 26q-53 21 -84 34.5t-73.5 34.5t-67.5 38t-53.5 40.5t-43 47.5t-24.5 55t-10 66q0 70 36 123t95 81.5t124.5 42t135.5 13.5
q116 0 309 -35v-205h25v221q-1 0 -20 4t-51.5 9.5t-72.5 11.5t-91 10t-99 4q-55 0 -109 -7.5t-110.5 -27.5t-99 -50.5t-70 -81t-27.5 -113.5q0 -52 17.5 -94.5t45.5 -74t78.5 -62t101 -53t128.5 -52.5q170 -61 234 -97q150 -83 163 -213q2 -15 2 -30q0 -75 -35 -131.5
t-93.5 -88t-125.5 -46.5t-141 -15q-94 0 -193.5 31.5t-166.5 75.5v178h-25v-187q64 -50 168.5 -84t216.5 -34zM88 150v399h354v-215q35 -22 91.5 -34.5t107.5 -12.5q88 0 146.5 28t58.5 95q0 33 -21.5 60t-58.5 46t-72.5 33t-78.5 28t-62 23q-93 34 -161.5 65.5t-131 74
t-101.5 90t-62 111.5t-23 140q0 71 20 133t64.5 118t111.5 96.5t165.5 65.5t221.5 28q231 0 517 -74l-17 -457h-295l-37 203q-68 14 -131 14q-37 0 -71 -4t-69.5 -14.5t-57 -33t-21.5 -54.5q0 -52 82 -99.5t272 -111.5q122 -47 202.5 -96.5t126.5 -108t64.5 -122.5
t18.5 -148q0 -64 -16.5 -123t-59 -118.5t-108.5 -103t-173 -71t-243 -27.5q-180 0 -313 44t-240 133zM1022 1874l-299 -277h-270l231 277h338zM651 1669l135 125h-30z" />
    <glyph glyph-name="sacute" unicode="&#x15b;" horiz-adv-x="960" 
d="M66 98v281h284v-111q58 -28 121 -28q42 0 65 19.5t25 47.5q-1 7 -4 13.5t-9 12t-12 10t-17 9.5t-18 8t-22 8t-23.5 7.5t-26 7.5t-26.5 8q-65 19 -109.5 35.5t-89.5 43t-71.5 58.5t-43.5 80t-17 109q0 63 21.5 118t68.5 103t135 76t209 28q89 0 193 -21.5t186 -53.5
l-11 -305h-272l-18 112q-54 12 -88 12q-41 0 -65.5 -14t-24.5 -39q0 -23 28 -41t72.5 -33t98.5 -32t108.5 -42.5t99 -58.5t72.5 -86.5t28 -120.5q0 -66 -22.5 -123t-70.5 -106.5t-136.5 -78.5t-208.5 -29q-131 0 -227 27.5t-182 88.5zM481 98q136 0 205.5 60t69.5 137
q0 84 -58 134t-225 101q-128 38 -173.5 86.5t-45.5 110.5q0 85 68 125.5t172 40.5q114 0 235 -39v-109h23v121q-9 5 -37.5 14.5t-91.5 20t-129 10.5q-68 0 -124.5 -16t-97.5 -59t-41 -109q0 -48 18 -83.5t55.5 -60t71 -39t89.5 -32.5q153 -49 210.5 -96t57.5 -121
q0 -80 -68.5 -129t-183.5 -49q-64 0 -123 14.5t-85 27.5t-44 25v99h-22v-107q0 -5 32 -22.5t100 -36.5t142 -19zM842 1403l-299 -277h-271l232 277h338zM471 1198l135 125h-31z" />
    <glyph glyph-name="Scircumflex" unicode="&#x15c;" horiz-adv-x="1302" 
d="M641 113q75 0 144.5 15t133.5 47.5t103 94t39 144.5q0 42 -11.5 79t-28 64.5t-46 53.5t-55.5 42.5t-66.5 36t-68 30.5t-71.5 28t-67 26q-53 21 -84 34.5t-73.5 34.5t-67.5 38t-53.5 40.5t-43 47.5t-24.5 55t-10 66q0 70 36 123t95 81.5t124.5 42t135.5 13.5
q116 0 309 -35v-205h25v221q-1 0 -20 4t-51.5 9.5t-72.5 11.5t-91 10t-99 4q-55 0 -109 -7.5t-110.5 -27.5t-99 -50.5t-70 -81t-27.5 -113.5q0 -52 17.5 -94.5t45.5 -74t78.5 -62t101 -53t128.5 -52.5q170 -61 234 -97q150 -83 163 -213q2 -15 2 -30q0 -75 -35 -131.5
t-93.5 -88t-125.5 -46.5t-141 -15q-94 0 -193.5 31.5t-166.5 75.5v178h-25v-187q64 -50 168.5 -84t216.5 -34zM88 150v399h354v-215q35 -22 91.5 -34.5t107.5 -12.5q88 0 146.5 28t58.5 95q0 33 -21.5 60t-58.5 46t-72.5 33t-78.5 28t-62 23q-93 34 -161.5 65.5t-131 74
t-101.5 90t-62 111.5t-23 140q0 71 20 133t64.5 118t111.5 96.5t165.5 65.5t221.5 28q231 0 517 -74l-17 -457h-295l-37 203q-68 14 -131 14q-37 0 -71 -4t-69.5 -14.5t-57 -33t-21.5 -54.5q0 -52 82 -99.5t272 -111.5q122 -47 202.5 -96.5t126.5 -108t64.5 -122.5
t18.5 -148q0 -64 -16.5 -123t-59 -118.5t-108.5 -103t-173 -71t-243 -27.5q-180 0 -313 44t-240 133zM788 1597l-131 125l-131 -125h-270l231 277h340l232 -277h-271zM561 1792l-106 -127l133 127h-27zM862 1665l-106 127h-27z" />
    <glyph glyph-name="scircumflex" unicode="&#x15d;" horiz-adv-x="960" 
d="M66 98v281h284v-111q58 -28 121 -28q42 0 65 19.5t25 47.5q-1 7 -4 13.5t-9 12t-12 10t-17 9.5t-18 8t-22 8t-23.5 7.5t-26 7.5t-26.5 8q-65 19 -109.5 35.5t-89.5 43t-71.5 58.5t-43.5 80t-17 109q0 63 21.5 118t68.5 103t135 76t209 28q89 0 193 -21.5t186 -53.5
l-11 -305h-272l-18 112q-54 12 -88 12q-41 0 -65.5 -14t-24.5 -39q0 -23 28 -41t72.5 -33t98.5 -32t108.5 -42.5t99 -58.5t72.5 -86.5t28 -120.5q0 -66 -22.5 -123t-70.5 -106.5t-136.5 -78.5t-208.5 -29q-131 0 -227 27.5t-182 88.5zM481 98q136 0 205.5 60t69.5 137
q0 84 -58 134t-225 101q-128 38 -173.5 86.5t-45.5 110.5q0 85 68 125.5t172 40.5q114 0 235 -39v-109h23v121q-9 5 -37.5 14.5t-91.5 20t-129 10.5q-68 0 -124.5 -16t-97.5 -59t-41 -109q0 -48 18 -83.5t55.5 -60t71 -39t89.5 -32.5q153 -49 210.5 -96t57.5 -121
q0 -80 -68.5 -129t-183.5 -49q-64 0 -123 14.5t-85 27.5t-44 25v99h-22v-107q0 -5 32 -22.5t100 -36.5t142 -19zM631 1126l-131 125l-131 -125h-271l232 277h340l231 -277h-270zM403 1321l-106 -127l133 127h-27zM705 1194l-107 127h-27z" />
    <glyph glyph-name="Scedilla" unicode="&#x15e;" 
d="M641 113q75 0 144.5 15t133.5 47.5t103 94t39 144.5q0 42 -11.5 79t-28 64.5t-46 53.5t-55.5 42.5t-66.5 36t-68 30.5t-71.5 28t-67 26q-53 21 -84 34.5t-73.5 34.5t-67.5 38t-53.5 40.5t-43 47.5t-24.5 55t-10 66q0 70 36 123t95 81.5t124.5 42t135.5 13.5
q116 0 309 -35v-205h25v221q-1 0 -20 4t-51.5 9.5t-72.5 11.5t-91 10t-99 4q-55 0 -109 -7.5t-110.5 -27.5t-99 -50.5t-70 -81t-27.5 -113.5q0 -52 17.5 -94.5t45.5 -74t78.5 -62t101 -53t128.5 -52.5q170 -61 234 -97q150 -83 163 -213q2 -15 2 -30q0 -75 -35 -131.5
t-93.5 -88t-125.5 -46.5t-141 -15q-94 0 -193.5 31.5t-166.5 75.5v178h-25v-187q64 -50 168.5 -84t216.5 -34zM88 150v399h354v-215q35 -22 91.5 -34.5t107.5 -12.5q88 0 146.5 28t58.5 95q0 33 -21.5 60t-58.5 46t-72.5 33t-78.5 28t-62 23q-93 34 -161.5 65.5t-131 74
t-101.5 90t-62 111.5t-23 140q0 71 20 133t64.5 118t111.5 96.5t165.5 65.5t221.5 28q231 0 517 -74l-17 -457h-295l-37 203q-68 14 -131 14q-37 0 -71 -4t-69.5 -14.5t-57 -33t-21.5 -54.5q0 -52 82 -99.5t272 -111.5q122 -47 202.5 -96.5t126.5 -108t64.5 -122.5
t18.5 -148q0 -64 -16.5 -123t-59 -118.5t-108.5 -103t-173 -71t-243 -27.5q-180 0 -313 44t-240 133zM408 -426v104q10 0 41.5 -1t51.5 -1t50 3t48 10t33 21.5t17 35.5q6 46 -37 72t-114 26h-41l43 90q82 13 133 13q122 0 190 -58t68 -131q0 -111 -82.5 -166t-210.5 -55
q-112 0 -190 37zM602 -387q69 -5 122.5 35t53.5 104q0 41 -24 69t-58 40q66 -35 66 -109q0 -55 -44 -94t-116 -45z" />
    <glyph glyph-name="scedilla" unicode="&#x15f;" horiz-adv-x="960" 
d="M66 98v281h284v-111q58 -28 121 -28q42 0 65 19.5t25 47.5q-1 7 -4 13.5t-9 12t-12 10t-17 9.5t-18 8t-22 8t-23.5 7.5t-26 7.5t-26.5 8q-65 19 -109.5 35.5t-89.5 43t-71.5 58.5t-43.5 80t-17 109q0 63 21.5 118t68.5 103t135 76t209 28q89 0 193 -21.5t186 -53.5
l-11 -305h-272l-18 112q-54 12 -88 12q-41 0 -65.5 -14t-24.5 -39q0 -23 28 -41t72.5 -33t98.5 -32t108.5 -42.5t99 -58.5t72.5 -86.5t28 -120.5q0 -66 -22.5 -123t-70.5 -106.5t-136.5 -78.5t-208.5 -29q-131 0 -227 27.5t-182 88.5zM481 98q136 0 205.5 60t69.5 137
q0 84 -58 134t-225 101q-128 38 -173.5 86.5t-45.5 110.5q0 85 68 125.5t172 40.5q114 0 235 -39v-109h23v121q-9 5 -37.5 14.5t-91.5 20t-129 10.5q-68 0 -124.5 -16t-97.5 -59t-41 -109q0 -48 18 -83.5t55.5 -60t71 -39t89.5 -32.5q153 -49 210.5 -96t57.5 -121
q0 -80 -68.5 -129t-183.5 -49q-64 0 -123 14.5t-85 27.5t-44 25v99h-22v-107q0 -5 32 -22.5t100 -36.5t142 -19zM238 -426v104q10 0 41.5 -1t51.5 -1t50 3t48 10t33 21.5t17 35.5q6 46 -37 72t-114 26h-41l43 90q82 13 133 13q122 0 190 -58t68 -131q0 -111 -82.5 -166
t-210.5 -55q-112 0 -190 37zM432 -387q69 -5 122.5 35t53.5 104q0 41 -24 69t-58 40q66 -35 66 -109q0 -55 -44 -94t-116 -45z" />
    <glyph glyph-name="Scaron" unicode="&#x160;" 
d="M641 113q75 0 144.5 15t133.5 47.5t103 94t39 144.5q0 42 -11.5 79t-28 64.5t-46 53.5t-55.5 42.5t-66.5 36t-68 30.5t-71.5 28t-67 26q-53 21 -84 34.5t-73.5 34.5t-67.5 38t-53.5 40.5t-43 47.5t-24.5 55t-10 66q0 70 36 123t95 81.5t124.5 42t135.5 13.5
q116 0 309 -35v-205h25v221q-1 0 -20 4t-51.5 9.5t-72.5 11.5t-91 10t-99 4q-55 0 -109 -7.5t-110.5 -27.5t-99 -50.5t-70 -81t-27.5 -113.5q0 -52 17.5 -94.5t45.5 -74t78.5 -62t101 -53t128.5 -52.5q170 -61 234 -97q150 -83 163 -213q2 -15 2 -30q0 -75 -35 -131.5
t-93.5 -88t-125.5 -46.5t-141 -15q-94 0 -193.5 31.5t-166.5 75.5v178h-25v-187q64 -50 168.5 -84t216.5 -34zM88 150v399h354v-215q35 -22 91.5 -34.5t107.5 -12.5q88 0 146.5 28t58.5 95q0 33 -21.5 60t-58.5 46t-72.5 33t-78.5 28t-62 23q-93 34 -161.5 65.5t-131 74
t-101.5 90t-62 111.5t-23 140q0 71 20 133t64.5 118t111.5 96.5t165.5 65.5t221.5 28q231 0 517 -74l-17 -457h-295l-37 203q-68 14 -131 14q-37 0 -71 -4t-69.5 -14.5t-57 -33t-21.5 -54.5q0 -52 82 -99.5t272 -111.5q122 -47 202.5 -96.5t126.5 -108t64.5 -122.5
t18.5 -148q0 -64 -16.5 -123t-59 -118.5t-108.5 -103t-173 -71t-243 -27.5q-180 0 -313 44t-240 133zM678 1749l131 125h270l-231 -277h-340l-232 277h271zM774 1679l107 127l-133 -127h26zM473 1806l107 -127h26z" />
    <glyph glyph-name="scaron" unicode="&#x161;" horiz-adv-x="960" 
d="M66 98v281h284v-111q58 -28 121 -28q42 0 65 19.5t25 47.5q-1 7 -4 13.5t-9 12t-12 10t-17 9.5t-18 8t-22 8t-23.5 7.5t-26 7.5t-26.5 8q-65 19 -109.5 35.5t-89.5 43t-71.5 58.5t-43.5 80t-17 109q0 63 21.5 118t68.5 103t135 76t209 28q89 0 193 -21.5t186 -53.5
l-11 -305h-272l-18 112q-54 12 -88 12q-41 0 -65.5 -14t-24.5 -39q0 -23 28 -41t72.5 -33t98.5 -32t108.5 -42.5t99 -58.5t72.5 -86.5t28 -120.5q0 -66 -22.5 -123t-70.5 -106.5t-136.5 -78.5t-208.5 -29q-131 0 -227 27.5t-182 88.5zM481 98q136 0 205.5 60t69.5 137
q0 84 -58 134t-225 101q-128 38 -173.5 86.5t-45.5 110.5q0 85 68 125.5t172 40.5q114 0 235 -39v-109h23v121q-9 5 -37.5 14.5t-91.5 20t-129 10.5q-68 0 -124.5 -16t-97.5 -59t-41 -109q0 -48 18 -83.5t55.5 -60t71 -39t89.5 -32.5q153 -49 210.5 -96t57.5 -121
q0 -80 -68.5 -129t-183.5 -49q-64 0 -123 14.5t-85 27.5t-44 25v99h-22v-107q0 -5 32 -22.5t100 -36.5t142 -19zM504 1278l131 125h270l-231 -277h-340l-232 277h271zM600 1208l107 127l-134 -127h27zM299 1335l107 -127h26z" />
    <glyph glyph-name="Tcommaaccent" unicode="&#x162;" horiz-adv-x="1482" 
d="M596 -608v123q51 16 70.5 47t19.5 82h-90v252h287v-205q0 -136 -67.5 -207.5t-219.5 -91.5zM748 -276v81h-17v-81h17zM973 137v21h-219v1179h503v-293h25v314h-1071v-314h25v293h493v-1179h-229v-21h473zM1434 1495v-598h-320l-33 303h-145v-905h176v-295h-752v295h187
v905h-146l-32 -303h-320v598h1385z" />
    <glyph glyph-name="tcommaaccent" unicode="&#x163;" horiz-adv-x="770" 
d="M254 -608v123q51 16 70.5 47t19.5 82h-90v252h287v-205q0 -136 -67.5 -207.5t-219.5 -91.5zM406 -276v81h-17v-81h17zM498 119q52 0 102 16l-6 21q-42 -19 -96 -19q-47 0 -81.5 17t-54 42.5t-30.5 64.5t-14 74t-3 81v469h269l2 18h-271v154h-20v-154h-109v-18h109v-469
v-36t2 -39.5t5 -44.5t10 -43t17 -42.5t25.5 -35.5t35 -30t47.5 -18.5t61 -7.5zM676 309l69 -264q-154 -61 -305 -61q-161 0 -238 93.5t-77 299.5v393h-88v213q45 17 78.5 44t48.5 50l108 160h213v-213h232l-19 -254h-213v-319q0 -26 0.5 -43t5 -42.5t12.5 -40.5t24 -26.5
t38 -11.5q25 0 111 22z" />
    <glyph glyph-name="Tcaron" unicode="&#x164;" horiz-adv-x="1482" 
d="M973 137v21h-219v1179h503v-293h25v314h-1071v-314h25v293h493v-1179h-229v-21h473zM1434 1495v-598h-320l-33 303h-145v-905h176v-295h-752v295h187v905h-146l-32 -303h-320v598h1385zM762 1749l131 125h270l-231 -277h-340l-232 277h271zM858 1679l107 127l-134 -127
h27zM557 1806l107 -127h26z" />
    <glyph glyph-name="tcaron" unicode="&#x165;" horiz-adv-x="933" 
d="M770 991v123q51 16 70.5 47t19.5 82h-90v252h287v-205q0 -136 -67.5 -207.5t-219.5 -91.5zM922 1323v82h-17v-82h17zM502 119q52 0 102 16l-6 21q-42 -19 -96 -19q-47 0 -81.5 17t-54 42.5t-30.5 64.5t-14 74t-3 81v469h269l2 18h-271v154h-20v-154h-109v-18h109v-469
v-36t2 -39.5t5 -44.5t10 -43t17 -42.5t25.5 -35.5t35 -30t47.5 -18.5t61 -7.5zM680 309l70 -264q-154 -61 -306 -61q-161 0 -238 93.5t-77 299.5v393h-88v213q45 17 78.5 44t48.5 50l108 160h213v-213h232l-19 -254h-213v-319q0 -26 0.5 -43t5 -42.5t12.5 -40.5t24 -26.5
t38 -11.5q25 0 111 22z" />
    <glyph glyph-name="Tbar" unicode="&#x166;" horiz-adv-x="1482" 
d="M1434 1495v-598h-320l-33 303h-145v-326h158v-204h-158v-375h176v-295h-752v295h187v375h-158v204h158v326h-146l-32 -303h-320v598h1385zM973 137v21h-219v602h221v20h-221v557h503v-293h25v314h-1071v-314h25v293h493v-557h-227v-20h227v-602h-229v-21h473z" />
    <glyph glyph-name="tbar" unicode="&#x167;" horiz-adv-x="774" 
d="M41 481v205h88v84h-88v213q45 17 78.5 44t48.5 50l108 160h216v-213h229l-19 -254h-210v-84h225v-205h-225v-30q0 -24 0.5 -36t2 -35.5t6.5 -36t13 -27.5t22 -22t33 -7q25 0 111 22l70 -264q-154 -61 -306 -61q-161 0 -238 93.5t-77 299.5v104h-88zM504 119q52 0 102 16
l-6 21q-42 -19 -96 -19q-47 0 -81.5 17t-53.5 42.5t-30 64.5t-14 74t-3 81v469h268l2 18h-270v154h-21v-154h-108v-18h108v-293h-106v-19h106v-157v-36t2 -39.5t5 -44.5t10 -43t17 -42.5t25.5 -35.5t35 -30t47.5 -18.5t61 -7.5zM492 592v-19h94v19h-94z" />
    <glyph glyph-name="Utilde" unicode="&#x168;" horiz-adv-x="1611" 
d="M1419 1337v21h-415v-21h223v-645q0 -72 -3.5 -128.5t-14.5 -116t-30 -103.5t-50 -84t-73.5 -65t-102.5 -39.5t-136 -14.5q-103 0 -177.5 26t-120.5 71t-73.5 117t-37 151t-9.5 186v645h185v21h-391v-21h182v-645q0 -74 4 -132t15.5 -119.5t31.5 -107t53 -87.5t79 -68
t111.5 -41.5t147.5 -15.5q107 0 184 26t125 71t76 119t38.5 157t10.5 198v645h168zM827 -29h-22q-155 0 -259 32.5t-188 119.5q-46 46 -78.5 100.5t-49 101.5t-25.5 112.5t-10.5 111t-1.5 121.5v530h-140v295h670v-295h-141v-493q0 -64 2.5 -111t10.5 -98.5t24.5 -86
t41.5 -64t64.5 -44t91.5 -14.5q44 0 79 12t59.5 31.5t42 51.5t28 64t17 79t9 86t3.5 94v493h-191v295h695v-295h-136v-528q0 -75 -4.5 -136t-19 -136t-39.5 -133t-70.5 -115.5t-106.5 -95.5t-152 -61.5t-204 -23.5zM657 1901q83 0 177 -54q68 -37 98 -37q19 0 33 4t42.5 25
t67.5 62l142 -154q-93 -85 -150.5 -116.5t-126.5 -31.5q-82 0 -176 54q-68 37 -98 37q-20 0 -33.5 -3.5t-43 -25t-67.5 -62.5l-141 154q93 85 150 116.5t126 31.5zM662 1786q25 0 67 -10q-39 20 -72 20q-71 0 -129 -53l11 -12q60 55 123 55zM946 1706q-25 0 -67 10
q39 -20 71 -20q71 0 129 53l-10 12q-60 -55 -123 -55z" />
    <glyph glyph-name="utilde" unicode="&#x169;" horiz-adv-x="1249" 
d="M760 207l-4 24q-90 -98 -215 -98q-122 0 -175 69.5t-53 203.5v468h123v19h-270v-19h127v-468q0 -68 11.5 -118.5t39 -91t77 -61t120.5 -20.5q83 0 141 32t78 60zM1079 131v19h-94q-63 63 -63 165v559h133v19h-279v-19h125v-559q0 -112 72 -184h106zM1200 0h-360
q-42 45 -62 96q-2 -2 -24 -22t-31 -26.5t-34.5 -23t-47.5 -23t-57 -13t-74 -6.5q-202 0 -294.5 96t-92.5 305v360h-86v281h528v-281h-82v-282q0 -31 0.5 -48t5.5 -49t14.5 -49.5t29.5 -32t49 -14.5q95 0 149 78v397h-84v281h537v-281h-92v-462h108v-281zM475 1430
q82 0 176 -54q68 -37 99 -37q19 0 33 4t42.5 25t67.5 62l141 -154q-93 -85 -150 -116.5t-126 -31.5q-82 0 -176 54q-68 37 -99 37q-19 0 -33 -4t-42.5 -25t-67.5 -62l-141 154q93 85 150 116.5t126 31.5zM479 1315q26 0 68 -10q-39 20 -72 20q-71 0 -129 -53l10 -12
q60 55 123 55zM764 1235q-26 0 -68 10q39 -20 72 -20q71 0 129 53l-10 12q-60 -55 -123 -55z" />
    <glyph glyph-name="Umacron" unicode="&#x16a;" horiz-adv-x="1611" 
d="M467 1618v205h676v-205h-676zM1006 1708v14h-410v-14h410zM1419 1337v21h-415v-21h223v-645q0 -72 -3.5 -128.5t-14.5 -116t-30 -103.5t-50 -84t-73.5 -65t-102.5 -39.5t-136 -14.5q-103 0 -177.5 26t-120.5 71t-73.5 117t-37 151t-9.5 186v645h185v21h-391v-21h182v-645
q0 -74 4 -132t15.5 -119.5t31.5 -107t53 -87.5t79 -68t111.5 -41.5t147.5 -15.5q107 0 184 26t125 71t76 119t38.5 157t10.5 198v645h168zM827 -29h-22q-155 0 -259 32.5t-188 119.5q-46 46 -78.5 100.5t-49 101.5t-25.5 112.5t-10.5 111t-1.5 121.5v530h-140v295h670v-295
h-141v-493q0 -64 2.5 -111t10.5 -98.5t24.5 -86t41.5 -64t64.5 -44t91.5 -14.5q44 0 79 12t59.5 31.5t42 51.5t28 64t17 79t9 86t3.5 94v493h-191v295h695v-295h-136v-528q0 -75 -4.5 -136t-19 -136t-39.5 -133t-70.5 -115.5t-106.5 -95.5t-152 -61.5t-204 -23.5z" />
    <glyph glyph-name="umacron" unicode="&#x16b;" horiz-adv-x="1245" 
d="M279 1167v205h675v-205h-675zM821 1262v14h-409v-14h409zM756 207l-4 24q-90 -98 -215 -98q-122 0 -175 69.5t-53 203.5v468h123v19h-270v-19h127v-468q0 -68 11.5 -118.5t39 -91t77 -61t120.5 -20.5q83 0 141 32t78 60zM1075 131v19h-94q-63 63 -63 165v559h133v19h-279
v-19h125v-559q0 -112 72 -184h106zM1196 0h-360q-42 45 -62 96q-2 -2 -24 -22t-31 -26.5t-34.5 -23t-47.5 -23t-57 -13t-74 -6.5q-202 0 -294.5 96t-92.5 305v360h-86v281h528v-281h-82v-282q0 -31 0.5 -48t5.5 -49t14.5 -49.5t29.5 -32t49 -14.5q95 0 149 78v397h-84v281
h537v-281h-93v-462h109v-281z" />
    <glyph glyph-name="Ubreve" unicode="&#x16c;" horiz-adv-x="1611" 
d="M1419 1337v21h-415v-21h223v-645q0 -72 -3.5 -128.5t-14.5 -116t-30 -103.5t-50 -84t-73.5 -65t-102.5 -39.5t-136 -14.5q-103 0 -177.5 26t-120.5 71t-73.5 117t-37 151t-9.5 186v645h185v21h-391v-21h182v-645q0 -74 4 -132t15.5 -119.5t31.5 -107t53 -87.5t79 -68
t111.5 -41.5t147.5 -15.5q107 0 184 26t125 71t76 119t38.5 157t10.5 198v645h168zM827 -29h-22q-155 0 -259 32.5t-188 119.5q-46 46 -78.5 100.5t-49 101.5t-25.5 112.5t-10.5 111t-1.5 121.5v530h-140v295h670v-295h-141v-493q0 -64 2.5 -111t10.5 -98.5t24.5 -86
t41.5 -64t64.5 -44t91.5 -14.5q44 0 79 12t59.5 31.5t42 51.5t28 64t17 79t9 86t3.5 94v493h-191v295h695v-295h-136v-528q0 -75 -4.5 -136t-19 -136t-39.5 -133t-70.5 -115.5t-106.5 -95.5t-152 -61.5t-204 -23.5zM819 1593h-33q-360 0 -360 222v59h262v-35
q0 -17 0.5 -24.5t5 -27t14 -29t30 -18.5t50.5 -9h37q30 0 50.5 9.5t30 20.5t14.5 30.5t5.5 28t0.5 25.5v29h262v-59q0 -63 -26 -107t-77 -68.5t-115.5 -35.5t-150.5 -11zM565 1794v14h-16v-14q0 -61 57 -84q-41 30 -41 84zM1049 1808v-14q0 -54 -41 -84q57 23 57 84v14h-16z
" />
    <glyph glyph-name="ubreve" unicode="&#x16d;" horiz-adv-x="1249" 
d="M760 207l-4 24q-90 -98 -215 -98q-122 0 -175 69.5t-53 203.5v468h123v19h-270v-19h127v-468q0 -68 11.5 -118.5t39 -91t77 -61t120.5 -20.5q83 0 141 32t78 60zM1079 131v19h-94q-63 63 -63 165v559h133v19h-279v-19h125v-559q0 -112 72 -184h106zM1200 0h-360
q-42 45 -62 96q-2 -2 -24 -22t-31 -26.5t-34.5 -23t-47.5 -23t-57 -13t-74 -6.5q-202 0 -294.5 96t-92.5 305v360h-86v281h528v-281h-82v-282q0 -31 0.5 -48t5.5 -49t14.5 -49.5t29.5 -32t49 -14.5q95 0 149 78v397h-84v281h537v-281h-92v-462h108v-281zM631 1122h-33
q-360 0 -360 221v60h262v-35q0 -17 0.5 -24.5t5 -27t14 -29t30 -18.5t50.5 -9h37q30 0 50.5 9.5t30 20t14 31t5 28t0.5 25.5v29h262v-60q0 -63 -26 -107t-76.5 -68.5t-115 -35t-150.5 -10.5zM377 1323v14h-17v-14q0 -61 58 -84q-41 30 -41 84zM860 1337v-14q0 -54 -41 -84
q58 23 58 84v14h-17z" />
    <glyph glyph-name="Uring" unicode="&#x16e;" horiz-adv-x="1611" 
d="M1419 1337v21h-415v-21h223v-645q0 -72 -3.5 -128.5t-14.5 -116t-30 -103.5t-50 -84t-73.5 -65t-102.5 -39.5t-136 -14.5q-103 0 -177.5 26t-120.5 71t-73.5 117t-37 151t-9.5 186v645h185v21h-391v-21h182v-645q0 -74 4 -132t15.5 -119.5t31.5 -107t53 -87.5t79 -68
t111.5 -41.5t147.5 -15.5q107 0 184 26t125 71t76 119t38.5 157t10.5 198v645h168zM827 -29h-22q-155 0 -259 32.5t-188 119.5q-46 46 -78.5 100.5t-49 101.5t-25.5 112.5t-10.5 111t-1.5 121.5v530h-140v295h670v-295h-141v-493q0 -64 2.5 -111t10.5 -98.5t24.5 -86
t41.5 -64t64.5 -44t91.5 -14.5q44 0 79 12t59.5 31.5t42 51.5t28 64t17 79t9 86t3.5 94v493h-191v295h695v-295h-136v-528q0 -75 -4.5 -136t-19 -136t-39.5 -133t-70.5 -115.5t-106.5 -95.5t-152 -61.5t-204 -23.5zM563 1790q0 120 72.5 181t185.5 61q117 0 190.5 -61
t73.5 -181q0 -110 -74 -168.5t-190 -58.5q-114 0 -186 58t-72 169zM739 1798q0 -40 20 -66t62 -26q46 0 67 25.5t21 66.5q0 90 -88 90q-42 0 -62 -25t-20 -65zM987 1794q0 -54 -29 -102q46 34 46 102t-46 102q29 -48 29 -102zM659 1794q0 54 29 102q-45 -33 -45 -102
t45 -102q-29 48 -29 102z" />
    <glyph glyph-name="uring" unicode="&#x16f;" horiz-adv-x="1249" 
d="M760 207l-4 24q-90 -98 -215 -98q-122 0 -175 69.5t-53 203.5v468h123v19h-270v-19h127v-468q0 -68 11.5 -118.5t39 -91t77 -61t120.5 -20.5q83 0 141 32t78 60zM1079 131v19h-94q-63 63 -63 165v559h133v19h-279v-19h125v-559q0 -112 72 -184h106zM1200 0h-360
q-42 45 -62 96q-2 -2 -24 -22t-31 -26.5t-34.5 -23t-47.5 -23t-57 -13t-74 -6.5q-202 0 -294.5 96t-92.5 305v360h-86v281h528v-281h-82v-282q0 -31 0.5 -48t5.5 -49t14.5 -49.5t29.5 -32t49 -14.5q95 0 149 78v397h-84v281h537v-281h-92v-462h108v-281zM346 1319
q0 120 72.5 181t185.5 61q117 0 190.5 -61t73.5 -181q0 -110 -74 -168.5t-190 -58.5q-114 0 -186 58t-72 169zM522 1327q0 -40 20 -66t62 -26q46 0 67 25.5t21 66.5q0 90 -88 90q-42 0 -62 -25t-20 -65zM770 1323q0 -54 -29 -102q45 33 45 102t-45 102q29 -48 29 -102z
M442 1323q0 54 29 102q-45 -33 -45 -102t45 -102q-29 48 -29 102z" />
    <glyph glyph-name="Uhungarumlaut" unicode="&#x170;" horiz-adv-x="1609" 
d="M1419 1337v21h-415v-21h223v-645q0 -72 -3.5 -128.5t-14.5 -116t-30 -103.5t-50 -84t-73.5 -65t-102.5 -39.5t-136 -14.5q-103 0 -177.5 26t-120.5 71t-73.5 117t-37 151t-9.5 186v645h185v21h-391v-21h182v-645q0 -74 4 -132t15.5 -119.5t31.5 -107t53 -87.5t79 -68
t111.5 -41.5t147.5 -15.5q107 0 184 26t125 71t76 119t38.5 157t10.5 198v645h168zM827 -29h-22q-155 0 -259 32.5t-188 119.5q-46 46 -78.5 100.5t-49 101.5t-25.5 112.5t-10.5 111t-1.5 121.5v530h-140v295h670v-295h-141v-493q0 -64 2.5 -111t10.5 -98.5t24.5 -86
t41.5 -64t64.5 -44t91.5 -14.5q44 0 79 12t59.5 31.5t42 51.5t28 64t17 79t9 86t3.5 94v493h-191v295h695v-295h-136v-528q0 -75 -4.5 -136t-19 -136t-39.5 -133t-70.5 -115.5t-106.5 -95.5t-152 -61.5t-204 -23.5zM934 1874l-299 -277h-270l231 277h338zM1370 1874
l-299 -277h-270l231 277h338zM999 1669l136 125h-31zM563 1669l135 125h-30z" />
    </font>
</defs>
</svg>
